<svg xmlns="http://www.w3.org/2000/svg" fill="none" viewBox="0 0 240 121"><path fill="var(--illustration-positive)" d="M176.854 32a39 39 0 0 0-.431 55.577q.216.214.433.423H35V32z"/><path fill="var(--illustration-gray)" d="M51.67 120.004H16c-7.305 0-16-8.637-16-16v-88C0 8.641 8.695 0 16 0h35.67v.004C44.515.181 36 8.752 36 16.004v88c0 7.252 8.516 15.819 15.67 15.996zM72 120v-8h36v8zm16-8v-8h20v8zm-8-8v-8h28v8zM112 0v8h36V0zm16 8v8h20V8zm-8 8v8h28v-8z"/><path fill="var(--illustration-positive)" d="M148 24c-6.627 0-12-5.373-12-12s5.373-12 12-12 12 5.373 12 12-5.373 12-12 12"/><path fill="var(--illustration-accent-2)" d="M120 108c0 6.627-5.373 12-12 12s-12-5.373-12-12 5.373-12 12-12 12 5.373 12 12"/><circle cx="36" cy="60" r="36" fill="var(--illustration-accent-2)"/><path fill="var(--illustration-black)" d="M36 24a36.001 36.001 0 0 0 0 72z"/><path fill="var(--illustration-black)" fill-rule="evenodd" d="m156.586 60.319-14.638 12.443-1.295-1.524 11.691-9.938H80v-2h72.444l-11.81-10.554 1.333-1.492z" clip-rule="evenodd"/><path fill="var(--illustration-black)" d="M148 0a12 12 0 0 0-12 12 12 12 0 0 0 12 12z"/><path fill="var(--illustration-primary)" d="M204 96a36 36 0 0 0 33.26-22.223 36.01 36.01 0 0 0-7.804-39.233A36 36 0 1 0 204 96m-96 0a12 12 0 1 0 0 24zM67.2 60c0 17.231-13.968 31.2-31.2 31.2C18.77 91.2 4.8 77.231 4.8 60S18.77 28.8 36 28.8c17.232 0 31.2 13.969 31.2 31.2"/><path fill="var(--illustration-white)" d="M36.073 68.1c-4.662 0-8.438-3.892-8.438-8.7s3.776-8.7 8.438-8.7c3.923 0 7.193 2.783 8.141 6.524h8.585C51.766 48.634 44.68 42 36.073 42c-9.323 0-16.874 7.786-16.874 17.4s7.551 17.4 16.874 17.4c8.606 0 15.693-6.633 16.726-15.226h-8.583c-.95 3.743-4.218 6.527-8.143 6.527"/><path fill="var(--illustration-white)" d="M187.773 66.991V78.33c0 .698.584.99.764 1.056.181.078.791.25 1.333-.265l8.454-8.242c.722-.7 1.413-1.44 1.935-2.301.246-.406.35-.635.35-.635.518-1.067.518-2.096.011-3.12-.748-1.527-2.664-3.081-5.552-4.557l-4.93 2.792c-1.462.842-2.368 2.33-2.368 3.938z" opacity=".8"/><path fill="var(--illustration-white)" d="M182.914 41.776v11.89c0 1.489.983 2.805 2.381 3.226 4.761 1.394 13.054 4.397 15.058 8.81.257.58.415 1.145.465 1.737a14.2 14.2 0 0 0 1.654-8.163 14.06 14.06 0 0 0-5.82-10.127l-11.811-8.386a1.16 1.16 0 0 0-.698-.237 1.16 1.16 0 0 0-.584.144 1.28 1.28 0 0 0-.645 1.106"/><path fill="var(--illustration-white)" d="M219.222 66.991V78.33c0 .698-.584.99-.764 1.056-.181.078-.791.25-1.333-.265l-8.65-8.432c-.587-.573-1.152-1.18-1.593-1.878-.354-.549-.492-.868-.492-.868-.518-1.067-.518-2.096-.011-3.12.752-1.527 2.664-3.081 5.552-4.557l4.929 2.792c1.475.842 2.369 2.33 2.369 3.938z" opacity=".8"/><path fill="var(--illustration-white)" d="M224.088 41.776v11.89a3.38 3.38 0 0 1-2.381 3.226c-4.761 1.394-13.054 4.397-15.058 8.81a5.3 5.3 0 0 0-.465 1.737 14.2 14.2 0 0 1-1.654-8.163 14.05 14.05 0 0 1 5.824-10.127l11.807-8.386a1.14 1.14 0 0 1 .698-.237c.208 0 .388.038.584.144.388.222.649.63.649 1.106z"/></svg>