<svg xmlns="http://www.w3.org/2000/svg" fill="none" viewBox="0 0 240 240"><path fill="#0000FF" d="M138.069 99.51H101.93a3 3 0 0 0-3 3v36.139a3 3 0 0 0 3 3h36.139a3 3 0 0 0 3-2.999v-36.14a3 3 0 0 0-3-3"/><path fill="#464B55" fill-rule="evenodd" d="M234.008 3.913q.06 0 .121.004l.103.005.083.009.077.008q.114.014.227.034l.041.006q.131.025.259.058l.014.003a4 4 0 0 1 2.707 2.378c.207.515.298 1.055.285 1.589v174.245q-.001.228-.028.452a4 4 0 0 1-1.2 3.359l-52.204 50.078a4 4 0 0 1-2.031 1.044 4 4 0 0 1-1.968.069H6.078a4 4 0 0 1-3.999-3.996V57.988q0-.127.007-.25.001-.026.004-.048.009-.12.024-.24l.004-.032q.041-.279.118-.544l.008-.03q.039-.13.087-.258l.012-.03a4 4 0 0 1 .09-.218l.025-.052q.052-.114.112-.221l.041-.072a4 4 0 0 1 .654-.848l.05-.05L55.718 5.019a4 4 0 0 1 2.763-1.109h175.446zM16.054 229.254h161.29v-42.077H60.086zm-5.976-5.357L54.656 181.3V61.988H10.078zm175.266-.015 37.772-36.705h-37.772zM62.656 179.177h114.688V61.988H62.656zm122.688-118.91v118.91h44.581V17.319zm-169.29-6.28h38.602V17.1zm46.602 0h117.459l43.864-42.077H62.656z" clip-rule="evenodd"/></svg>