<svg xmlns="http://www.w3.org/2000/svg" fill="none" viewBox="0 0 240 241"><path fill="#45D9F5" d="M0 240.003h144v-240H0z"/><path fill="#464B55" d="M240 0h-96v24h96z"/><path fill="#0A0B0D" d="M96 96H48v48h48zm0-16H48v8h48zm0-16H48v8h48zm0-16H48v8h48z"/><path fill="#464B55" d="M240 216h-96v24h96z"/><path fill="#578BFA" d="M0 24h144V0H0zm0 216h144v-24H0z"/><path fill="#0A0B0D" d="M72 14a2 2 0 1 0 0-4 2 2 0 0 0 0 4m8 212H64v4h16zm-7.997-34-48.498-48H120.5z"/><path fill="#B1B7C3" d="M144 79.584c0-2.598 0-3.897.489-4.896a4.8 4.8 0 0 1 2.199-2.198c.999-.49 2.298-.49 4.896-.49h80.832c2.598 0 3.897 0 4.896.49a4.8 4.8 0 0 1 2.199 2.198c.489 1 .489 2.298.489 4.896v80.832c0 2.598 0 3.897-.489 4.896a4.8 4.8 0 0 1-2.199 2.199c-.999.489-2.298.489-4.896.489h-80.832c-2.598 0-3.897 0-4.896-.489a4.8 4.8 0 0 1-2.199-2.199c-.489-.999-.489-2.298-.489-4.896z"/></svg>