<svg xmlns="http://www.w3.org/2000/svg" fill="none" viewBox="0 0 240 240"><path fill="#578BFA" d="M0 56a7 7 0 0 1 7-7h226a7 7 0 0 1 7 7v48.808a7 7 0 0 1-7 7H7a7 7 0 0 1-7-7z"/><path fill="#464B55" d="M0 73h240v110a7 7 0 0 1-7 7H7a7 7 0 0 1-7-7z"/><path fill="#0A0B0D" d="M125 173h-2V88h2z"/><path fill="#FFFFFF" d="M151.268 158.734c-12.744-12.745-3.718-34.534 14.305-34.534l6.629.001v-6.63c0-18.023 21.79-27.05 34.534-14.306s3.719 34.535-14.304 34.535l-6.629.002v6.628c0 18.022-21.791 27.048-34.535 14.304m41.164-34.534c5.907 0 8.864-7.142 4.687-11.318-4.176-4.176-11.316-1.218-11.316 4.689v6.63zm-31.548 24.917c4.177 4.176 11.318 1.219 11.318-4.687v-6.628l-6.629-.002c-5.906 0-8.865 7.14-4.689 11.317"/><path fill="#FFFFFF" d="M172.219 137.797v-13.576l13.581-.012v13.588z"/><path fill="#578BFA" d="M172.201 117.571c0-18.023 21.79-27.049 34.534-14.306s3.719 34.535-14.303 34.535l-6.414.001-13.83-13.601.013.001zm24.918-4.689c-4.176-4.176-11.316-1.218-11.316 4.689v6.63l6.629-.001c5.906 0 8.863-7.141 4.687-11.318"/><path fill="#0A0B0D" d="M172.219 137.797v-13.576l13.581-.012v13.588z"/><path fill="#FFFFFF" d="M27 115.414h68V165H27z"/><path fill="#578BFA" d="M27 105.5h68v15.3H27z"/><path fill="#578BFA" d="M37.195 97h12.033v18.415H37.195zm35.578 0h12.033v18.415H72.773z"/><path fill="#0A0B0D" d="M37.195 105.5h12.033v9.915H37.195zm35.578 0h12.033v9.915H72.773z"/><path fill="#464B55" d="M34.516 136.428H46.86v12.345H34.516zm20.312 0h12.345v12.345H54.828z"/><path fill="#578BFA" d="M75.14 136.428h12.346v12.345H75.14z"/><circle cx="19" cy="61.5" r="4" fill="#0A0B0D"/><circle cx="35" cy="61.5" r="4" fill="#0A0B0D"/><circle cx="51" cy="61.5" r="4" fill="#0A0B0D"/></svg>