<svg xmlns="http://www.w3.org/2000/svg" fill="none" viewBox="0 0 240 240"><g clip-path="url(#a)"><path fill="#FFFFFF" d="M107.875 178.533c2.281 3.875-.354 8.73-4.741 9.029l-.429.015v-2c3.094 0 5.016-3.363 3.447-6.029L55.099 92.815 4.046 179.548c-1.57 2.666.353 6.029 3.448 6.029v2l-.43-.015c-4.387-.299-7.022-5.154-4.741-9.029l52.776-89.66zm-5.17 7.044v2H7.494v-2zm135.155-41.639c2.281 3.875-.355 8.73-4.741 9.03l-.43.014v-2c3.094 0 5.017-3.363 3.447-6.029l-51.053-86.732-51.052 86.732c-1.57 2.666.353 6.029 3.447 6.029v2l-.43-.014c-4.386-.3-7.022-5.155-4.741-9.03l52.776-89.66zm-5.171 7.044v2h-95.211v-2z"/><path fill="#ECD069" d="M54.833 202.515c15.026 0 27.207-12.182 27.207-27.208 0-15.027-12.18-27.208-27.207-27.208s-27.208 12.181-27.208 27.208 12.181 27.208 27.208 27.208"/><path fill="#FFFFFF" d="M73.797 175.307c0-10.476-8.493-18.969-18.969-18.969s-18.969 8.493-18.969 18.969 8.493 18.969 18.97 18.969v2l-.542-.007c-11.15-.283-20.138-9.27-20.42-20.421l-.008-.541c0-11.581 9.388-20.969 20.97-20.969l.54.007c11.33.287 20.428 9.562 20.428 20.962l-.007.541c-.287 11.331-9.562 20.428-20.962 20.428v-2c10.476 0 18.969-8.493 18.969-18.969"/><path fill="#ECD069" d="M166.086 159.412c10.493 0 18.999-8.506 18.999-19s-8.506-18.999-18.999-18.999c-10.494 0-19 8.506-19 18.999 0 10.494 8.506 19 19 19m38 0c10.493 0 18.999-8.506 18.999-19s-8.506-18.999-18.999-18.999c-10.494 0-19 8.506-19 18.999 0 10.494 8.506 19 19 19"/><path fill="#ECD069" d="M185.086 126.872c10.493 0 18.999-8.506 18.999-18.999 0-10.494-8.506-19-18.999-19-10.494 0-19 8.506-19 19s8.506 18.999 19 18.999"/><path fill="#FFFFFF" d="M196.632 107.872c-.001-6.379-5.172-11.55-11.551-11.55s-11.55 5.172-11.55 11.55 5.171 11.551 11.55 11.551v2l-.35-.005c-7.321-.186-13.2-6.179-13.2-13.546 0-7.483 6.067-13.55 13.55-13.55s13.55 6.067 13.551 13.55l-.005.351c-.186 7.322-6.18 13.2-13.546 13.2v-2c6.379 0 11.551-5.172 11.551-11.551m-18.993 32.55c0-6.378-5.171-11.549-11.55-11.549s-11.55 5.171-11.55 11.549c0 6.379 5.171 11.551 11.55 11.551v2l-.35-.005c-7.322-.186-13.2-6.179-13.2-13.546 0-7.483 6.067-13.549 13.55-13.549s13.55 6.066 13.55 13.549l-.004.351c-.186 7.322-6.18 13.2-13.546 13.2v-2c6.379 0 11.55-5.172 11.55-11.551m37.993 0c-.001-6.378-5.172-11.549-11.551-11.549s-11.55 5.171-11.55 11.549c0 6.379 5.171 11.551 11.55 11.551v2l-.35-.005c-7.321-.186-13.2-6.179-13.2-13.546 0-7.483 6.067-13.549 13.55-13.549s13.55 6.066 13.551 13.549l-.005.351c-.186 7.322-6.18 13.2-13.546 13.2v-2c6.379 0 11.551-5.172 11.551-11.551m-105.897 40.622c-5.75 25.01-28.15 43.663-54.906 43.663S5.672 206.054-.078 181.044z"/><path fill="#578BFA" d="M91.696 181.044c-5.09 22.141-23.229 39.295-45.886 42.941-22.658-3.646-40.797-20.8-45.888-42.941z"/><path fill="#FFFFFF" d="M239.728 146.449c-5.751 25.01-28.15 43.663-54.907 43.663s-49.156-18.652-54.907-43.663z"/><path fill="#578BFA" d="M221.688 146.449c-5.09 22.14-23.229 39.295-45.886 42.941-22.658-3.646-40.797-20.801-45.888-42.941z"/><path fill="#464B55" d="M50.712 94.462a4.49 4.49 0 0 1 3.132-5.525l130.1-35.969a4.491 4.491 0 0 1 2.393 8.657l-130.1 35.968a4.49 4.49 0 0 1-5.525-3.131"/><path fill="#464B55" d="M115.602 79.772V24.01h8.981v55.76z"/><path fill="#44C28D" d="M137.304 75.28c0 9.508-7.707 17.215-17.215 17.215s-17.214-7.707-17.214-17.214c0-9.508 7.707-17.215 17.214-17.215 9.508 0 17.215 7.707 17.215 17.215"/><path fill="#464B55" d="M115.602 79.772V15.403h8.981v64.369z"/><path fill="#44C28D" d="M137.304 75.28c0 9.508-7.707 17.215-17.215 17.215s-17.214-7.707-17.214-17.214c0-9.508 7.707-17.215 17.214-17.215 9.508 0 17.215 7.707 17.215 17.215"/><path fill="#578BFA" d="M120.091 40.26c13.728 0 24.857-11.128 24.857-24.856H95.234c0 13.728 11.129 24.856 24.857 24.856"/><path fill="#0A0B0D" d="M124.583 15.403v24.452a25 25 0 0 1-8.981 0V15.403zm3.742 59.877a8.233 8.233 0 1 1-16.466 0 8.233 8.233 0 0 1 16.466 0"/><path fill="#464B55" d="M63.883 92.495a8.79 8.79 0 0 1-8.79 8.789 8.789 8.789 0 1 1 0-17.578 8.79 8.79 0 0 1 8.79 8.79"/><path fill="#0A0B0D" d="M58.722 92.495a3.622 3.622 0 1 1-7.245 0 3.622 3.622 0 0 1 7.245 0"/><path fill="#464B55" d="M193.875 57.112a8.789 8.789 0 1 1-17.578 0 8.789 8.789 0 0 1 17.578 0"/><path fill="#0A0B0D" d="M188.706 57.112a3.623 3.623 0 1 1-7.245 0 3.623 3.623 0 0 1 7.245 0"/><path fill="#FFFFFF" d="M104.792 190.252a1 1 0 0 1 0 2H4.797a1 1 0 0 1 0-2zm124.579-33.975a1 1 0 0 1 0 2h-95.879a1 1 0 0 1 0-2z"/></g><defs><clipPath id="a"><path fill="#FFFFFF" d="M0 0h240v240H0z"/></clipPath></defs></svg>