<svg xmlns="http://www.w3.org/2000/svg" fill="none" viewBox="0 0 240 240"><path fill="#464B55" d="M83.631 92.908C92.161 82.582 105.062 76 119.502 76q.25 0 .5.003V44c-19.444 0-38.854 7.481-53.682 22.17l-.075.073-19.782-19.782a104.3 104.3 0 0 0-20.486 29.038A47.9 47.9 0 0 1 44.002 72c16.458 0 30.982 8.283 39.63 20.908M120.002 224c41.521 0 77.36-24.333 94.033-59.516a48 48 0 0 1-56.301-15.508c-8.307 11.973-22.094 19.857-37.732 20.021V208c-24.299 0-46.257-9.799-62.156-25.784l-.03-.03-.03-.03a87.8 87.8 0 0 1-11.574-14.206q-1.099.05-2.21.05a47.9 47.9 0 0 1-18.025-3.499C42.654 199.675 78.487 224 120.002 224m0-208c41.521 0 77.36 24.333 94.033 59.516a48 48 0 0 0-33.18-1.063 76.6 76.6 0 0 0-7.109-8.197C159.997 52.508 141.026 44 120.002 44z"/><path fill="#FFFFFF" d="M45.228 167.985C61.051 192.653 88.716 209 120.197 209c31.479 0 59.141-16.343 74.964-41.007a49 49 0 0 1-2.324-.097C177.271 191.457 150.549 207 120.197 207c-30.362 0-57.092-15.554-72.656-39.129q-1.149.084-2.313.114"/><path fill="#FFFFFF" d="M65.816 162.766q.906-.463 1.79-.963c12.076 15.123 30.573 24.886 51.391 25.19 21.188-.309 39.971-10.416 52.029-26q.862.525 1.744 1.013c-12.227 15.93-31.255 26.355-52.773 26.966V189q-.5 0-1-.007-.499.007-1 .007v-.028c-21.173-.601-39.936-10.706-52.18-26.206M47.35 72.115a49 49 0 0 0-2.319-.104C60.854 47.345 88.517 31 119.997 31s59.144 16.345 74.967 41.011q-1.161.025-2.318.106C177.081 48.55 150.354 33 119.997 33S62.916 48.548 47.35 72.115"/><path fill="#FFFFFF" fill-rule="evenodd" d="M119.999 23c-26.823 0-51.072 10.887-68.593 28.407l-1.414-1.414C67.872 32.113 92.623 21 120 21z" clip-rule="evenodd"/><path fill="#578BFA" d="M196 164a44.006 44.006 0 0 0 43.155-52.584 44.01 44.01 0 0 0-34.571-34.57A44 44 0 1 0 196 164"/><path fill="#FFFFFF" d="M186.567 146.289a27.51 27.51 0 0 1-18.067-25.832 27.5 27.5 0 0 1 18.067-25.831 1.98 1.98 0 0 0 1.183-1.733v-2.567a1.3 1.3 0 0 0-.539-1.184 1.3 1.3 0 0 0-1.295-.126 33 33 0 0 0-22.978 31.441 33 33 0 0 0 22.978 31.442 1.3 1.3 0 0 0 1.723-.647c.095-.207.133-.437.111-.664v-2.567a1.98 1.98 0 0 0-1.183-1.732"/><path fill="#FFFFFF" d="M208.055 126.994c0-6.417-3.905-8.58-11.459-9.616-5.582-.807-6.655-2.117-6.655-4.721s1.889-4.226 5.5-4.226c3.291 0 5.189 1.146 5.968 3.795a1.405 1.405 0 0 0 1.329 1.018h2.887a1.282 1.282 0 0 0 1.293-1.494c-.917-4.189-3.74-6.71-8.168-7.499v-4.418a1.374 1.374 0 0 0-1.375-1.375h-2.75a1.376 1.376 0 0 0-1.375 1.375v4.263c-5.5.77-8.974 4.4-8.974 9.056 0 6.023 3.667 8.36 11.33 9.396 5.216.853 6.701 1.98 6.701 4.941s-2.521 4.95-6.077 4.95c-4.795 0-6.417-2.099-6.958-4.822a1.394 1.394 0 0 0-1.347-1.118h-3.135a1.29 1.29 0 0 0-.985.45 1.3 1.3 0 0 0-.29 1.044c.798 4.583 3.74 7.938 9.735 8.745v4.345a1.374 1.374 0 0 0 1.375 1.375h2.75a1.376 1.376 0 0 0 1.375-1.375v-4.345c5.684-.898 9.305-4.822 9.305-9.744"/><path fill="#FFFFFF" d="M205.419 88.906a1.3 1.3 0 0 1 .665.11 33 33 0 0 1 22.978 31.441 33 33 0 0 1-22.978 31.442 1.295 1.295 0 0 1-1.723-.647 1.3 1.3 0 0 1-.111-.664v-2.567a1.84 1.84 0 0 1 1.183-1.732 27.51 27.51 0 0 0 18.067-25.832 27.5 27.5 0 0 0-18.067-25.831 1.98 1.98 0 0 1-1.183-1.733v-2.567a1.3 1.3 0 0 1 .539-1.184c.185-.133.403-.214.63-.236"/><path fill="#578BFA" d="M45.031 164a44.01 44.01 0 0 0 40.65-27.162A44 44 0 1 0 45.032 164"/><path fill="#FFFFFF" d="M31.224 86.74a36.002 36.002 0 0 1 49.085 26.237A36 36 0 1 1 31.224 86.74M11 120a34 34 0 0 0 33.155 33.989L45 154a34 34 0 0 0 18.362-5.385l.528-.345a34 34 0 0 0 12.275-14.679l.247-.579a34 34 0 0 0 2.052-19.026l-.117-.619a34 34 0 0 0-8.864-16.959l-.441-.45a34 34 0 0 0-16.792-9.176l-.617-.129A34 34 0 0 0 16.73 101.11l-.346.528A34 34 0 0 0 11 120"/><path fill="#ECD069" d="M120 207c-10.536 0-19-8.464-19-19s8.464-19 19-19"/><path fill="#578BFA" d="M120 169c10.536 0 19 8.464 19 19s-8.464 19-19 19m0-131c-8.873 0-16-7.127-16-16s7.127-16 16-16"/><path fill="#44C28D" d="M120 44c8.873 0 16 7.127 16 16s-7.127 16-16 16"/><path fill="#FFFFFF" d="M42.418 141.941v-6.106c-6.416-.82-10.55-4.603-10.55-9.888h7.413c0 3.144 2.281 4.693 5.988 4.693 3.755 0 5.513-1.731 5.513-3.919 0-2.278-1.568-2.688-4.847-3.235l-3.517-.592c-5.798-.957-9.885-3.418-9.885-9.342 0-4.648 3.611-8.521 9.885-9.387v-6.106h5.798v6.152c6.13.957 9.457 4.784 9.553 9.204h-7.414c0-2.324-1.569-4.055-5.323-4.055-3.612 0-5.038 1.777-5.038 3.6 0 2.324 1.663 2.962 4.657 3.417l3.375.502c5.608.82 10.17 3.007 10.17 9.25 0 5.149-3.897 8.749-9.98 9.66v6.152z"/></svg>