<svg xmlns="http://www.w3.org/2000/svg" fill="none" viewBox="0 0 240 240"><path fill="#578BFA" d="M96 240h144V0H96z"/><path fill="#45D9F5" d="M96 216h144V24H96z"/><path fill="#464B55" fill-rule="evenodd" d="M96 216v24H0v-24zm0-192V0H0v24z" clip-rule="evenodd"/><path fill="#0A0B0D" d="M168 14c1.1 0 2-.9 2-2s-.9-2-2-2-2 .9-2 2 .9 2 2 2m8 212h-16v4h16z"/><path fill="#44C28D" d="M168.103 208c22.036 0 39.9-17.864 39.9-39.9s-17.864-39.9-39.9-39.9-39.9 17.864-39.9 39.9 17.864 39.9 39.9 39.9"/><path fill="#464B55" d="M168.103 160c22.036 0 39.9-17.864 39.9-39.9s-17.864-39.9-39.9-39.9-39.9 17.864-39.9 39.9 17.864 39.9 39.9 39.9"/><path fill="#578BFA" d="M200.003 144.1c-7.3 9.7-18.8 15.9-31.9 15.9-13 0-24.6-6.2-31.9-15.9 7.3-9.7 18.8-15.9 31.9-15.9 13 0 24.6 6.3 31.9 15.9"/><path fill="#ECD069" d="M168.103 112c22.036 0 39.9-17.864 39.9-39.9s-17.864-39.9-39.9-39.9-39.9 17.864-39.9 39.9 17.864 39.9 39.9 39.9"/><path stroke="#0A0B0D" stroke-miterlimit="10" stroke-width="2" d="M168.103 104c17.618 0 31.9-14.282 31.9-31.9s-14.282-31.9-31.9-31.9-31.9 14.282-31.9 31.9 14.282 31.9 31.9 31.9ZM168 56v32m16-16h-32m27.303-11.3-22.6 22.6m22.6 0-22.6-22.6M168 118.2v73.7m-6.102-67.9 6.2-6.5 5.9 6.5"/><path fill="#B1B7C3" d="M0 79.584c0-2.598 0-3.897.49-4.896a4.8 4.8 0 0 1 2.198-2.198c1-.49 2.298-.49 4.896-.49h80.832c2.598 0 3.897 0 4.896.49a4.8 4.8 0 0 1 2.198 2.198c.49 1 .49 2.298.49 4.896v80.832c0 2.598 0 3.897-.49 4.896a4.8 4.8 0 0 1-2.198 2.199c-1 .489-2.298.489-4.896.489H7.584c-2.598 0-3.897 0-4.896-.489a4.8 4.8 0 0 1-2.199-2.199C0 164.313 0 163.014 0 160.416z"/></svg>