<svg xmlns="http://www.w3.org/2000/svg" fill="none" viewBox="0 0 32 32"><path fill="#5DE2F8" d="M32 16c0 8.837-7.163 16-16 16S0 24.837 0 16 7.163 0 16 0s16 7.163 16 16"/><path fill="#0A0B0D" d="M25.772 16c0-5.397-4.375-9.773-9.772-9.773S6.227 10.603 6.227 16s4.376 9.772 9.773 9.772v2c-6.502 0-11.773-5.27-11.773-11.772S9.498 4.227 16 4.227 27.772 9.498 27.772 16 22.502 27.772 16 27.772v-2c5.397 0 9.772-4.375 9.772-9.772"/><path fill="#0A0B0D" d="M19.947 16A3.947 3.947 0 1 0 16 19.947v2l-.306-.008a5.947 5.947 0 0 1-5.633-5.633L10.053 16A5.95 5.95 0 0 1 16 10.054l.306.008a5.947 5.947 0 0 1 5.64 5.94l-.007.305A5.947 5.947 0 0 1 16 21.946v-2A3.947 3.947 0 0 0 19.947 16"/></svg>