<svg xmlns="http://www.w3.org/2000/svg" fill="none" viewBox="0 0 40 40"><path fill="#B1B7C3" d="M35.892 5.916a1 1 0 0 1 1 1V17h-4V9.916H7.112V27.73h9.503v4H4.111a1 1 0 0 1-1-1V6.916a1 1 0 0 1 .898-.995l.102-.005z"/><path fill="#F6812A" d="M27.445 18.745a1 1 0 0 1 1.781 0l1.993 3.904a1 1 0 0 0 .733.533l4.329.688a1 1 0 0 1 .55 1.694l-3.097 3.102a1 1 0 0 0-.28.862l.683 4.33a1 1 0 0 1-1.441 1.047l-3.907-1.987a1 1 0 0 0-.907 0l-3.907 1.987a1 1 0 0 1-1.44-1.047l.682-4.33a1 1 0 0 0-.28-.862l-3.098-3.102a1 1 0 0 1 .55-1.694l4.33-.688a1 1 0 0 0 .733-.533z"/><path fill="#B1B7C3" d="M22.303 13.363v4H10.584v-4zm-5.598 5.672v4h-6.121v-4z"/></svg>