<svg xmlns="http://www.w3.org/2000/svg" fill="none" viewBox="0 0 40 40"><path fill="#B1B7C3" d="M36.898 18v2c0 9.333-7.565 16.898-16.898 16.898S3.102 29.333 3.102 20v-2zM7.256 22c.961 6.174 6.3 10.898 12.744 10.898 6.443 0 11.783-4.724 12.744-10.898z"/><path fill="#B1B7C3" d="M20.325 24.495c4.21 0 8.343.676 13.45 1.97l-.982 3.877c-4.931-1.25-8.71-1.846-12.468-1.847-3.759 0-7.597.598-12.644 1.85l-.963-3.883c5.214-1.294 9.4-1.967 13.607-1.967"/><path fill="#B1B7C3" d="M22 36.134h-4V19.82h4z"/><path fill="#B1B7C3" d="M31.797 3.695a2.903 2.903 0 0 1 .382 4.088l-5.993 7.229a3 3 0 0 0-.69 1.915v1.785a3 3 0 0 1-3 3h-4.991a3 3 0 0 1-3-3v-1.785a3 3 0 0 0-.69-1.914L7.836 7.8a2.903 2.903 0 1 1 4.47-3.705l4.204 5.072a3 3 0 0 0 2.31 1.086h2.361a3 3 0 0 0 2.31-1.086l4.218-5.09a2.903 2.903 0 0 1 4.088-.382"/><path fill="#B1B7C3" d="M23.053 6.017a3.045 3.045 0 1 1-6.091 0 3.045 3.045 0 0 1 6.09 0"/></svg>