<svg xmlns="http://www.w3.org/2000/svg" fill="none" viewBox="0 0 40 40"><path fill="#B1B7C3" d="M26.209 33.447V6.974H13.792v26.473zm1-30.473a3 3 0 0 1 3 3v28.473a3 3 0 0 1-3 3H12.792a3 3 0 0 1-3-3V5.974l.003-.154a3 3 0 0 1 2.996-2.846z"/><path fill="#B1B7C3" d="M26.209 33.447V6.974H13.792v26.473zm1-30.473a3 3 0 0 1 3 3v28.473a3 3 0 0 1-3 3H12.792a3 3 0 0 1-3-3V5.974l.003-.154a3 3 0 0 1 2.996-2.846z"/><path fill="#B1B7C3" d="M26.209 33.447V6.974H13.792v26.473zm1-30.473a3 3 0 0 1 3 3v28.473a3 3 0 0 1-3 3H12.792a3 3 0 0 1-3-3V5.974l.003-.154a3 3 0 0 1 2.996-2.846z"/><path fill="#B1B7C3" d="M26.209 33.447V6.974H13.792v26.473zm1-30.473a3 3 0 0 1 3 3v28.473a3 3 0 0 1-3 3H12.792a3 3 0 0 1-3-3V5.974l.003-.154a3 3 0 0 1 2.996-2.846z"/><path fill="#B1B7C3" d="M37.052 33.447v4H2.948v-4zM24.585 18v4h-2.633v-4z"/></svg>