<svg xmlns="http://www.w3.org/2000/svg" fill="none" viewBox="0 0 40 40"><g clip-path="url(#a)"><path fill="#C872FF" d="m8.284 28.482 3.25 3.25 3.253-3.252-3.25-3.25zm3.957 8.2-.077.069a1 1 0 0 1-1.262 0l-.075-.069-7.493-7.493-.07-.076a1 1 0 0 1 .07-1.338l7.496-7.496a1 1 0 0 1 1.338-.069l.076.07 7.493 7.492.068.076a1 1 0 0 1-.068 1.339z"/><path fill="#B1B7C3" d="M35.91 3.039a1 1 0 0 1 1.07 1.069l-1.3 18.202a1 1 0 0 1-1.704.635l-4-3.999-6.988 6.99a1 1 0 0 1-1.414 0l-7.493-7.493a1 1 0 0 1 0-1.414l6.99-6.99-3.998-3.996a1 1 0 0 1 .636-1.704z"/></g><defs><clipPath id="a"><path fill="#FFFFFF" d="M0 0h40v40H0z"/></clipPath></defs></svg>