<svg xmlns="http://www.w3.org/2000/svg" fill="none" viewBox="0 0 40 40"><g clip-path="url(#a)"><path fill="#C872FF" d="M20.482 5.522a1 1 0 0 1 1-1h4.425a1 1 0 0 1 1 1v4.425a1 1 0 0 1-1 1h-4.425a1 1 0 0 1-1-1zm8.398 9.166a1 1 0 0 1 1-1h2.847a1 1 0 0 1 1 1v2.847a1 1 0 0 1-1 1H29.88a1 1 0 0 1-1-1zM31.304 3.99a1 1 0 0 1 1-1h3.71a1 1 0 0 1 1 1v3.711a1 1 0 0 1-1 1h-3.71a1 1 0 0 1-1-1z"/><path fill="#B1B7C3" d="M6.706 36.893c-2.23.597-4.272-1.444-3.674-3.675l7.77-28.997 24.902 24.903zm.64-4.313 20.631-5.527-15.105-15.105z"/><path fill="#B1B7C3" d="m23.565 29.416-2.828 2.828L7.33 18.839l2.829-2.829z"/></g><defs><clipPath id="a"><path fill="#FFFFFF" d="M0 0h40v40H0z"/></clipPath></defs></svg>