<svg xmlns="http://www.w3.org/2000/svg" fill="none" viewBox="0 0 40 40"><path fill="#CED2DB" d="m14.398 31.459 4.46-5.221a3 3 0 0 1 2.282-1.051h11.815V7.151H7.063v18.036h4.335a3 3 0 0 1 3 3zm22.557-5.272a3 3 0 0 1-3 3H21.6l-5.922 6.93c-1.811 2.12-5.28.839-5.28-1.948v-4.982H6.063a3 3 0 0 1-3-3V6.151a3 3 0 0 1 3-3h27.892a3 3 0 0 1 3 3z"/><path fill="#B1B7C3" d="M13.48 12.93a3.73 3.73 0 0 1 5.228-.686l1.3 1 1.303-1a3.728 3.728 0 0 1 4.542 5.913l-5.844 4.489-5.843-4.489a3.73 3.73 0 0 1-.686-5.227"/></svg>