<svg xmlns="http://www.w3.org/2000/svg" fill="none" viewBox="0 0 48 48"><g fill="#0052FF" clip-path="url(#a)"><path d="M37.113 27C43.123 27 48 31.704 48 37.5S43.123 48 37.113 48c-3.861 0-7.36-1.988-9.29-5.04L25.5 45.2v-7.7h7.983l-3.512 3.388c1.32 2.576 4.05 4.312 7.142 4.312 4.398 0 7.984-3.458 7.984-7.7s-3.586-7.7-7.984-7.7c-3.237 0-6.14 1.862-7.375 4.76l-2.684-1.078C28.752 29.548 32.7 27 37.114 27"/><path fill-rule="evenodd" d="M21.75 0C33.764 0 43.5 9.765 43.5 21.814c0 1.236-.106 2.448-.306 3.628A13.94 13.94 0 0 0 37 24c-2.684 0-5.191.755-7.321 2.064v-8.697a20.57 20.57 0 0 1-10.27 9.523V43.5C8.5 42.326 0 33.066 0 21.814 0 9.765 9.736 0 21.75 0m-1.993 7.948c-.823 5.033-5.169 8.876-10.42 8.876v9.963c10.741 0 19.54-8.293 20.418-18.839z" clip-rule="evenodd"/><path d="m38.565 36.926 3.208 3.08-2.062 1.988-4.05-3.92V31.9h2.904z"/></g><defs><clipPath id="a"><path fill="#FFFFFF" d="M0 0h48v48H0z"/></clipPath></defs></svg>