<svg xmlns="http://www.w3.org/2000/svg" fill="none" viewBox="0 0 96 96"><path fill="#18A81D" d="M46.28 1.79a2.7 2.7 0 0 1 3.81 0l16.44 16.43a2.7 2.7 0 0 1 0 3.81L50.09 38.46a2.7 2.7 0 0 1-3.81 0L29.84 22.03a2.7 2.7 0 0 1 0-3.81zM32.05 20.18l13.26 13.2.04-13.2zm18.93-.44 13-.04L50.94 6.76z"/><path fill="#464B55" d="M50.45 69.842a161 161 0 0 1 20.452 1.57l1.278.185 1.217.182.6 1.076q2.496 4.49 4.998 8.983t5.001 8.988l2.065 3.714H10.719l12.666-22.761 1.217-.182a162 162 0 0 1 24.214-1.767zm-1.645 4.987c-8.304-.018-15.79.626-22.252 1.538l-7.33 13.173h58.336l-2.933-5.27q-2.2-3.951-4.398-7.904a156 156 0 0 0-21.423-1.537"/><path fill="#464B55" d="M58.94 79.24v5H37.83v-5zm32.83-35.78v2.5c0 3.109-1.66 5.785-4.037 7.932-2.377 2.146-5.678 3.965-9.544 5.441-7.748 2.959-18.284 4.737-29.8 4.737-11.514 0-22.052-1.778-29.803-4.737-3.867-1.476-7.168-3.295-9.547-5.441C6.661 51.745 5 49.069 5 45.96v-2.5zm-80.913 5c.369.548.87 1.123 1.532 1.72 1.76 1.588 4.447 3.133 7.98 4.482 7.05 2.691 16.956 4.408 28.02 4.408 11.066 0 20.97-1.717 28.016-4.408 3.532-1.349 6.219-2.894 7.978-4.482.66-.597 1.163-1.172 1.531-1.72z"/><path fill="#464B55" d="M58.53 59.33V72.5h-5v-8.17H43.24v8.17h-5V59.33zM26.679 12.982l-3.536 3.536-10.1-10.1 3.535-3.536zM19.98 17.98v5H5.7v-5zm6.698 9.987-10.1 10.11-3.537-3.534 10.1-10.11zm57.051 6.576-3.538 3.534-10.1-10.11 3.538-3.534zM91.07 17.98v5H76.79v-5zM83.728 6.417 73.627 16.518l-3.535-3.536 10.1-10.1z"/></svg>