<svg xmlns="http://www.w3.org/2000/svg" fill="none" viewBox="0 0 96 96"><g clip-path="url(#a)"><path fill="#5B616E" d="M96 48c0 26.51-21.49 48-48 48S0 74.51 0 48 21.49 0 48 0s48 21.49 48 48M81.477 66.825C63.085 56.927 40.034 63.383 29.516 81.6c10.715-18.56 4.353-42.282-14.207-52.997 18.312 10.572 41.655 4.524 52.568-13.465A38.2 38.2 0 0 0 48 9.6C26.792 9.6 9.6 26.792 9.6 48S26.792 86.4 48 86.4c14.368 0 26.893-7.89 33.477-19.575m.017-.031A38.2 38.2 0 0 0 86.4 48c0-13.925-7.413-26.12-18.507-32.852-9.933 18.1-3.924 40.816 13.601 51.646"/></g><defs><clipPath id="a"><path fill="#FFFFFF" d="M0 0h96v96H0z"/></clipPath></defs></svg>