<svg xmlns="http://www.w3.org/2000/svg" fill="none" viewBox="0 0 96 96"><path fill="#D3E1FF" fill-rule="evenodd" d="M96 48c0 26.51-21.49 48-48 48S0 74.51 0 48 21.49 0 48 0s48 21.49 48 48m-7.807 0C88.193 25.802 70.198 7.807 48 7.807S7.807 25.802 7.807 48 25.802 88.193 48 88.193 88.193 70.198 88.193 48" clip-rule="evenodd"/><path fill="#84AAFD" fill-rule="evenodd" d="M88.125 48c0 22.16-17.965 40.126-40.126 40.126S7.873 70.161 7.873 48 25.838 7.874 47.999 7.874 88.125 25.839 88.125 48m-8.175 0c0-17.646-14.305-31.951-31.951-31.951S16.049 30.354 16.049 48s14.304 31.95 31.95 31.95S79.95 65.646 79.95 48" clip-rule="evenodd"/><path fill="#578BFA" d="M15.493 48c0 17.952 14.553 32.505 32.505 32.505S80.504 65.952 80.504 48 65.95 15.494 47.998 15.494 15.493 30.047 15.493 48"/><path fill="#FFFFFF" d="M54.918 48.341c-3.02 0-4.92-2.056-4.92-5.18 0-3.15 1.926-5.258 4.972-5.258 3.019 0 4.945 2.109 4.945 5.258 0 3.124-1.952 5.18-4.998 5.18m-1.666 8.251 6.507-9.11 6.481-9.214h3.124l-6.56 9.214-6.455 9.11zm1.665-10.698c1.458 0 2.317-1.067 2.317-2.733 0-1.692-.833-2.81-2.264-2.81-1.458 0-2.291 1.118-2.291 2.81 0 1.666.807 2.733 2.238 2.733M67.62 57.01c-3.046 0-4.946-2.083-4.946-5.232s1.9-5.232 4.946-5.232c3.02 0 4.92 2.082 4.92 5.232s-1.9 5.232-4.92 5.232m0-2.447c1.405 0 2.264-1.12 2.264-2.785s-.859-2.785-2.264-2.785c-1.432 0-2.265 1.119-2.265 2.785s.833 2.785 2.265 2.785M25.955 62v-4.565c0-3.95 1.843-6.452 6.189-9.041l5.486-3.38c2.94-1.8 3.643-3.336 3.643-5.004v-.482c0-2.414-1.492-4.39-4.74-4.39-2.941 0-4.916 1.669-5.004 5.004h-5.662c.22-6.057 4.565-9.7 10.666-9.7 6.583 0 10.533 4.082 10.533 9.173 0 3.687-1.755 6.628-6.452 9.569l-6.188 3.818c-1.975 1.273-2.721 2.326-2.721 4.126h15.8V62z"/></svg>