<svg xmlns="http://www.w3.org/2000/svg" fill="none" viewBox="0 0 96 96"><path fill="#77FE7A" d="M20.563 35.066c0 .929-.369 1.82-1.025 2.476L8.535 48.544l11.003 11.003a3.5 3.5 0 0 1 1.025 2.475v14.503h15.592a3.5 3.5 0 0 1 2.35.906l.125.12 9.914 9.914 9.914-9.914.126-.12a3.5 3.5 0 0 1 2.35-.906h15.591V60.934c0-.929.37-1.82 1.025-2.476l9.915-9.914-9.915-9.914a3.5 3.5 0 0 1-1.025-2.475V20.564H62.021a3.5 3.5 0 0 1-2.474-1.026L48.544 8.535 37.542 19.538a3.5 3.5 0 0 1-2.476 1.026H20.563zm60.962.468L92.06 46.07a3.5 3.5 0 0 1 0 4.95L81.525 61.556v16.47a3.5 3.5 0 0 1-3.5 3.5h-16.47L51.018 92.06a3.5 3.5 0 0 1-4.95 0L35.534 81.526h-16.47a3.5 3.5 0 0 1-3.5-3.5V62.643L3.938 51.02a3.5 3.5 0 0 1 0-4.95l11.624-11.625V19.064a3.5 3.5 0 0 1 3.5-3.5h15.382L46.069 3.938a3.5 3.5 0 0 1 4.82-.124l.13.124 11.623 11.625h15.383a3.5 3.5 0 0 1 3.5 3.5z"/><path fill="#FFFFFF" d="M68.424 38.425 41.999 64.849 27.574 50.425l4.85-4.85 9.575 9.575 21.575-21.575z"/></svg>