<svg xmlns="http://www.w3.org/2000/svg" fill="none" viewBox="0 0 96 96"><path fill="#464B55" fill-rule="evenodd" d="M60.8 48c0-7.07-5.73-12.8-12.8-12.8V0c26.51 0 48 21.49 48 48z" clip-rule="evenodd"/><path fill="#44C28D" fill-rule="evenodd" d="M35.2 48c0 7.07 5.73 12.8 12.8 12.8V96C21.49 96 0 74.51 0 48z" clip-rule="evenodd"/><path fill="#FFFFFF" fill-rule="evenodd" d="M48 17c-17.12 0-31 13.88-31 31s13.88 31 31 31 31-13.88 31-31-13.88-31-31-31M15 48c0-18.225 14.775-33 33-33s33 14.775 33 33-14.775 33-33 33-33-14.775-33-33" clip-rule="evenodd"/><path fill="#578BFA" d="M78.4 65.6C88.122 65.6 96 57.72 96 48s-7.879-17.6-17.6-17.6c-9.72 0-17.6 7.88-17.6 17.6s7.88 17.6 17.6 17.6"/><path fill="#0A0B0D" d="M78.4 50.4a5.6 5.6 0 1 0 0-11.2 5.6 5.6 0 0 0 0 11.2"/><path fill="#FFFFFF" fill-rule="evenodd" d="M89.6 61.59a17.57 17.57 0 0 1-11.2 4.01 17.57 17.57 0 0 1-11.2-4.01c.317-6.27 5.228-11.19 11.2-11.19 5.97 0 10.881 4.92 11.2 11.19" clip-rule="evenodd"/><path fill="#FFFFFF" d="M17.6 65.6c9.72 0 17.6-7.88 17.6-17.6s-7.88-17.6-17.6-17.6S0 38.28 0 48s7.88 17.6 17.6 17.6"/><path fill="#FFFFFF" d="M0 48c0-9.72 7.88-17.6 17.6-17.6S35.2 38.28 35.2 48z"/><path fill="#B1B7C3" d="M10.053 41.646c0-.409 0-.613.077-.77a.76.76 0 0 1 .345-.346c.158-.077.362-.077.77-.077h12.71c.408 0 .612 0 .769.077.15.074.272.195.346.346.076.157.076.361.076.77v12.709c0 .408 0 .612-.076.77a.76.76 0 0 1-.346.345c-.157.077-.361.077-.77.077H11.245c-.408 0-.612 0-.77-.077a.76.76 0 0 1-.345-.346c-.077-.157-.077-.361-.077-.77z"/></svg>