<svg xmlns="http://www.w3.org/2000/svg" fill="none" viewBox="0 0 96 96"><path fill="var(--illustration-gray)" d="M4 31.3v52.68c0 6.62 5.38 12 12 12h63.38c6.62 0 12-5.38 12-12V31.3zm20.97 39.78c-6.52 0-11.8-5.28-11.8-11.8s5.28-11.8 11.8-11.8 11.8 5.28 11.8 11.8-5.28 11.8-11.8 11.8"/><path fill="var(--illustration-primary)" d="M61.23 79.24c10.94 0 19.81-8.87 19.81-19.81s-8.87-19.81-19.81-19.81-19.81 8.87-19.81 19.81 8.87 19.81 19.81 19.81"/><path fill="var(--illustration-accent-2)" d="M72.05 57.99H13.24v2h58.81z"/><path fill="var(--illustration-white)" d="M41.43 59.43c0 .19.02.37.03.56h30.6v-2H41.51c-.03.48-.07.95-.07 1.44z"/><path stroke="var(--illustration-white)" stroke-miterlimit="10" stroke-width="2" d="m59.9 47.02 11.98 11.97L59.9 70.97"/><path stroke="var(--illustration-accent-2)" stroke-miterlimit="10" stroke-width="2" d="M28.32 0v19.82"/><path fill="var(--illustration-primary)" d="M91.38 29.3v-8.7c0-6.62-5.38-12-12-12H16c-6.62 0-12 5.39-12 12v8.7z"/><path stroke="var(--illustration-accent-2)" stroke-miterlimit="10" stroke-width="2" d="M67.17 0v19.82"/><path stroke="var(--illustration-white)" stroke-miterlimit="10" stroke-width="2" d="M28.32 8.57v11.25M67.17 8.57v11.25"/></svg>