<svg xmlns="http://www.w3.org/2000/svg" fill="none" viewBox="0 0 240 240"><path fill="#B1B7C3" d="M175.504 37.831a5.87 5.87 0 0 0-5.87-5.87H73.251a5.87 5.87 0 0 0-5.87 5.87v164.337a5.87 5.87 0 0 0 5.87 5.87h96.383a5.87 5.87 0 0 0 5.87-5.87zm9.6 164.337c0 8.544-6.926 15.47-15.47 15.47H73.251c-8.544 0-15.47-6.926-15.47-15.47V37.831c0-8.544 6.926-15.47 15.47-15.47h96.383c8.544 0 15.47 6.927 15.47 15.47z"/><path fill="#B1B7C3" d="M179.733 52.38v9.6H63.164v-9.6zm0 128.12v9.6H63.164v-9.6z"/><path fill="var(--illustration-invert-2)" d="M51.341 108.427 30.14 131.905c-.092.103-.263.035-.252-.103l1.052-23.375H9.91a2.45 2.45 0 0 1-2.448-2.447V59.629a2.45 2.45 0 0 1 2.447-2.447h62.43a2.45 2.45 0 0 1 2.447 2.447v46.351a2.45 2.45 0 0 1-2.447 2.447z"/><path fill="var(--illustration-gray)" d="M12.264 103.626h23.699l-.695 15.439 13.944-15.439h20.776V61.981H12.264zm67.324 2.353c0 4-3.246 7.247-7.247 7.247H53.478l-19.773 21.895-.003-.002c-2.865 3.175-8.876 1.443-8.608-3.533l.827-18.36H9.911a7.25 7.25 0 0 1-7.247-7.247V59.628c0-4 3.247-7.247 7.247-7.247h62.43c4 0 7.247 3.247 7.247 7.247zm-34.844 50.32h-14.58a2.24 2.24 0 0 0-2.242 2.241v14.581a2.24 2.24 0 0 0 2.241 2.242h14.581a2.24 2.24 0 0 0 2.242-2.242V158.54a2.24 2.24 0 0 0-2.242-2.241m169.563-95.08h-14.581a2.24 2.24 0 0 0-2.242 2.241v14.581a2.24 2.24 0 0 0 2.242 2.242h14.581a2.24 2.24 0 0 0 2.241-2.242v-14.58a2.24 2.24 0 0 0-2.241-2.242"/><path fill="#B1B7C3" d="M135.538 37.217v9.6h-28.179v-9.6zm0 157.041v9.6h-28.179v-9.6zM41.152 98.192 27.28 83.782c-3.168-3.281-3.065-8.52.218-11.675 3.282-3.168 8.52-3.065 11.676.217l2.413 2.516 2.516-2.413c3.282-3.168 8.52-3.065 11.676.217 3.168 3.282 3.065 8.52-.217 11.676z"/><path fill="var(--illustration-invert-2)" d="M219.645 150.821v20.665c0 .926-1.167 1.326-1.739.606l-16.788-21.271h-35.566a2.017 2.017 0 0 1-2.013-2.013v-44.727c0-1.109.904-2.013 2.013-2.013h64.968c1.11 0 2.013.904 2.013 2.013v44.727a2.016 2.016 0 0 1-2.013 2.013z"/><path fill="var(--illustration-gray)" d="M168.342 146.02h35.106l11.4 14.443V146.02h12.888v-39.152h-59.394zm68.994 2.787a6.816 6.816 0 0 1-6.813 6.813h-6.075v15.865c0 5.51-6.923 7.843-10.298 3.59l-.009-.01-15.346-19.445h-33.24a6.816 6.816 0 0 1-6.813-6.813v-44.726a6.817 6.817 0 0 1 6.813-6.813h64.968l.35.009a6.816 6.816 0 0 1 6.463 6.804z"/><path fill="#B1B7C3" d="M198.072 138.767c7.03 0 12.729-5.698 12.729-12.728s-5.699-12.728-12.729-12.728-12.728 5.698-12.728 12.728 5.698 12.728 12.728 12.728"/><path fill="var(--illustration-invert-2)" d="M193.794 126.506a2.481 2.481 0 1 0 .001-4.963 2.481 2.481 0 0 0-.001 4.963m8.539 0a2.481 2.481 0 1 0 .001-4.963 2.481 2.481 0 0 0-.001 4.963m.228 2.574a4.61 4.61 0 0 1-9.217 0z"/><rect width="53" height="53" x="93" y="93" fill="var(--illustration-gray)" opacity=".8" rx="4"/></svg>