<svg xmlns="http://www.w3.org/2000/svg" fill="none" viewBox="0 0 240 240"><g clip-path="url(#a)"><path fill="var(--illustration-gray)" fill-rule="evenodd" d="M234.181-.001h5.818v240h-6.032l-.248.242-.237-.242H75.15l-.38.39-.399-.39h-4.863v-4.751l-.461-.45.46-.473V-.001h164.199l.232-.237zm-151.217 232h67.356v-17.301H99.862zm75.356 0h67.346l-16.902-17.301H158.32zm56.149-22.909 17.53 17.943V123.999h-17.53zM77.508 226.135l16.65-17.047v-85.089h-16.65zm30.168-19.437h42.644v-21.3h-21.84zm50.644 0h42.628l-20.808-21.3h-21.82zm27.516-26.917 20.633 21.119v-76.901h-20.633zm-83.678 21.116 20.657-21.149v-55.749h-20.657zm28.657-23.499h47.021V62.601h-47.021zm-53.307-61.399h16.65v-86.27L77.508 12.02zm24.65 0h20.657V60.206l-20.657-21.97zm83.678-55.784v55.784h20.633V39.184zm28.633-29.186V116h17.53V13.161zM158.32 54.601h21.817L201.034 33.3H158.32zm-29.796 0h21.796V33.3h-41.824zM158.32 25.3h50.563l16.973-17.301H158.32zm-57.345 0h49.345V7.999H84.707z" clip-rule="evenodd"/><path fill="var(--illustration-accent-1)" d="M208.386 142.791c19.901-19.333 25.535-47.228 12.586-62.305s-39.579-11.627-59.479 7.706-25.535 47.228-12.586 62.305 39.579 11.627 59.479-7.706M53.952-.88v8H34.36v225.985h19.593v8H26.36V-.881z"/><path fill="var(--illustration-accent-1)" d="M53.952 116v8H30.36v-8z"/><path fill="#0000FF" d="M14.795 0H0v14.795h14.795zm0 225.205H0V240h14.795zm0-112.603H0v14.795h14.795z"/></g><defs><clipPath id="a"><path fill="var(--illustration-white)" d="M0 0h240v240H0z"/></clipPath></defs></svg>