<svg xmlns="http://www.w3.org/2000/svg" fill="none" viewBox="0 0 240 240"><g clip-path="url(#a)"><path fill="var(--illustration-gray)" d="M38.2 95.092a4.8 4.8 0 0 1 6.131 3.198l4.89 16.634 3.118-7.807a4.8 4.8 0 0 1 6.084-2.735l12.111 4.359a4.8 4.8 0 0 1 3.169 4.743l-4.795-.226c4.794.225 4.795.227 4.795.228v.002l-.001.009-.005.09-.014.235c-.012.201-.031.486-.06.847a79 79 0 0 1-.3 3.017 95 95 0 0 1-1.733 9.991c-1.617 7.041-4.56 15.978-10.004 23.126a234 234 0 0 0 2.315 5.868c2.025 4.976 4.784 11.529 7.57 18.071a3626 3626 0 0 0 9.953 23.135h19.284l-1.899-31.594a4.8 4.8 0 0 1 3.06-4.765 56.7 56.7 0 0 1 19.227-3.817 56.8 56.8 0 0 1 21.674 3.817 4.8 4.8 0 0 1 3.068 4.476v31.883h16.836a3618 3618 0 0 0 9.955-23.135c2.786-6.542 5.545-13.095 7.569-18.071a229 229 0 0 0 2.315-5.868c-5.444-7.148-8.386-16.086-10.003-23.126a95 95 0 0 1-1.732-9.991 68 68 0 0 1-.363-3.864l-.012-.235-.005-.069v-.021l-.001-.009v-.002c0-.001 0-.003 4.794-.228l-4.794.226a4.8 4.8 0 0 1 3.168-4.743l12.112-4.359.228-.076a4.8 4.8 0 0 1 5.855 2.811l3.117 7.808 4.892-16.635a4.8 4.8 0 0 1 6.131-3.197l30.835 10.343a4.8 4.8 0 0 1 3.039 6.037l-40.755 125.26a4.8 4.8 0 0 1-4.565 3.316H49.961a4.8 4.8 0 0 1-4.893-3.304l-25.432-78.194L.84 115.165a4.8 4.8 0 0 1 2.643-6.372l34.48-13.614zm161.974 35.859a4.801 4.801 0 0 1-9.063.426l-6.546-16.393-4.259 1.534.005.04c.268 2.27.742 5.431 1.555 8.97 1.607 6.996 4.416 14.897 9.122 20.507l.461.535.196.237q.284.366.492.778c.638 1.262.523 2.446.517 2.543a6 6 0 0 1-.112.831c-.073.356-.173.704-.257.976a40 40 0 0 1-.72 2.072c-.591 1.594-1.45 3.764-2.475 6.283-2.054 5.05-4.838 11.66-7.628 18.213a3619 3619 0 0 1-7.713 17.962 4457 4457 0 0 1-2.553 5.895l-.717 1.649-.238.547-.013.028-.004.007v.003l-4.401-1.917 4.401 1.918a4.8 4.8 0 0 1-4.401 2.882h-24.785a4.8 4.8 0 0 1-4.8-4.8v-33.273a47.1 47.1 0 0 0-14.936-2.107 47 47 0 0 0-12.691 2.043l1.986 33.049a4.8 4.8 0 0 1-4.792 5.088h-27.53a4.8 4.8 0 0 1-4.4-2.882l4.4-1.918-4.4 1.917v-.003q-.002-.002-.003-.007l-.013-.028-.048-.111-.19-.436-.717-1.649a3685 3685 0 0 1-10.266-23.857c-2.79-6.553-5.574-13.163-7.629-18.213-1.024-2.519-1.883-4.689-2.475-6.283a41 41 0 0 1-.72-2.072 11 11 0 0 1-.257-.976 6 6 0 0 1-.111-.831c-.006-.097-.121-1.281.516-2.543l.147-.27q.234-.398.541-.745c4.985-5.635 7.925-13.821 9.584-21.042a85 85 0 0 0 1.555-8.97l.003-.04-4.258-1.534-6.545 16.393a4.801 4.801 0 0 1-9.063-.426L36.6 106.038 11.62 115.9l16.917 39.048.085.21q.04.106.075.213l24.417 75.078h137.853l38.205-117.423-21.6-7.246z"/><path fill="var(--illustration-gray)" d="m103.752 174.265-8.961-2.346c-2.791-.734-5.487 1.481-5.271 4.337l.91 11.896c.168 2.251 2.133 3.957 4.409 3.838l10.087-.509zm38.078 0 8.961-2.346c2.791-.734 5.487 1.481 5.271 4.337l-.91 11.896c-.168 2.251-2.133 3.957-4.409 3.838l-10.087-.509zm26.425 26.508c1.737 3.043 4.929 9.592 5.052 18.472l.003.887c-.08 9.085-3.369 15.764-5.05 18.722l-8.346-4.743c1.308-2.302 3.897-7.583 3.795-14.728v-.003c-.093-6.64-2.484-11.56-3.79-13.849zm-82.025 4.758c-1.306 2.289-3.698 7.209-3.79 13.849v.003c-.103 7.145 2.485 12.426 3.793 14.728l-8.346 4.743c-1.735-3.054-5.184-10.072-5.047-19.609.124-8.88 3.315-15.429 5.052-18.472zm60.646.275-8.985 15.51a4.8 4.8 0 0 1-4.154 2.394h-19.982a4.8 4.8 0 0 1-4.153-2.394l-8.985-15.51 8.306-4.812 7.598 13.116h14.45l7.597-13.116zm-30.965-23.188c1.806 0 3.271-1.449 3.271-3.235s-1.465-3.235-3.271-3.235-3.27 1.449-3.27 3.235 1.464 3.235 3.27 3.235m13.203 0c1.806 0 3.271-1.449 3.271-3.235s-1.465-3.235-3.271-3.235-3.27 1.449-3.27 3.235 1.464 3.235 3.27 3.235m.398 2.974c0 3.779-3.091 6.836-6.912 6.836-3.822 0-6.912-3.057-6.912-6.836z"/><path fill="#B1B7C3" d="M53.69 70.84 38.485 67.2l-3.681 15.039 15.206 3.64z"/><path fill="var(--illustration-accent-1)" d="M18.886 52.471 3.68 48.831-.002 63.87l15.206 3.64z"/><path fill="#B1B7C3" d="m211.589 43.131-15.206-3.64-3.682 15.039 15.206 3.64z"/><path fill="#F8BDF5" d="m221.034 5.053-15.206-3.64-3.681 15.039 15.206 3.64z"/><path fill="var(--illustration-accent-1)" d="M52.6 1.278 37.007-.006l-1.299 15.42L51.302 16.7zm176.546 67.824-14.419 6.004 6.07 14.261 14.42-6.004zm-60.776 71.479-15.206-3.642-3.681 15.04 15.206 3.641z"/><path fill="#F8BDF5" d="m90.096 138.296-13.55 7.737 7.824 13.401 13.549-7.737z"/><path fill="#B1B7C3" d="M177.597 64.2c0-30.155-24.445-54.6-54.6-54.6s-54.6 24.445-54.6 54.6 24.445 54.6 54.6 54.6v9.6c-35.457 0-64.2-28.743-64.2-64.2S87.54 0 122.997 0s64.2 28.743 64.2 64.2-28.743 64.2-64.2 64.2v-9.6c30.155 0 54.6-24.445 54.6-54.6"/></g><defs><clipPath id="a"><path fill="var(--illustration-white)" d="M0 0h240v240H0z"/></clipPath></defs></svg>