<svg xmlns="http://www.w3.org/2000/svg" fill="none" viewBox="0 0 240 240"><path fill="var(--illustration-accent-1)" d="M240 186c0 29.823-24.177 54-54 54s-54-24.177-54-54 24.177-54 54-54 54 24.177 54 54"/><path fill="var(--illustration-black)" d="M224 186.5c0-21.263-17.237-38.5-38.5-38.5S147 165.237 147 186.5s17.237 38.5 38.5 38.5v2c-22.368 0-40.5-18.132-40.5-40.5s18.132-40.5 40.5-40.5 40.5 18.132 40.5 40.5-18.132 40.5-40.5 40.5v-2c21.263 0 38.5-17.237 38.5-38.5"/><path fill="var(--illustration-primary)" d="M0 23a1 1 0 0 1 1-1h176a1 1 0 0 1 1 1v38a1 1 0 0 1-1 1H1a1 1 0 0 1-1-1z"/><path fill="var(--illustration-gray)" d="M35 0h22v42H35z"/><path fill="var(--illustration-black)" d="M35 22h22v20H35z"/><path fill="var(--illustration-gray)" d="M121 0h22v42h-22z"/><path fill="var(--illustration-black)" d="M121 22h22v20h-22z"/><path fill="var(--illustration-primary)" d="M0 56h178v122H0z"/><path fill="var(--illustration-black)" d="M177.997 178h-45.411c3.478-23.419 21.992-41.933 45.411-45.411z"/><path fill="var(--illustration-gray)" d="M0 56h178v111H0z"/><path fill="var(--illustration-black)" d="M177.999 167h-42.561c6.784-18.047 22.953-31.499 42.561-34.411z"/><path fill="var(--illustration-primary)" d="M0 143h23v28H0z"/><path fill="var(--illustration-black)" d="M23 143H0l23 24zM162 40v2H16v-2z"/><path fill="var(--illustration-white)" d="M18 86h37v37H18zm52 0h37v37H70z"/><path fill="var(--illustration-positive)" d="M122 86h37v37h-37z"/><path fill="var(--illustration-black)" d="m153.365 93-13.671 23.66-9.921-10.472 1.452-1.376 8.078 8.527L151.633 92z"/></svg>