<svg xmlns="http://www.w3.org/2000/svg" fill="none" viewBox="0 0 240 240"><g clip-path="url(#a)"><path fill="var(--illustration-gray)" d="M61 76h118v128H61z"/><path fill="var(--illustration-invert)" d="M61 171h118v33H61z"/><path fill="var(--illustration-accent-1)" d="M155.578 125.112c0 19.33-15.67 35-35 35s-35-15.67-35-35 15.67-35 35-35 35 15.67 35 35"/><path fill="var(--illustration-black)" d="M144.578 125.112c0-13.255-10.745-24-24-24s-24 10.745-24 24 10.745 24 24 24v2c-14.359 0-26-11.64-26-26s11.641-26 26-26 26 11.641 26 26-11.64 26-26 26v-2c13.255 0 24-10.745 24-24"/><path fill="var(--illustration-accent-3)" d="M99.5 195 90 180h19z"/><path fill="var(--illustration-positive)" d="m141.5 180 9.5 15h-19z"/><path fill="var(--illustration-black)" d="M121.578 139.112h-2v-28h2z"/><path fill="var(--illustration-black)" d="M106.578 126.112v-2h28v2z"/><path fill="var(--illustration-black)" d="m111.381 135.719-1.415-1.414 19.799-19.799 1.415 1.414z"/><path fill="var(--illustration-black)" d="m131.182 134.305-1.414 1.414-19.799-19.799 1.414-1.414z"/><path fill="var(--illustration-positive)" d="M225.65 117c0 8.008-6.491 14.5-14.5 14.5h-40.603v-17h38.103V57.225h17z"/><path fill="var(--illustration-accent-3)" d="M15.499 129.033c0-8.008 6.492-14.5 14.5-14.5h39.4v17h-36.9v57.276h-17z"/><path fill="var(--illustration-black)" d="M170.547 114.506h8.423v17.079h-8.423zm-109.547 0h8.423v17.079H61z"/><path fill="var(--illustration-positive)" d="m217.148 25.225 24 32h-48z"/><path fill="var(--illustration-accent-3)" d="m24 220.809-24-32h48z"/></g><defs><clipPath id="a"><path fill="var(--illustration-white)" d="M0 0h240v240H0z"/></clipPath></defs></svg>