<svg xmlns="http://www.w3.org/2000/svg" fill="none" viewBox="0 0 240 240"><g clip-path="url(#a)"><path fill="var(--illustration-positive)" d="M101 58.675v48.571H87v-48.57z"/><path fill="var(--illustration-positive)" d="M92.07 46h3.852v73.921H92.07z"/><path fill="var(--illustration-negative)" d="M21 80.704v18.43H7v-18.43z"/><path fill="var(--illustration-negative)" d="M12.07 60h3.852v56.012H12.07zM81 132.83v34.304H66.999V132.83z"/><path fill="var(--illustration-negative)" d="M72.078 128h3.852v56.012h-3.852zM41 115.677V145.9H26.999v-30.223z"/><path fill="var(--illustration-negative)" d="M32.078 98h3.852v63.731h-3.852zm88.922.677V128.9h-14.001V98.677z"/><path fill="var(--illustration-negative)" d="M112.078 81h3.852v63.731h-3.852z"/><path fill="var(--illustration-positive)" d="M61 97.675v48.571H46.999v-48.57z"/><path fill="var(--illustration-positive)" d="M52.078 85h3.852v73.921h-3.852z"/><path fill="var(--illustration-invert)" d="M172 123v-2h7v2zm-40 0v-2h7v2zm-33 0v-2h7v2zm-42 0v-2h7v2zm89 0v-2h7v2z"/><path fill="var(--illustration-invert)" d="M127 123v-2h7v2zm-14 0v-2h7v2zm-42 0v-2h7v2zm-42 0v-2h7v2zm-29 0v-2h7v2zm158 0v-2h8v2zm-73 0v-2h7v2zm-42 0v-2h7v2zm-29 0v-2h8v2zm126.469-87.634h-2v-6.883h2zm-.235 40.758h-2v-6.882h2zM140 116.883h-2V110h2zm0 45.114h-2v-6.883h2zm.313-99.131h-2l-.001-6.883h2zm-.235 40.758h-2v-6.882h2zM140 149.161h-2v-6.883h2zm0 38.509h-2v-6.882h2zm0 26.657h-2v-6.883h2zm0 12.837h-2v-6.883h2zM140 240h-2v-6.883h2zm.391-190.392h-2v-7.866h2zm-.235 40.758h-2V82.5h2zM140 136.324h-2v-6.883h2zm0 38.51h-2v-6.883h2zm0 26.656h-2v-7.866h2zm.391-193.624h-2V0h2zm0 14.242h-2v-7.866h2z"/><path fill="var(--illustration-gray)" d="M227 0h13v240h-13z"/><path fill="var(--illustration-gray)" d="M216 0h24v5h-24zM24 0v5H5v19H0V0zM5 235h19v5H0v-24h5zm235 5h-24v-5h24z"/><path fill="var(--illustration-primary)" d="M147 122.5a7.5 7.5 0 1 1-15 0 7.5 7.5 0 0 1 15 0"/><path fill="var(--illustration-invert)" d="M240.01 116.114v11h-13v-11z"/><path fill="var(--illustration-gray)" d="M187 109h53v25h-53z"/><path fill="var(--illustration-primary)" d="M227 109h13v25h-13z"/><path fill="var(--illustration-invert)" d="M227 160.6h13v4h-13zm0-138h13v4h-13zm0 120.4h13v4h-13zm0-138h13v4h-13zm0 173.2h13v4h-13zm0-138h13v4h-13zm0 155.6h13v4h-13zm0-138h13v4h-13zm0 173.2h13v4h-13zm0-138h13v4h-13zm0 120.4h13v4h-13zm0-138h13v4h-13z"/><circle cx="186.82" cy="121.82" r="12.82" fill="var(--illustration-accent-1)"/><path fill="var(--illustration-invert)" d="M188 130h-2v-16h2z"/><path fill="var(--illustration-invert)" d="M178.992 123.005v-2h16v2z"/></g><defs><clipPath id="a"><path fill="var(--illustration-white)" d="M0 0h240v240H0z"/></clipPath></defs></svg>