<svg xmlns="http://www.w3.org/2000/svg" fill="none" viewBox="0 0 240 240"><g clip-path="url(#a)"><path fill="var(--illustration-gray)" d="M11 78.36v131.869c0 16.56 13.48 30.04 30.04 30.04h158.65c16.56 0 30.04-13.48 30.04-30.04V78.359zm52.49 99.569c-16.31 0-29.53-13.22-29.53-29.53s13.22-29.53 29.53-29.53 29.53 13.22 29.53 29.53-13.22 29.53-29.53 29.53"/><path fill="var(--illustration-primary)" d="M154.268 198.349c27.382 0 49.58-22.197 49.58-49.58s-22.198-49.58-49.58-49.58c-27.383 0-49.58 22.198-49.58 49.58 0 27.383 22.197 49.58 49.58 49.58"/><path fill="var(--illustration-accent-2)" d="M181.353 145.17H34.133v5.01h147.22z"/><path fill="var(--illustration-white)" d="M104.688 148.77c0 .48.059.94.069 1.41h76.591v-5.01h-76.48c-.09 1.19-.18 2.38-.18 3.6"/><path stroke="var(--illustration-white)" stroke-miterlimit="10" stroke-width="5" d="m150.93 117.689 29.98 29.98-29.98 29.98"/><path stroke="var(--illustration-accent-2)" stroke-miterlimit="10" stroke-width="5" d="M71.883 0v49.6"/><path fill="var(--illustration-primary)" d="M229.73 73.35V51.58c0-16.56-13.48-30.04-30.04-30.04H41.04C24.48 21.54 11 35.01 11 51.58v21.77z"/><path stroke="var(--illustration-accent-2)" stroke-miterlimit="10" stroke-width="5" d="M169.133 0v49.6"/><path stroke="var(--illustration-white)" stroke-miterlimit="10" stroke-width="5" d="M71.883 21.46V49.6m97.25-28.14V49.6"/></g><defs><clipPath id="a"><path fill="var(--illustration-white)" d="M0 0h240v240H0z"/></clipPath></defs></svg>