<svg xmlns="http://www.w3.org/2000/svg" fill="none" viewBox="0 0 240 240"><path fill="var(--illustration-accent-2)" d="M226.014 176.501c8.198-15.332 13.163-32.652 13.986-51.051V120H116v119.93q2.052.07 4.122.07c20.429 0 39.667-5.106 56.506-14.11-10.486-6.293-17.503-17.773-17.503-30.89 0-19.881 16.119-36 36-36 13.117 0 24.596 7.017 30.889 17.501"/><path fill="var(--illustration-gray)" d="M24 120H0c0 66.27 53.73 120 120 120v-24c-52.93 0-96-43.07-96-96M120 0v24c52.93 0 96 43.07 96 96h24C240 53.73 186.27 0 120 0"/><path fill="var(--illustration-primary)" d="M225.949 176.393c-4.331-7.159-11.086-12.688-19.126-15.45C212.707 148.517 216 134.636 216 120h24c0 20.383-5.083 39.58-14.051 56.393M120 216c14.692 0 28.625-3.319 41.088-9.246 2.774 8.035 8.314 14.781 15.481 19.101C159.715 234.881 140.455 240 120 240q-2.008 0-4-.065v-24.017q1.99.082 4 .082"/><path fill="var(--illustration-accent-1)" d="M120 180c33.137 0 60-26.863 60-60s-26.863-60-60-60-60 26.863-60 60 26.863 60 60 60"/><path fill="var(--illustration-primary)" fill-rule="evenodd" d="M180 120c0 33.137-26.863 60-60 60q-2.016 0-4-.131V120z" clip-rule="evenodd"/><path fill="var(--illustration-black)" fill-rule="evenodd" d="M120.125 71c-27.062 0-49 21.938-49 49s21.938 49 49 49 49-21.938 49-49-21.938-49-49-49m-51 49c0-28.166 22.834-51 51-51s51 22.834 51 51-22.834 51-51 51-51-22.834-51-51" clip-rule="evenodd"/><path fill="var(--illustration-white)" d="M123.997 92.212c0-2.328-1.789-4.212-3.999-4.212S116 89.884 116 92.212v29.464c0 .118 0 .237.009.355.028.405.113.789.244 1.154.196.553.505 1.066.917 1.51l20.001 21.069c1.564 1.648 4.092 1.648 5.656 0s1.564-4.31 0-5.958l-18.83-19.836z"/><path fill="#2775CA" d="M195.125 227c17.672 0 32-14.328 32-32s-14.328-32-32-32-32 14.328-32 32 14.328 32 32 32"/><path fill="var(--illustration-gray)" d="M61.203 27.266c-9.24-9.505-24.433-9.709-33.937-.468-9.505 9.24-9.709 24.432-.468 33.936s24.432 9.709 33.936.468 9.709-24.432.468-33.936"/><path fill="var(--illustration-invert)" d="M120.125 12c-19.758 0-38.277 5.306-54.21 14.57q-.629-.788-1.324-1.543C80.892 15.477 99.87 10 120.125 10c60.75 0 110 49.25 110 110 0 10.595-1.497 20.839-4.292 30.532l2.882.938-5.93 5.33-1.66-7.8 2.805.913A108 108 0 0 0 228.125 120c0-59.645-48.355-108-108-108M26.606 65.946a28 28 0 0 1-1.545-1.322C15.566 80.888 10.125 99.809 10.125 120c0 60.749 49.25 110 110 110 10.591 0 20.835-1.496 30.533-4.289l.937 2.879 5.33-5.93-7.8-1.66.914 2.808A108.2 108.2 0 0 1 120.125 228c-59.645 0-108-48.355-108-108 0-19.694 5.272-38.156 14.48-54.054"/><path fill="var(--illustration-black)" fill-rule="evenodd" d="M30.752 30.383c7.523-7.318 19.547-7.154 26.865.369s7.154 19.547-.37 26.865c-7.522 7.318-19.546 7.154-26.864-.37-7.318-7.522-7.154-19.546.369-26.864m25.432 1.764c-6.548-6.732-17.306-6.879-24.037-.33-6.732 6.547-6.879 17.305-.33 24.036 6.547 6.732 17.305 6.879 24.036.33 6.732-6.547 6.879-17.305.33-24.036" clip-rule="evenodd"/><path fill="var(--illustration-white)" d="M203.789 199.585c0-4.666-2.84-6.24-8.333-6.993-4.06-.587-4.84-1.54-4.84-3.433 0-1.894 1.373-3.074 4-3.074 2.393 0 3.773.834 4.34 2.76a1.02 1.02 0 0 0 .967.74h2.1a.92.92 0 0 0 .725-.322.93.93 0 0 0 .215-.764c-.667-3.047-2.72-4.881-5.94-5.454v-3.213a1 1 0 0 0-1-1h-2a1 1 0 0 0-1 1v3.1c-4.001.56-6.527 3.2-6.527 6.587 0 4.38 2.666 6.08 8.24 6.833 3.793.62 4.873 1.44 4.873 3.593s-1.833 3.601-4.42 3.601c-3.486 0-4.667-1.527-5.06-3.507a1.02 1.02 0 0 0-.98-.814h-2.28a.937.937 0 0 0-.927 1.087c.58 3.334 2.72 5.774 7.081 6.36v3.16c0 .266.105.52.292.708.188.187.442.292.708.292h2a1 1 0 0 0 1-1v-3.16c4.133-.653 6.766-3.506 6.766-7.087"/><path fill="var(--illustration-white)" d="M188.162 213.618a20 20 0 0 1 0-37.574 1.44 1.44 0 0 0 .86-1.26v-1.866a.947.947 0 0 0-1.333-.954 24 24 0 0 0-16.712 22.867 24 24 0 0 0 16.712 22.868.95.95 0 0 0 .942-.092.95.95 0 0 0 .391-.862v-1.866a1.44 1.44 0 0 0-.86-1.261m14.191-41.654a.95.95 0 0 0-.941.092.94.94 0 0 0-.392.862v1.866a1.44 1.44 0 0 0 .86 1.26 20 20 0 0 1 13.14 18.787 20 20 0 0 1-13.14 18.787 1.34 1.34 0 0 0-.86 1.261v1.866a.94.94 0 0 0 .392.862.95.95 0 0 0 .941.092 24 24 0 0 0 16.713-22.868 24 24 0 0 0-16.713-22.867"/></svg>