<svg xmlns="http://www.w3.org/2000/svg" fill="none" viewBox="0 0 24 24"><path fill="#0A0B0D" d="M11.993 2c2.8 0 5.13 1.244 6.93 2.759 3.21 2.701 2.419 7.38-.46 10.417L16 17.773V22H8v-4.26l-2.5-2.667c-2.774-2.96-3.576-7.456-.669-10.154l.293-.255C6.916 3.197 9.225 2 11.994 2M10 20h4v-2h-4zM8.581 4.799c-.786.375-1.517.86-2.19 1.412-1.055.865-1.477 2.036-1.377 3.36.103 1.375.785 2.896 1.946 4.135L9.11 16h.92c-1.21-1.466-2.53-3.61-2.53-6 0-1.986.407-3.803 1.081-5.201m6.852.031C16.098 6.225 16.5 8.03 16.5 10c0 2.39-1.32 4.534-2.53 6h.955l2.086-2.2c1.167-1.232 1.858-2.746 1.972-4.123.11-1.327-.302-2.507-1.348-3.388a11 11 0 0 0-2.202-1.459M11.998 4c-.201.001-.787.168-1.436 1.323C9.945 6.42 9.5 8.07 9.5 10c0 1.555.812 3.12 1.83 4.43.226.292.454.558.67.796.216-.238.444-.505.67-.796 1.018-1.31 1.83-2.875 1.83-4.43 0-1.93-.445-3.58-1.062-4.677-.65-1.155-1.235-1.322-1.436-1.323z"/></svg>