<svg xmlns="http://www.w3.org/2000/svg" fill="none" viewBox="0 0 12 12"><path fill="#0A0B0D" d="M5.995 1c1.126 0 2.15.406 3.025.962 2.185 1.389 1.772 4.378-.079 6.176L8 9.052V11H4V9.04l-.963-.946C1.194 6.283.802 3.284 3.01 1.922 3.875 1.388 4.886 1 5.995 1M5 10h2V9H5zm-.693-7.629a6 6 0 0 0-.773.402c-.754.466-1.07 1.188-1.031 2.02.04.869.474 1.84 1.235 2.588l.63.619h.647C4.41 7.267 3.75 6.195 3.75 5c0-1.007.211-1.926.557-2.629m3.393.014C8.042 3.086 8.25 4 8.25 5c0 1.195-.66 2.267-1.265 3h.662l.598-.58c.765-.743 1.205-1.71 1.251-2.577.045-.834-.264-1.562-1.013-2.037a6 6 0 0 0-.783-.421M5.998 2c-.101.001-.394.086-.718.662-.308.548-.53 1.373-.53 2.338 0 .778.407 1.56.915 2.215q.171.218.335.396.164-.177.335-.396C6.843 6.56 7.25 5.778 7.25 5c0-.965-.222-1.79-.53-2.338-.323-.574-.615-.66-.717-.662z"/></svg>