<svg xmlns="http://www.w3.org/2000/svg" fill="none" viewBox="0 0 12 12"><path fill="#0A0B0D" d="M4.61 1.203c-.573.94-.86 2.432-.86 3.797 0 1.506 1.046 2.818 1.712 3.5h1.077C7.205 7.818 8.25 6.506 8.25 5c0-1.361-.286-2.848-.855-3.79a6.4 6.4 0 0 1 1.625.752c2.185 1.389 1.772 4.378-.079 6.176L8 9.052V11H4V9.04l-.963-.946C1.194 6.283.802 3.284 3.01 1.922a6.5 6.5 0 0 1 1.6-.719"/><path fill="#0A0B0D" d="M6 1.25c.097 0 .418.09.763.927.312.76.487 1.811.487 2.823 0 .778-.407 1.56-.915 2.215A7 7 0 0 1 6 7.61a7 7 0 0 1-.335-.396C5.157 6.56 4.75 5.778 4.75 5c0-1.012.175-2.063.487-2.823.344-.836.666-.927.763-.927"/></svg>