<svg xmlns="http://www.w3.org/2000/svg" fill="none" viewBox="0 0 24 24"><path fill="#0A0B0D" d="M8.803 2.549C7.563 4.523 7 7.626 7 10.5c0 3.247 2.393 6.069 3.868 7.5h2.265C14.608 16.569 17 13.747 17 10.5c0-2.866-.561-5.957-1.793-7.933 1.413.506 2.657 1.3 3.716 2.192 3.21 2.701 2.419 7.38-.46 10.417L16 17.773V22H8v-4.26l-2.5-2.667c-2.864-3.055-3.625-7.747-.376-10.409 1.052-.861 2.282-1.628 3.679-2.115"/><path fill="#0A0B0D" d="M12 2.5c.526 0 1.266.36 1.972 2.021C14.646 6.111 15 8.322 15 10.5c0 1.664-.91 3.343-2.052 4.749-.323.398-.65.752-.948 1.055a15 15 0 0 1-.948-1.055C9.909 13.843 9 12.164 9 10.5c0-2.178.354-4.39 1.028-5.979C10.734 2.86 11.474 2.501 12 2.5"/></svg>