<svg xmlns="http://www.w3.org/2000/svg" fill="none" viewBox="0 0 16 16"><path fill="#0A0B0D" d="M8.382 1.012c1.883.111 3.38 1.035 4.478 2.058 1.644 1.533 1.289 4.036-.168 5.748l-1.693 1.99v4.194H5v-4.24l-1.54-1.83C2.006 7.2 1.596 4.7 3.136 3.112l.155-.15C4.433 1.916 6.002 1.002 7.997 1H8zm-1.883 12.49h3v-2h-3zM7.998 2.5c-.032.002-.379.05-.804.83-.401.735-.695 1.853-.695 3.17 0 1.044.529 2.1 1.198 2.987q.152.2.302.376.148-.175.302-.376C8.97 8.6 9.499 7.544 9.499 6.501c0-1.318-.294-2.436-.695-3.172-.432-.792-.784-.829-.806-.829m2.357.598c.403.936.644 2.118.644 3.403 0 1.197-.469 2.302-1.033 3.205l1.583-1.86c1.168-1.372 1.117-2.906.288-3.679a7 7 0 0 0-1.482-1.069m-4.718.01a6.6 6.6 0 0 0-1.332.96c-.882.808-.927 2.432.304 3.898l1.308 1.556c-.513-.867-.918-1.905-.918-3.021 0-1.28.238-2.458.638-3.392"/></svg>