<svg xmlns="http://www.w3.org/2000/svg" fill="none" viewBox="0 0 16 16"><path fill="#0A0B0D" d="M10.33 1.44c.998.388 1.844.988 2.532 1.63 1.644 1.533 1.289 4.036-.168 5.748L11 10.808v4.194H5V10.76L3.462 8.93c-1.501-1.788-1.89-4.392-.169-5.969.653-.597 1.444-1.152 2.375-1.518-.727 1.29-.918 3.249-.918 5.057 0 1.86 1.22 3.505 2.165 4.5h2.17c.945-.995 2.165-2.64 2.165-4.5 0-1.81-.192-3.771-.92-5.06"/><path fill="#0A0B0D" d="M8 1.5c.326 0 .518.093.671.225.182.157.385.442.567.92.374.981.512 2.381.512 3.856 0 1.004-.555 2.044-1.287 2.94A9 9 0 0 1 8 9.964a9 9 0 0 1-.463-.523c-.732-.896-1.287-1.936-1.287-2.94 0-1.475.138-2.875.512-3.856.182-.478.385-.763.567-.92.153-.132.345-.225.671-.225"/></svg>