<svg xmlns="http://www.w3.org/2000/svg" fill="none" viewBox="0 0 16 16"><path fill="#0A0B0D" d="M1 1h1.6v5.667H1zm10.291 9.21 1.46.541-1.46.54-.54 1.46-.54-1.46-1.46-.54 1.46-.541.54-1.46z"/><path fill="#0A0B0D" d="M8 6.46v.04c0 .424-.075.83-.212 1.205A4.24 4.24 0 0 1 10.75 6.5l.219.006a4.23 4.23 0 0 1 2.432.921V1h1.6v9.751l-.006.219A4.25 4.25 0 0 1 10.75 15l-.219-.004a4.25 4.25 0 0 1-4.025-4.026l-.004-.134H6.5V9.372a3.5 3.5 0 1 1-.1-5.81V1H8zm2.751 1.64a2.651 2.651 0 0 0 0 5.3 2.65 2.65 0 0 0 0-5.3m-6.25-3.5a1.9 1.9 0 1 0 0 3.802 1.9 1.9 0 0 0 0-3.802"/></svg>