<svg xmlns="http://www.w3.org/2000/svg" fill="none" viewBox="0 0 16 16"><path fill="#0A0B0D" d="M8.321 1.01c3.303.193 5.929 3.335 5.929 6.378l-.009.298C14.074 10.804 11.344 15 8 15l-.321-.013c-3.196-.256-5.76-4.284-5.921-7.301l-.008-.298C1.75 4.247 4.548 1 8 1zM8 2.6c-1.21 0-2.37.57-3.253 1.511-.89.949-1.397 2.166-1.397 3.277 0 1.159.544 2.734 1.511 4.025C5.84 12.72 6.984 13.4 8 13.4s2.16-.68 3.139-1.987c.967-1.291 1.51-2.866 1.51-4.025 0-1.11-.505-2.328-1.396-3.277C10.37 3.171 9.21 2.6 8 2.6m1.389 7.5c0 .774-.622 1.4-1.389 1.401a1.395 1.395 0 0 1-1.389-1.4zM5.306 6.6a2 2 0 0 1 2 2v.8h-.779a2 2 0 0 1-2-2v-.8zm6.166.8a2 2 0 0 1-2 2h-.778v-.8a2 2 0 0 1 2-2h.778z"/></svg>