<svg xmlns="http://www.w3.org/2000/svg" fill="none" viewBox="0 0 24 24"><path fill="#0A0B0D" d="M14 15a2 2 0 1 1-4 0zm-5-5a2 2 0 0 1 2 2v2H9a2 2 0 0 1-2-2v-2zm8 2a2 2 0 0 1-2 2h-2v-2a2 2 0 0 1 2-2h2z"/><path fill="#0A0B0D" d="M12 2c4.97 0 9 4.638 9 9.125S16.97 22 12 22s-9-6.388-9-10.875S7.03 2 12 2m0 2c-1.846 0-3.594.863-4.911 2.255C5.76 7.657 5 9.462 5 11.125c0 1.725.81 4.03 2.232 5.915C8.667 18.94 10.395 20 12 20s3.333-1.06 4.768-2.96C18.19 15.156 19 12.85 19 11.125c0-1.663-.761-3.468-2.089-4.87C15.594 4.863 13.846 4 12 4"/></svg>