<svg xmlns="http://www.w3.org/2000/svg" fill="none" viewBox="0 0 12 12"><path fill="#0A0B0D" d="M3.625 5a2 2 0 0 1 2 2v.25h-.25a2 2 0 0 1-2-2V5zm5 .25a2 2 0 0 1-2 2h-.25V7a2 2 0 0 1 2-2h.25z"/><path fill="#0A0B0D" d="M6.241.757c2.477.145 4.446 2.502 4.447 4.784l-.006.224C10.556 8.103 8.508 11.25 6 11.25l-.241-.01c-2.397-.192-4.319-3.212-4.44-5.475l-.006-.224C1.313 3.185 3.41.751 6 .75zM6 1.95c-.907 0-1.777.428-2.44 1.133-.668.712-1.047 1.625-1.047 2.458 0 .87.408 2.05 1.133 3.019.733.98 1.592 1.49 2.354 1.49s1.62-.51 2.354-1.49c.725-.969 1.133-2.15 1.133-3.019 0-.833-.38-1.746-1.048-2.458C7.777 2.378 6.907 1.95 6 1.95"/></svg>