<svg xmlns="http://www.w3.org/2000/svg" fill="none" viewBox="0 0 12 12"><path fill="#0A0B0D" d="M7.537 1.454a1.56 1.56 0 0 1 2.202 0l.108.119c.498.61.46 1.512-.109 2.082L8.395 4.996h1.885v.002H11v1.2h-.852c-.276 1.254-.963 2.393-1.885 3.124l1.069 1.677H2.669l1.067-1.676c-.924-.731-1.613-1.87-1.89-3.124H1v-1.2h.713v-.003H3.99zM3.083 6.2c.251.89.761 1.68 1.397 2.182l.85.672-.475.746h2.29l-.476-.746.849-.672C8.152 7.88 8.66 7.09 8.91 6.2zm5.808-3.896a.36.36 0 0 0-.505 0L5.688 4.996h1.01l2.193-2.19a.357.357 0 0 0 0-.503"/></svg>