<svg xmlns="http://www.w3.org/2000/svg" fill="none" viewBox="0 0 16 16"><path fill="#0A0B0D" d="M9.771 1.638a2.183 2.183 0 0 1 3.083 0c.851.85.852 2.23.002 3.08L11.581 5.99H15v1.6h-1.176c-.419 1.9-1.57 3.481-3.107 4.349l1.95 3.06h-9.33l1.95-3.06C3.751 11.07 2.6 9.489 2.18 7.589H1v-1.6h4.414zM3.833 7.604c.383 1.313 1.216 2.362 2.241 2.941l1.469.83-1.29 2.025h3.498l-1.29-2.025 1.47-.83c1.025-.579 1.858-1.628 2.24-2.941zm7.89-4.836a.58.58 0 0 0-.82 0L7.678 5.99h1.638l2.407-2.404a.58.58 0 0 0 0-.818"/></svg>