<svg xmlns="http://www.w3.org/2000/svg" fill="none" viewBox="0 0 16 16"><path fill="#0A0B0D" d="M8.283 3.245a4.096 4.096 0 0 1 4.872-2.06l.84.263-.627 1.498a4.8 4.8 0 0 1-1.16 1.66 4.45 4.45 0 0 1 2.171 1.875 4.49 4.49 0 0 1 .18 4.22l-1.186 2.473a3.218 3.218 0 0 1-5.018 1.03L8 13.894l-.355.31a3.217 3.217 0 0 1-5.016-1.028l-1.19-2.478A4.479 4.479 0 0 1 7.063 4.57a5.5 5.5 0 0 0-1.062-1.998l-.024-.029 1.225-1.029.024.028a7 7 0 0 1 1.057 1.703m4.718 4.05a2.885 2.885 0 0 0-4.522-.575l-.306.305-.18-.182-.182.18-.295-.295a2.88 2.88 0 0 0-4.518.568 2.88 2.88 0 0 0-.115 2.71l1.19 2.478a1.616 1.616 0 0 0 2.52.516l.534-.467.094-.076a1.33 1.33 0 0 1 .66-.247L8 12.204c.28 0 .554.09.78.253l.093.076.535.466c.805.704 2.06.447 2.523-.517l1.186-2.474a2.89 2.89 0 0 0-.116-2.714m-1.244-4.688A2.5 2.5 0 0 0 9.67 4.05l-.082.176a3.2 3.2 0 0 0 2.169-1.62"/></svg>