<svg xmlns="http://www.w3.org/2000/svg" fill="none" viewBox="0 0 24 24"><path fill="#0A0B0D" d="M14.991 5.205c.702-.863 1.179-2.021 1.053-3.205-1.028.05-2.282.666-3.009 1.53-.652.74-1.23 1.946-1.079 3.08 1.154.099 2.307-.566 3.035-1.405m1.04 1.627c-1.676-.098-3.1.934-3.901.934s-2.027-.885-3.352-.86c-1.726.024-3.327.982-4.202 2.506-1.801 3.049-.475 7.571 1.276 10.054.85 1.229 1.875 2.581 3.226 2.533 1.276-.05 1.776-.812 3.327-.812s2 .812 3.351.787c1.4-.024 2.276-1.229 3.127-2.459.976-1.4 1.375-2.752 1.4-2.826-.025-.025-2.701-1.033-2.726-4.056-.025-2.532 2.101-3.736 2.201-3.81-1.2-1.745-3.076-1.942-3.727-1.991"/></svg>