<svg xmlns="http://www.w3.org/2000/svg" fill="none" viewBox="0 0 12 12"><path fill="#0A0B0D" d="M7.495 2.603c.352-.432.59-1.011.527-1.603-.514.025-1.141.333-1.505.765-.326.37-.614.973-.539 1.54.577.05 1.154-.283 1.517-.702m.52.813c-.838-.05-1.55.467-1.95.467s-1.013-.442-1.676-.43a2.48 2.48 0 0 0-2.101 1.253c-.9 1.524-.238 3.786.638 5.027.425.614.937 1.29 1.613 1.266.638-.024.888-.405 1.663-.405s1 .405 1.676.393c.7-.012 1.138-.614 1.563-1.23.488-.7.688-1.376.7-1.413-.012-.012-1.35-.516-1.363-2.028-.012-1.266 1.05-1.868 1.1-1.905-.6-.872-1.537-.97-1.863-.995"/></svg>