<svg xmlns="http://www.w3.org/2000/svg" fill="none" viewBox="0 0 24 24"><path fill="#0A0B0D" d="M12.754 4.887a5 5 0 0 1 6.005-2.663l1.74.536-1.269 3.002a5 5 0 0 1-1.082 1.597 6.27 6.27 0 0 1 2.96 2.58 6.32 6.32 0 0 1 .26 6.002l-1.701 3.504c-1.3 2.679-4.788 3.397-7.04 1.449L12 20.35l-.627.544c-2.25 1.948-5.737 1.231-7.037-1.446L2.634 15.94a6.32 6.32 0 0 1 .259-6.002c1.72-2.882 5.278-3.815 8.113-2.483A6 6 0 0 0 9.698 4.75l-.51-.6 1.525-1.295.51.601a8 8 0 0 1 1.252 2.026zm-1.387 5.227c-1.993-1.98-5.317-1.562-6.758.85a4.32 4.32 0 0 0-.176 4.104l1.702 3.507a2.53 2.53 0 0 0 3.93.806l.776-.672.125-.098a1.774 1.774 0 0 1 2.192.097l.777.673a2.53 2.53 0 0 0 3.933-.81l1.7-3.503a4.32 4.32 0 0 0-.177-4.103c-1.441-2.412-4.766-2.83-6.76-.85l-.583.579-.048-.05-.049.05zm6.417-6.069a3 3 0 0 0-3.218 1.688l-.532 1.138.83-.065a3 3 0 0 0 2.525-1.822z"/></svg>