<svg xmlns="http://www.w3.org/2000/svg" fill="none" viewBox="0 0 16 16"><path fill="#0A0B0D" d="M8.283 3.245a4.096 4.096 0 0 1 4.872-2.059l.84.262-.627 1.498a4.8 4.8 0 0 1-1.16 1.661 4.45 4.45 0 0 1 2.17 1.873 4.49 4.49 0 0 1 .181 4.22l-1.186 2.474a3.218 3.218 0 0 1-5.019 1.03l-.353-.31-.355.31a3.216 3.216 0 0 1-5.016-1.028l-1.19-2.479A4.479 4.479 0 0 1 7.064 4.57a5.5 5.5 0 0 0-1.063-1.999l-.024-.028 1.225-1.03.024.029a7 7 0 0 1 1.057 1.703m3.474-.638A2.5 2.5 0 0 0 9.67 4.051l-.082.175a3.2 3.2 0 0 0 2.169-1.619"/></svg>