<svg xmlns="http://www.w3.org/2000/svg" fill="none" viewBox="0 0 24 24"><path fill="#0A0B0D" d="M12.754 4.887a5 5 0 0 1 6.005-2.663l1.74.536-1.269 3.002a5 5 0 0 1-1.082 1.596 6.27 6.27 0 0 1 2.96 2.582 6.32 6.32 0 0 1 .26 6.001l-1.701 3.504c-1.3 2.679-4.788 3.397-7.04 1.45L12 20.35l-.627.544c-2.25 1.947-5.737 1.23-7.037-1.447L2.634 15.94a6.32 6.32 0 0 1 .259-6.002c1.72-2.882 5.278-3.816 8.113-2.483A6 6 0 0 0 9.698 4.75l-.51-.6 1.525-1.295.51.601c.52.613.94 1.297 1.253 2.025zm5.03-.842a3 3 0 0 0-3.218 1.687l-.532 1.14.83-.066a3 3 0 0 0 2.525-1.823z"/></svg>