<svg xmlns="http://www.w3.org/2000/svg" fill="none" viewBox="0 0 16 16"><path fill="#0A0B0D" d="M10.094 3.244c.491-.604.825-1.415.737-2.244-.72.035-1.598.466-2.106 1.07-.457.518-.86 1.363-.756 2.157.808.07 1.615-.396 2.125-.983m.728 1.138c-1.173-.068-2.17.654-2.731.654s-1.419-.62-2.347-.602a3.47 3.47 0 0 0-2.94 1.755c-1.262 2.134-.334 5.3.892 7.037.596.86 1.313 1.807 2.258 1.773.894-.034 1.244-.568 2.33-.568 1.084 0 1.4.568 2.345.55.98-.016 1.594-.86 2.189-1.72.683-.98.963-1.927.98-1.979-.018-.017-1.89-.723-1.908-2.84-.018-1.771 1.47-2.614 1.54-2.666-.84-1.221-2.153-1.36-2.608-1.394"/></svg>