<svg xmlns="http://www.w3.org/2000/svg" fill="none" viewBox="0 0 12 12"><path fill="#0A0B0D" d="M6.139 2.515a2.884 2.884 0 0 1 3.394-1.382l.839.262-.339.81-.04.098a3.83 3.83 0 0 1-1.225 1.576 3.07 3.07 0 0 1 1.684 4.195l-.798 1.664a2.217 2.217 0 0 1-3.46.71L6 10.278l-.194.17a2.216 2.216 0 0 1-3.458-.708l-.8-1.668a3.066 3.066 0 0 1 3.809-4.204 3.6 3.6 0 0 0-.75-1.515l-.015-.019.918-.771.016.018q.363.434.613.934M9.293 5.8a1.868 1.868 0 0 0-2.746-.533l-.54.54-.38-.38a1.865 1.865 0 0 0-2.922.374 1.87 1.87 0 0 0-.074 1.752L3.43 9.22c.29.606 1.08.768 1.585.325l.357-.313.067-.054A.96.96 0 0 1 5.914 9L6 8.996c.23 0 .454.084.627.236l.357.314c.507.443 1.296.28 1.587-.326l.797-1.664a1.87 1.87 0 0 0-.075-1.755"/></svg>