<svg xmlns="http://www.w3.org/2000/svg" fill="none" viewBox="0 0 16 16"><path fill="#0A0B0D" d="M8 6.667a1.333 1.333 0 1 1 0 2.666 1.333 1.333 0 0 1 0-2.666"/><path fill="#0A0B0D" d="M8.536 2.11a3.788 3.788 0 0 1 5.356 5.355L13.356 8l.536.536a3.787 3.787 0 0 1-5.213 5.49l-.142-.135-.536-.536-.536.536-.14.134a3.79 3.79 0 0 1-5.075 0l-.14-.134a3.79 3.79 0 0 1-.135-5.214l.135-.142L2.645 8l-.535-.535a3.787 3.787 0 0 1-.135-5.214l.135-.141a3.786 3.786 0 0 1 5.355 0L8 2.645zM3.241 9.668a2.187 2.187 0 0 0 3.093 3.092l.535-.536-3.092-3.092zm5.89 2.557.537.536a2.188 2.188 0 0 0 3.093-3.093l-.536-.536zM4.909 8.001 8 11.093 11.093 8 8.001 4.908zm1.426-4.76A2.187 2.187 0 0 0 3.24 6.334l.535.535 3.093-3.093zm6.426 0a2.187 2.187 0 0 0-3.092 0l-.536.536 3.092 3.092.536-.535a2.187 2.187 0 0 0 0-3.093"/></svg>