<svg xmlns="http://www.w3.org/2000/svg" fill="none" viewBox="0 0 12 12"><path fill="#0A0B0D" d="M6 5a1 1 0 1 1 0 2 1 1 0 0 1 0-2"/><path fill="#0A0B0D" d="M6.383 1.792a2.705 2.705 0 0 1 3.824 3.825L9.824 6l.384.384a2.705 2.705 0 0 1 0 3.825l-.206.185a2.706 2.706 0 0 1-3.414 0l-.205-.185-.384-.384-.382.383a2.705 2.705 0 0 1-4.01-3.62l.185-.204L2.175 6l-.383-.383a2.705 2.705 0 0 1 3.825-3.825L6 2.175zm.464 7.184.384.383A1.505 1.505 0 0 0 9.36 7.231l-.384-.383zM2.64 7.23a1.505 1.505 0 0 0 2.128 2.128l.382-.382-2.128-2.128zM3.87 6 6 8.127l2.128-2.128L6 3.871zm.898-3.358A1.505 1.505 0 0 0 2.64 4.769l.383.382 2.128-2.128zm4.59 0a1.505 1.505 0 0 0-2.128 0l-.383.381L8.975 5.15l.383-.381a1.505 1.505 0 0 0 0-2.128"/></svg>