<svg xmlns="http://www.w3.org/2000/svg" fill="none" viewBox="0 0 24 24"><path fill="#0A0B0D" d="M12 10a2 2 0 1 1 0 4 2 2 0 0 1 0-4"/><path fill="#0A0B0D" d="M12.765 3.584a5.41 5.41 0 0 1 7.65 7.65L19.65 12l.766.765a5.41 5.41 0 0 1 0 7.65l-.202.192a5.41 5.41 0 0 1-7.246 0l-.203-.191L12 19.65l-.765.765-.202.191a5.41 5.41 0 0 1-7.246 0l-.202-.191a5.41 5.41 0 0 1 0-7.65L4.349 12l-.765-.766a5.41 5.41 0 0 1 7.65-7.65l.766.765zM5 14.178a3.41 3.41 0 0 0 4.821 4.823l.765-.765-4.823-4.822zm8.414 4.057.765.766a3.41 3.41 0 1 0 4.822-4.822l-.766-.765zM7.178 12 12 16.82 16.82 12 12 7.178zm11.824-7.001a3.41 3.41 0 0 0-4.823 0l-.765.764 4.822 4.823.766-.766a3.41 3.41 0 0 0 0-4.821m-9.182 0A3.41 3.41 0 0 0 5 9.82l.764.765 4.822-4.822z"/></svg>