<svg xmlns="http://www.w3.org/2000/svg" fill="none" viewBox="0 0 16 16"><path fill="#0A0B0D" d="M8 6.666a1.334 1.334 0 1 1-.002 2.668A1.334 1.334 0 0 1 8 6.666"/><path fill="#0A0B0D" d="M8.536 2.11a3.788 3.788 0 0 1 5.356 5.355l-.536.536.536.537a3.787 3.787 0 0 1-5.213 5.49l-.142-.136-.536-.536-.536.537-.14.133a3.79 3.79 0 0 1-5.075 0l-.14-.133a3.79 3.79 0 0 1-.135-5.215l.135-.141L2.645 8l-.535-.535a3.787 3.787 0 0 1-.135-5.214l.135-.14a3.786 3.786 0 0 1 5.355 0L8 2.644zM4.625 8 8 11.377 11.376 8 8 4.625z"/></svg>