<svg xmlns="http://www.w3.org/2000/svg" fill="none" viewBox="0 0 12 12"><path fill="#0A0B0D" d="M6.494 2.533a3.5 3.5 0 0 1 1.597.661l1.086-1.086.707.707-1.086 1.086c.343.458.576 1.004.661 1.597h1.535v1H9.46a3.5 3.5 0 0 1-.661 1.596L9.884 9.18l-.707.707L8.09 8.8a3.5 3.5 0 0 1-1.597.66v1.537h-1V9.462A3.5 3.5 0 0 1 3.898 8.8L2.812 9.887l-.707-.707 1.086-1.086a3.5 3.5 0 0 1-.66-1.596H.993v-1H2.53a3.5 3.5 0 0 1 .661-1.597L2.105 2.815l.708-.707 1.085 1.086a3.5 3.5 0 0 1 1.596-.66V.997h1zM5.25 7.3 7.5 6 5.25 4.701z"/></svg>