<svg xmlns="http://www.w3.org/2000/svg" fill="none" viewBox="0 0 16 16"><path fill="#0A0B0D" d="M8.7 3.15c.83.118 1.593.446 2.234.926l1.52-1.52.99.99-1.52 1.52a4.9 4.9 0 0 1 .927 2.234H15v1.4h-2.15a4.9 4.9 0 0 1-.925 2.235l1.52 1.52-.99.99-1.52-1.52a4.9 4.9 0 0 1-2.235.926V15H7.3v-2.15a4.9 4.9 0 0 1-2.235-.925l-1.52 1.52-.99-.99 1.52-1.52A4.9 4.9 0 0 1 3.15 8.7H1V7.3h2.15c.118-.83.445-1.593.925-2.234l-1.52-1.52.99-.99 1.52 1.52A4.9 4.9 0 0 1 7.3 3.148V1h1.4zM6.958 9.822l3.15-1.82-3.15-1.819z"/></svg>