<svg xmlns="http://www.w3.org/2000/svg" fill="none" viewBox="0 0 24 24"><path fill="#0A0B0D" d="M12.99 5.066a6.96 6.96 0 0 1 3.19 1.323l2.174-2.172 1.414 1.414-2.172 2.172a7 7 0 0 1 1.322 3.192h3.071v2h-3.071a6.96 6.96 0 0 1-1.322 3.193l2.172 2.171-1.416 1.414-2.171-2.171a7 7 0 0 1-3.192 1.322v3.071h-2v-3.071a7 7 0 0 1-3.192-1.322l-2.172 2.171-1.414-1.414 2.172-2.172a7 7 0 0 1-1.323-3.192H1.988v-2H5.06a7 7 0 0 1 1.322-3.192L4.21 5.63l1.414-1.414 2.172 2.172a7 7 0 0 1 3.192-1.323v-3.07h2zm-2.49 9.532L15 12l-4.5-2.598z"/></svg>