<svg xmlns="http://www.w3.org/2000/svg" fill="none" viewBox="0 0 12 12"><path fill="#0A0B0D" d="m7.017 1.206.981 1.13 2.414.042.588.01V11l-.603-.005-6.382-.046-.594-.004v-4.69h-.006c-.72 0-1.428-.166-2.072-.482H1V4.582h.634l.132.07a3.5 3.5 0 0 0 1.649.411h2.158l.149.097.805.523a.229.229 0 0 0 .272-.367l-1.112-.924h-.94V3.199H6.12l.167.139L7.566 4.4c.535.445.669 1.21.317 1.81a1.43 1.43 0 0 1-2.01.472l-.656-.426h-.599V9.76l5.185.039v-6.24l-2.092-.035-.268-.005-.174-.202-.978-1.125H1V1h5.838z"/></svg>