<svg xmlns="http://www.w3.org/2000/svg" fill="none" viewBox="0 0 12 12"><path fill="#0A0B0D" d="M6 1a5 5 0 1 1 0 10A5 5 0 0 1 6 1m0 1.2c-.72 0-1.392.199-1.966.546A5.58 5.58 0 0 1 5.078 6a5.58 5.58 0 0 1-1.044 3.253A3.8 3.8 0 0 0 6 9.8c.713 0 1.38-.197 1.95-.538A5.58 5.58 0 0 1 6.9 6c0-1.217.39-2.344 1.05-3.263A3.8 3.8 0 0 0 6 2.2m2.87 1.312A4.4 4.4 0 0 0 8.1 6c0 .923.284 1.78.77 2.487.578-.666.93-1.535.93-2.487s-.351-1.822-.93-2.488m-5.753.013A3.78 3.78 0 0 0 2.2 6c0 .945.346 1.809.917 2.474.48-.705.762-1.556.762-2.474s-.281-1.77-.762-2.475"/></svg>