<svg xmlns="http://www.w3.org/2000/svg" fill="none" viewBox="0 0 24 24"><path fill="#0A0B0D" d="M12 2c5.523 0 10 4.477 10 10s-4.477 10-10 10S2 17.523 2 12 6.477 2 12 2m0 2c-1.6 0-3.088.47-4.338 1.278A10.95 10.95 0 0 1 9.957 12c0 2.53-.858 4.861-2.295 6.72A7.96 7.96 0 0 0 12 20a7.96 7.96 0 0 0 4.309-1.262A10.95 10.95 0 0 1 14 12c0-2.54.863-4.878 2.309-6.74A7.96 7.96 0 0 0 12 4m5.845 2.54A8.96 8.96 0 0 0 16 12c0 2.053.687 3.944 1.845 5.459A7.97 7.97 0 0 0 20 12a7.97 7.97 0 0 0-2.155-5.46M6.13 6.564A7.97 7.97 0 0 0 4 12a7.97 7.97 0 0 0 2.13 5.434A8.96 8.96 0 0 0 7.958 12c0-2.042-.68-3.925-1.826-5.436"/></svg>