<svg xmlns="http://www.w3.org/2000/svg" fill="none" viewBox="0 0 16 16"><path fill="#0A0B0D" d="M8.343 1.342A6.67 6.67 0 0 1 14.667 8l-.009.343A6.67 6.67 0 0 1 8 14.667l-.344-.009a6.67 6.67 0 0 1-6.314-6.315L1.333 8A6.67 6.67 0 0 1 8 1.333zM8 2.932a5.04 5.04 0 0 0-2.62.73A7.44 7.44 0 0 1 6.772 8a7.43 7.43 0 0 1-1.392 4.337c.765.463 1.661.73 2.62.73.95 0 1.84-.263 2.6-.718A7.43 7.43 0 0 1 9.2 8a7.44 7.44 0 0 1 1.399-4.35A5.04 5.04 0 0 0 8 2.933m3.828 1.75A5.84 5.84 0 0 0 10.8 8c0 1.232.38 2.374 1.028 3.318A5.05 5.05 0 0 0 13.068 8a5.05 5.05 0 0 0-1.24-3.317M4.156 4.7A5.05 5.05 0 0 0 2.933 8a5.05 5.05 0 0 0 1.223 3.299A5.84 5.84 0 0 0 5.172 8c0-1.224-.375-2.36-1.016-3.3"/></svg>