<svg xmlns="http://www.w3.org/2000/svg" fill="none" viewBox="0 0 16 16"><path fill="#0A0B0D" fill-rule="evenodd" d="M8.344 1.342A6.67 6.67 0 0 1 14.667 8l-.009.343a6.67 6.67 0 0 1-6.657 6.324l-.344-.009a6.67 6.67 0 0 1-6.315-6.315L1.333 8a6.67 6.67 0 0 1 6.668-6.667zm2.255 2.308A7.44 7.44 0 0 0 9.2 8c0 1.623.52 3.124 1.4 4.349a5.1 5.1 0 0 0 1.23-1.033A5.83 5.83 0 0 1 10.8 8c0-1.231.38-2.373 1.03-3.316a5.1 5.1 0 0 0-1.231-1.034m-5.22.012c-.461.28-.874.633-1.225 1.041A5.83 5.83 0 0 1 5.172 8a5.83 5.83 0 0 1-1.018 3.296c.35.408.763.761 1.226 1.041A7.43 7.43 0 0 0 6.772 8 7.43 7.43 0 0 0 5.38 3.662" clip-rule="evenodd"/></svg>