<svg xmlns="http://www.w3.org/2000/svg" fill="none" viewBox="0 0 24 24"><path fill="#0A0B0D" d="M12 2c5.523 0 10 4.477 10 10s-4.477 10-10 10S2 17.523 2 12 6.477 2 12 2m4.308 3.26A10.96 10.96 0 0 0 14 12c0 2.54.864 4.877 2.309 6.738a8 8 0 0 0 1.536-1.279A8.96 8.96 0 0 1 16 12a8.96 8.96 0 0 1 1.845-5.46 8 8 0 0 0-1.537-1.28m-8.646.018a8 8 0 0 0-1.531 1.286A8.96 8.96 0 0 1 7.957 12c0 2.042-.68 3.923-1.826 5.434.454.49.968.921 1.531 1.286A10.95 10.95 0 0 0 9.957 12c0-2.531-.858-4.863-2.295-6.722"/></svg>