<svg xmlns="http://www.w3.org/2000/svg" fill="none" viewBox="0 0 24 24"><path fill="#0A0B0D" d="M12 2c5.523 0 10 4.477 10 10s-4.477 10-10 10S2 17.523 2 12 6.477 2 12 2M8.953 13a10.94 10.94 0 0 1-1.916 5.272A7.96 7.96 0 0 0 11 19.936V13zM13 19.936a7.96 7.96 0 0 0 3.962-1.665A10.94 10.94 0 0 1 15.047 13H13zM17.057 13a8.94 8.94 0 0 0 1.335 3.81A7.96 7.96 0 0 0 19.936 13zM4.064 13a7.96 7.96 0 0 0 1.543 3.81A8.94 8.94 0 0 0 6.943 13zM11 4.063a7.96 7.96 0 0 0-3.964 1.665A10.94 10.94 0 0 1 8.953 11H11zM13 11h2.047c.176-1.948.858-3.75 1.916-5.272A7.96 7.96 0 0 0 13 4.063zm5.393-3.81A8.9 8.9 0 0 0 17.057 11h2.879a7.96 7.96 0 0 0-1.543-3.81m-12.787 0A7.96 7.96 0 0 0 4.064 11h2.88a8.9 8.9 0 0 0-1.338-3.81"/></svg>