<svg xmlns="http://www.w3.org/2000/svg" fill="none" viewBox="0 0 16 16"><path fill="#0A0B0D" d="M8.362 1.009a7.002 7.002 0 0 1-.36 13.993l-.36-.01A7.001 7.001 0 0 1 8.002 1zm-.36 1.59a6 6 0 0 0-.7.048V7.3H5.921a7.7 7.7 0 0 0-1.243-3.556c-.409.32-.77.696-1.072 1.119A6.2 6.2 0 0 1 4.413 7.3H2.648a5.5 5.5 0 0 0 .012 1.5H4.4a6.2 6.2 0 0 1-.793 2.337 5.4 5.4 0 0 0 1.072 1.118A7.7 7.7 0 0 0 5.909 8.8h1.393v4.553q.345.047.7.048.41-.001.8-.06V8.8h1.294a7.7 7.7 0 0 0 1.23 3.455c.408-.32.769-.696 1.07-1.118a6.2 6.2 0 0 1-.792-2.337h1.74a5.4 5.4 0 0 0 .013-1.5h-1.764c.098-.881.38-1.706.805-2.437a5.4 5.4 0 0 0-1.073-1.119 7.7 7.7 0 0 0-1.24 3.556H8.803V2.659a5.4 5.4 0 0 0-.8-.06"/></svg>