<svg xmlns="http://www.w3.org/2000/svg" fill="none" viewBox="0 0 12 12"><path fill="#0A0B0D" d="M6 1a5 5 0 1 1 0 10A5 5 0 0 1 6 1M4.557 6.7a5.6 5.6 0 0 1-.849 2.33 3.8 3.8 0 0 0 1.792.736V6.7zM6.7 9.733a3.8 3.8 0 0 0 1.591-.703 5.6 5.6 0 0 1-.848-2.33H6.7zM2.266 6.7c.097.52.298 1.004.584 1.426A4.4 4.4 0 0 0 3.344 6.7zm6.39 0c.082.51.252.99.493 1.426.286-.422.488-.905.585-1.426zM5.5 2.233a3.8 3.8 0 0 0-1.792.736c.479.742.787 1.604.87 2.531H5.5zM6.7 5.5h.723a5.6 5.6 0 0 1 .868-2.531 3.8 3.8 0 0 0-1.59-.703zm2.45-1.627A4.4 4.4 0 0 0 8.631 5.5h1.134a3.8 3.8 0 0 0-.617-1.627m-6.3 0A3.8 3.8 0 0 0 2.234 5.5h1.134a4.4 4.4 0 0 0-.518-1.627"/></svg>