<svg xmlns="http://www.w3.org/2000/svg" fill="none" viewBox="0 0 24 24"><path fill="#0A0B0D" d="M12 2c5.523 0 10 4.477 10 10s-4.477 10-10 10S2 17.523 2 12 6.477 2 12 2m0 2q-.508.002-1 .063V11H8.854a10.85 10.85 0 0 0-1.896-5.21c-.478.388-.91.83-1.286 1.317A9.04 9.04 0 0 1 7.043 11H4.064a8 8 0 0 0-.024 1.8h3.024a9.04 9.04 0 0 1-1.391 4.093c.377.486.808.929 1.285 1.317A10.85 10.85 0 0 0 8.87 12.8H11v7.136a8 8 0 0 0 1.8.024V12.8h2.33c.145 2 .83 3.853 1.911 5.41.477-.388.908-.83 1.285-1.317a9.04 9.04 0 0 1-1.39-4.093h3.024q.04-.395.04-.8c0-.339-.024-.672-.064-1h-2.979a9.04 9.04 0 0 1 1.37-3.893 8 8 0 0 0-1.286-1.317A10.85 10.85 0 0 0 15.146 11H12.8V4.04A8 8 0 0 0 12 4"/></svg>