<svg xmlns="http://www.w3.org/2000/svg" fill="none" viewBox="0 0 12 12"><path fill="#0A0B0D" d="M6 1a5 5 0 1 1 0 10A5 5 0 0 1 6 1m0 1.2q-.255 0-.5.033V5.5H4.478a5.5 5.5 0 0 0-.85-2.47q-.407.327-.713.751A4.5 4.5 0 0 1 3.472 5.5H2.234A4 4 0 0 0 2.2 6q.001.255.034.5h1.238a4.5 4.5 0 0 1-.557 1.718c.203.281.443.534.714.75A5.5 5.5 0 0 0 4.478 6.5H5.5v3.266q.245.033.5.034.255-.001.5-.034V6.5h1.022a5.5 5.5 0 0 0 .848 2.469 4 4 0 0 0 .714-.751A4.5 4.5 0 0 1 8.528 6.5h1.238A4 4 0 0 0 9.8 6q-.001-.255-.034-.5H8.528c.069-.62.262-1.201.556-1.719a3.8 3.8 0 0 0-.714-.75A5.5 5.5 0 0 0 7.522 5.5H6.5V2.233A4 4 0 0 0 6 2.2"/></svg>