<svg xmlns="http://www.w3.org/2000/svg" fill="none" viewBox="0 0 16 16"><path fill="#0A0B0D" d="M8 1a7 7 0 1 1 0 14.001 7 7 0 0 1 0-14M5.949 8.9a7.76 7.76 0 0 1-1.233 3.386c.736.565 1.62.943 2.586 1.068V8.9zM8.9 13.326a5.4 5.4 0 0 0 2.385-1.04A7.76 7.76 0 0 1 10.054 8.9H8.9zM11.667 8.9c.115.79.377 1.53.76 2.194.45-.643.763-1.388.899-2.194zm-8.99 0a5.35 5.35 0 0 0 .897 2.193 6.2 6.2 0 0 0 .76-2.193zM7.3 2.647a5.4 5.4 0 0 0-2.586 1.067 7.76 7.76 0 0 1 1.253 3.587H7.3zM8.9 7.3h1.132a7.76 7.76 0 0 1 1.252-3.587A5.4 5.4 0 0 0 8.9 2.675zm3.526-2.394A6.2 6.2 0 0 0 11.64 7.3h1.714a5.4 5.4 0 0 0-.928-2.394m-8.853 0A5.4 5.4 0 0 0 2.646 7.3H4.36a6.2 6.2 0 0 0-.787-2.393"/></svg>