<svg xmlns="http://www.w3.org/2000/svg" fill="none" viewBox="0 0 16 16"><path fill="#0A0B0D" d="M11.337.5a2.667 2.667 0 0 1 2.666 2.665v8.001c0 .62-.425 1.141-1 1.29V15.5h-8v-3.104a3.882 3.882 0 0 1-.177-7.516V3.165A2.667 2.667 0 0 1 7.493.5zM5.424 6.998a1.68 1.68 0 0 0-1.216 1.475l-.005.143c0 .93.753 1.682 1.681 1.682h5.919v-3.7h-1.735c.02.13.035.264.035.4a2.6 2.6 0 0 1-2.6 2.6h-2V7.4h2a.401.401 0 0 0 0-.8h-.666zm2.069-4.3a.467.467 0 0 0-.467.466V4.4h4.777V3.165a.47.47 0 0 0-.372-.457l-.094-.009z"/></svg>