<svg xmlns="http://www.w3.org/2000/svg" fill="none" viewBox="0 0 16 16"><path fill="#0A0B0D" d="M11.334.5A2.667 2.667 0 0 1 14 3.164v8.001c0 .621-.425 1.141-1 1.29V15.5H5v-3.104a3.883 3.883 0 0 1-.177-7.516V3.165A2.67 2.67 0 0 1 7.49.5zM6.6 13.9h4.8v-1.4H6.6zM5.26 6.423a2.28 2.28 0 0 0-1.651 2.002l-.009.193A2.283 2.283 0 0 0 5.881 10.9h6.52V6.3H9.69a2.3 2.3 0 0 1-2.191 3H5V7.7h2.5a.7.7 0 0 0 0-1.4H5.689zm2.23-4.324c-.59 0-1.067.478-1.067 1.066V4.7H12.4V3.165c0-.552-.42-1.006-.957-1.06l-.11-.006z"/></svg>