<svg xmlns="http://www.w3.org/2000/svg" fill="none" viewBox="0 0 16 16"><path fill="#0A0B0D" d="M9.334 8H6.667V6.4h2.667z"/><path fill="#0A0B0D" d="M10.012 1.001a2 2 0 0 1 2 2v1.003h3.003v11.011H1.001V4.004h3.003V3.001A2 2 0 0 1 5.8 1.011l.204-.01zm3.402 9.785a2.6 2.6 0 0 1-.793.211l-.273.014h-8.68l-.273-.014a2.6 2.6 0 0 1-.793-.21v2.627h10.812zM2.602 8.344c0 .588.478 1.066 1.066 1.066h8.68c.588 0 1.066-.478 1.066-1.066V5.605H2.602zm3.402-5.742a.4.4 0 0 0-.399.4v1.002h4.806V3.001a.4.4 0 0 0-.399-.399z"/></svg>