<svg xmlns="http://www.w3.org/2000/svg" fill="none" viewBox="0 0 16 16"><path fill="#0A0B0D" d="M9.614 7a.615.615 0 1 1 0 1.23.615.615 0 0 1 0-1.23"/><path fill="#0A0B0D" d="M9.276 2.298h-.533v1.264c.655.108 1.261.36 1.788.718l.878-.877-.378-.378.92-.919 1.885 1.886-.919.92-.377-.378-.868.867a4.5 4.5 0 0 1 .756 1.8h1.216v-.535h1.3v2.667h-1.3V8.8h-1.216a4.5 4.5 0 0 1-.756 1.799l.867.867.377-.378.92.919-1.887 1.886-.919-.92.377-.376-.876-.877a4.5 4.5 0 0 1-1.788.717v1.264h.533v1.3H6.61v-1.3h.535v-1.284a4.5 4.5 0 0 1-1.743-.745l-.922.924.376.377-.918.919-1.887-1.886.92-.92.377.379.932-.934A4.5 4.5 0 0 1 3.572 8.8h-1.33v.533h-1.3V6.666h1.3V7.2h1.33c.114-.633.36-1.22.708-1.732l-.934-.935-.378.378-.92-.919 1.887-1.886.919.92-.377.376.924.925a4.5 4.5 0 0 1 1.743-.745V2.298h-.535v-1.3h2.667zM8 5.1a3 3 0 0 0-.707.09c.17.144.278.356.278.596a.785.785 0 0 1-1.563.109 2.89 2.89 0 0 0-.62 3.359 1.308 1.308 0 1 1 1.877 1.548A3 3 0 0 0 8 10.9a2.9 2.9 0 0 0 0-5.8"/></svg>