<svg xmlns="http://www.w3.org/2000/svg" fill="none" viewBox="0 0 24 24"><path fill="#0A0B0D" d="M14 4h-1v1.072a6.96 6.96 0 0 1 3.191 1.322l.758-.758-.777-.778 1.414-1.415 2.828 2.83L19 7.686l-.637-.637-.757.758A6.96 6.96 0 0 1 18.928 11H20v-1h2v4h-2v-1h-1.072a6.96 6.96 0 0 1-1.322 3.191l.536.536.707-.707 1.414 1.415-.707.706-2.121 2.122-1.415-1.414.707-.707-.536-.537A6.96 6.96 0 0 1 13 18.928V20h1v2h-4v-2h1v-1.073a6.96 6.96 0 0 1-3.192-1.32l-.722.72.672.672-1.415 1.415-.672-.672-.035.036-1.414-1.414.035-.036-.742-.743 1.414-1.414.743.743.722-.722A6.96 6.96 0 0 1 5.072 13H4v1H2v-4h2v1h1.072a6.96 6.96 0 0 1 1.322-3.192l-.977-.977-.778.78-1.415-1.415.779-.779L4 5.414 5.414 4l.003.003.636-.635 1.414 1.414-.636.635.977.976A6.96 6.96 0 0 1 11 5.073V4h-1V2h4zm-2 3a5 5 0 1 0 0 10 5 5 0 0 0 0-10m-1.5 5a1.5 1.5 0 1 1 0 3 1.5 1.5 0 0 1 0-3m4.5 0a1 1 0 1 1 0 2 1 1 0 0 1 0-2m-4-4a1 1 0 1 1 0 2 1 1 0 0 1 0-2"/></svg>