<svg xmlns="http://www.w3.org/2000/svg" fill="none" viewBox="0 0 16 16"><path fill="#0A0B0D" d="M9.276 2.298h-.533v1.264c.655.108 1.261.36 1.788.718l.878-.877-.378-.378.92-.919 1.885 1.886-.919.92-.377-.378-.868.867a4.5 4.5 0 0 1 .756 1.8h1.216v-.535h1.3v2.667h-1.3V8.8h-1.216a4.5 4.5 0 0 1-.756 1.799l.867.867.377-.378.92.919-1.887 1.886-.919-.92.377-.376-.876-.877a4.5 4.5 0 0 1-1.788.717v1.264h.533v1.3H6.61v-1.3h.535v-1.284a4.5 4.5 0 0 1-1.743-.745l-.922.924.376.377-.918.919-1.887-1.886.92-.92.377.379.932-.934A4.5 4.5 0 0 1 3.572 8.8h-1.33v.533h-1.3V6.666h1.3V7.2h1.33c.114-.633.36-1.22.708-1.732l-.934-.935-.378.378-.92-.919 1.887-1.886.919.92-.377.376.924.925a4.5 4.5 0 0 1 1.743-.745V2.298h-.535v-1.3h2.667zM7.31 8a1.31 1.31 0 1 0 0 2.62 1.31 1.31 0 0 0 0-2.62m2.254-1.763a.614.614 0 1 0 0 1.23.614.614 0 0 0 0-1.23M6.786 5a.786.786 0 1 0 0 1.573.786.786 0 0 0 0-1.573"/></svg>