<svg xmlns="http://www.w3.org/2000/svg" fill="none" viewBox="0 0 12 12"><path fill="#0A0B0D" d="M7.004 1.998h-.452v1.053c.388.072.75.22 1.07.428l.733-.734-.32-.32.707-.707 1.49 1.489-.708.707-.32-.32-.722.721c.22.322.378.689.458 1.083h1.011v-.453h1v2.106h-1v-.452h-1.01c-.08.394-.238.76-.457 1.083l.72.72.32-.32.707.707-1.489 1.49-.707-.709.32-.32-.731-.731a3 3 0 0 1-1.073.43v1.049h.453v1H4.898v-1h.453v-1.07a3 3 0 0 1-1.037-.447l-.767.769.32.32-.707.708L1.67 8.79l.708-.707.32.32.78-.78a3 3 0 0 1-.418-1.024H1.95v.453h-1V4.945h1v.452h1.11a3 3 0 0 1 .42-1.022l-.782-.781-.321.32-.707-.707 1.49-1.49.706.708-.32.32.77.77c.308-.209.658-.36 1.035-.444V1.998h-.454v-1h2.106zM6 4.2a1.8 1.8 0 1 0 0 3.6 1.8 1.8 0 0 0 0-3.6"/></svg>