<svg xmlns="http://www.w3.org/2000/svg" fill="none" viewBox="0 0 16 16"><path fill="#0A0B0D" d="M5.503 3.103h4.922V1h1.6v2.103h2.973V15H1.001V3.103h2.902V1h1.6zm2.06 2.262v1.063c-1.046.15-1.649.825-1.649 1.634 0 1.03.682 1.458 1.65 1.625l.586.103c.547.095.81.166.81.563 0 .38-.294.682-.92.682-.619 0-1-.27-1-.817H5.804c0 .92.689 1.579 1.76 1.722v1.062h.967v-1.07c1.015-.159 1.665-.786 1.665-1.682 0-1.086-.76-1.468-1.696-1.61l-.563-.087c-.5-.08-.778-.19-.778-.595 0-.317.238-.627.841-.627.626 0 .888.302.888.706h1.237c-.016-.77-.57-1.435-1.594-1.601v-1.07z"/></svg>