<svg xmlns="http://www.w3.org/2000/svg" fill="none" viewBox="0 0 24 24"><path fill="#0A0B0D" d="M8.288 5h7.318V1.996h2V5H22v17H2.001V5h4.287V1.996h2zm3.166 3.867v1.33c-1.311.189-2.066 1.034-2.066 2.047 0 1.291.854 1.827 2.066 2.035l.734.13c.686.12 1.014.209 1.014.705 0 .477-.368.854-1.152.854-.775 0-1.252-.337-1.252-1.023H9.249c0 1.152.864 1.977 2.205 2.156v1.33h1.211v-1.34c1.271-.199 2.086-.983 2.086-2.106 0-1.36-.953-1.837-2.125-2.016l-.705-.11c-.626-.099-.974-.238-.974-.745 0-.397.298-.784 1.053-.784.785 0 1.112.377 1.112.884h1.55c-.02-.964-.716-1.797-1.997-2.006v-1.34z"/></svg>