<svg xmlns="http://www.w3.org/2000/svg" fill="none" viewBox="0 0 12 12"><path fill="#0A0B0D" d="M4.726 2h2.548V1h1.2v1H11v9H1V2h2.526V1h1.2zm.963 1.763v.757c-.744.107-1.173.586-1.173 1.162 0 .733.485 1.038 1.173 1.157l.418.073c.39.068.576.12.576.401 0 .271-.209.486-.655.486-.44 0-.71-.193-.71-.582h-.881c0 .655.49 1.124 1.252 1.225v.756h.689v-.761c.722-.113 1.185-.56 1.185-1.197 0-.773-.541-1.045-1.208-1.146l-.4-.062c-.356-.056-.554-.136-.554-.424 0-.225.17-.446.599-.446.446 0 .632.215.632.503h.88c-.01-.548-.406-1.022-1.134-1.14v-.762z"/></svg>