<svg xmlns="http://www.w3.org/2000/svg" fill="none" viewBox="0 0 24 24"><path fill="#0A0B0D" d="M8.288 5h7.318V1.996h2V5H22v17H2V5h4.288V1.996h2zM4.001 20H20V7H4.001zm8.664-9.792c1.281.209 1.977 1.042 1.997 2.006h-1.55c0-.507-.327-.884-1.112-.884-.755 0-1.053.387-1.053.784 0 .507.348.646.974.745l.705.11c1.172.179 2.125.656 2.125 2.016 0 1.123-.815 1.907-2.086 2.106v1.34h-1.21v-1.33c-1.342-.18-2.206-1.004-2.206-2.156h1.549c0 .686.477 1.023 1.252 1.023.784 0 1.152-.377 1.152-.854 0-.496-.328-.586-1.014-.705l-.734-.13c-1.212-.208-2.066-.744-2.066-2.035 0-1.013.755-1.858 2.066-2.047v-1.33h1.211z"/></svg>