<svg xmlns="http://www.w3.org/2000/svg" fill="none" viewBox="0 0 16 16"><path fill="#0A0B0D" d="M5.503 3.103h4.922V1h1.6v2.103h2.974V15H1.001V3.103h2.902V1h1.6zM2.6 13.4h10.797V4.702H2.601zm5.93-6.965c1.023.166 1.578.832 1.594 1.601H8.888c0-.404-.262-.706-.888-.706-.603 0-.84.31-.84.627 0 .404.277.515.777.595l.563.087c.936.142 1.696.524 1.696 1.61 0 .896-.65 1.523-1.665 1.682v1.07h-.968V11.94c-1.07-.143-1.76-.802-1.76-1.722H7.04c0 .547.381.817 1 .817.626 0 .92-.302.92-.683 0-.396-.263-.467-.81-.562l-.587-.103c-.967-.167-1.649-.595-1.649-1.625 0-.81.603-1.483 1.65-1.634V5.365h.967z"/></svg>