<svg xmlns="http://www.w3.org/2000/svg" fill="none" viewBox="0 0 12 12"><path fill="#0A0B0D" d="M4.726 2h2.548V1h1.2v1H11v9H1V2h2.526V1h1.2zM2.2 9.8h7.6V3.2H2.2zm4.178-5.276c.728.119 1.123.593 1.135 1.141h-.881c0-.288-.186-.503-.632-.503-.429 0-.599.22-.599.446 0 .288.198.368.554.424l.4.062c.667.101 1.208.373 1.208 1.146 0 .638-.463 1.084-1.185 1.197v.761h-.689v-.756c-.762-.101-1.252-.57-1.252-1.225h.88c0 .39.271.582.711.582.446 0 .654-.215.655-.486 0-.282-.186-.333-.576-.4l-.418-.074c-.688-.119-1.173-.424-1.173-1.157 0-.576.429-1.055 1.173-1.162v-.757h.689z"/></svg>