<svg xmlns="http://www.w3.org/2000/svg" fill="none" viewBox="0 0 24 24"><path fill="#0A0B0D" d="M6.5 11a1.5 1.5 0 1 1 0 3 1.5 1.5 0 0 1 0-3m11 0a1.5 1.5 0 1 1 0 3 1.5 1.5 0 0 1 0-3M15 13.5H9v-2h6z"/><path fill="#0A0B0D" d="M16.106 2c.787 0 1.502.462 1.825 1.18l1.698 3.776.664-.663.075-.07a1 1 0 0 1 1.339 1.484l-.62.618c.55.356.913.972.913 1.675v8a3 3 0 1 1-6 0v-1H8v1a3 3 0 1 1-6 0v-8c0-.703.363-1.319.911-1.675l-.618-.618a1 1 0 0 1 1.339-1.483l.075.069.662.662 1.7-3.775A2 2 0 0 1 7.894 2zM4 18a1 1 0 1 0 2 0v-1H4zm14 0a1 1 0 1 0 2 0v-1h-2zM4 10.001V15h16v-4.999L19.98 10H4.02zM6.093 8h11.813l-1.8-4H7.894z"/></svg>