<svg xmlns="http://www.w3.org/2000/svg" fill="none" viewBox="0 0 16 16"><path fill="#0A0B0D" d="M10.35 1.5c.777 0 1.481.431 1.8 1.1l.972 2.04.431-.407a.823.823 0 0 1 1.116-.001.716.716 0 0 1 0 1.053l-.586.552c.438.342.718.857.718 1.436v5.365c0 1.028-.883 1.862-1.972 1.862s-1.971-.835-1.972-1.863v-.71H5.14v.617c0 1.08-.928 1.955-2.071 1.955s-2.07-.875-2.07-1.955V7.273c0-.578.28-1.094.717-1.436l-.584-.552a.717.717 0 0 1 0-1.053.823.823 0 0 1 1.116 0l.429.406.973-2.039C3.968 1.931 4.672 1.5 5.447 1.5zM4.854 7.744c-.544 0-.986.416-.986.93 0 .515.442.931.986.931s.986-.416.986-.93c0-.515-.441-.931-.986-.931m6.095 0c-.545 0-.986.416-.986.93 0 .515.441.931.986.931s.986-.417.986-.93-.442-.931-.986-.931m-5.5-4.754a.4.4 0 0 0-.36.22l-1.04 2.184h7.704l-1.04-2.184a.4.4 0 0 0-.361-.22z"/></svg>