<svg xmlns="http://www.w3.org/2000/svg" fill="none" viewBox="0 0 16 16"><path fill="#0A0B0D" d="M4.853 7.744c.545 0 .986.416.986.93 0 .515-.441.931-.986.931s-.986-.416-.986-.93c0-.515.442-.931.986-.931m6.094 0c.545 0 .986.416.986.93 0 .515-.442.931-.986.931s-.986-.417-.986-.93.442-.931.986-.931"/><path fill="#0A0B0D" d="M10.351 1.5c.776 0 1.48.431 1.799 1.1l.972 2.04.431-.407a.823.823 0 0 1 1.116-.001.716.716 0 0 1 0 1.053l-.586.552c.438.342.718.857.718 1.436v5.365c0 1.028-.883 1.862-1.972 1.862s-1.971-.835-1.972-1.863v-.71H5.14v.617c0 1.08-.928 1.955-2.07 1.955-1.144 0-2.07-.875-2.071-1.955V7.273c0-.578.28-1.094.717-1.436l-.584-.552a.716.716 0 0 1 0-1.053.823.823 0 0 1 1.116 0l.43.406L3.65 2.6c.318-.669 1.022-1.1 1.797-1.1zm2.084 11.137c0 .207.178.374.394.374a.39.39 0 0 0 .386-.298l.01-.075v-.712h-.79zm-9.86-.093a.48.48 0 0 0 .493.466c.273 0 .494-.21.494-.466v-.618h-.987zm.25-5.618a.37.37 0 0 0-.25.347v3.164h10.65V7.273a.38.38 0 0 0-.252-.347l-.118-.043H2.943zM5.447 2.99a.4.4 0 0 0-.359.22l-1.04 2.184h7.703l-1.04-2.184a.4.4 0 0 0-.36-.22z"/></svg>