<svg xmlns="http://www.w3.org/2000/svg" fill="none" viewBox="0 0 12 12"><path fill="#0A0B0D" d="M7.281 1.018c.771 0 1.47.463 1.787 1.181l.676 1.537.153-.156a.58.58 0 0 1 .832 0 .61.61 0 0 1-.001.85l-.35.356c.266.341.425.773.425 1.243v3.556c0 .79-.627 1.432-1.4 1.433-.774 0-1.4-.642-1.401-1.433V9.04H3.939v.474c0 .83-.658 1.505-1.47 1.505-.813 0-1.47-.675-1.471-1.505V6.029c0-.47.158-.902.423-1.243l-.348-.356a.61.61 0 0 1 0-.85.58.58 0 0 1 .831 0l.152.155.678-1.536A1.96 1.96 0 0 1 4.52 1.018zm-3.71 5.129a.62.62 0 0 0-.613.627.62.62 0 0 0 .613.626.62.62 0 0 0 .612-.626.62.62 0 0 0-.612-.627m4.454 0a.62.62 0 0 0-.613.627.62.62 0 0 0 .613.626.62.62 0 0 0 .612-.626.62.62 0 0 0-.612-.627M4.52 2.22a.78.78 0 0 0-.715.471L3.05 4.405h5.7l-.755-1.713a.79.79 0 0 0-.6-.462l-.114-.01z"/></svg>