<svg xmlns="http://www.w3.org/2000/svg" fill="none" viewBox="0 0 12 12"><path fill="#0A0B0D" d="M3.57 6.147a.62.62 0 0 1 .613.627.62.62 0 0 1-.613.626.62.62 0 0 1-.612-.626.62.62 0 0 1 .612-.627m4.455 0a.62.62 0 0 1 .612.627.62.62 0 0 1-.612.626.62.62 0 0 1-.613-.626.62.62 0 0 1 .613-.627"/><path fill="#0A0B0D" d="M7.281 1.018c.771 0 1.47.463 1.787 1.181l.676 1.537.153-.156a.58.58 0 0 1 .832 0 .61.61 0 0 1-.001.85l-.35.356c.266.341.425.773.425 1.243v3.556c0 .79-.627 1.432-1.4 1.433-.774 0-1.4-.642-1.401-1.433V9.04H3.939v.474c0 .83-.658 1.505-1.47 1.505-.813 0-1.47-.675-1.471-1.505V6.029c0-.47.158-.902.423-1.243l-.348-.356a.61.61 0 0 1 0-.85.58.58 0 0 1 .831 0l.152.155.678-1.536A1.96 1.96 0 0 1 4.52 1.018zM2.174 9.513a.3.3 0 0 0 .295.302.3.3 0 0 0 .294-.302v-.475h-.59zm7.004.072c0 .127.101.23.225.23a.23.23 0 0 0 .22-.184l.005-.046v-.547h-.45zM2.293 5.608a.8.8 0 0 0-.12.421v1.807h7.455V6.03a.8.8 0 0 0-.122-.421zM4.52 2.22a.78.78 0 0 0-.715.471L3.05 4.405h5.698l-.753-1.713a.79.79 0 0 0-.6-.462l-.114-.01z"/></svg>