<svg xmlns="http://www.w3.org/2000/svg" fill="none" viewBox="0 0 24 24"><path fill="#0A0B0D" d="M16.106 2c.787 0 1.502.462 1.825 1.18l1.698 3.775.664-.662.075-.07a1 1 0 0 1 1.339 1.484l-.62.618.004.002c.2.131.376.297.518.49l.034.046.042.062q.04.063.077.13l.021.043q.03.057.056.118l.017.037q.026.07.05.143l.015.053q.047.162.066.335l.003.033q.01.09.01.183v8a3 3 0 1 1-6 0v-1H8v1a3 3 0 1 1-6 0v-8q0-.092.009-.183l.003-.033q.019-.177.068-.344l.009-.03a2 2 0 0 1 .055-.157l.015-.035.06-.13.015-.026q.036-.069.079-.134l.008-.016.06-.086.016-.02q.208-.276.497-.468l.017-.013-.618-.618a1 1 0 0 1 1.339-1.483l.075.069.662.662 1.7-3.775a2 2 0 0 1 1.677-1.175L7.894 2zM5.5 11a1.5 1.5 0 1 0 0 3 1.5 1.5 0 0 0 0-3m13 0a1.5 1.5 0 1 0 0 3 1.5 1.5 0 0 0 0-3m-9.5.5v2h6v-2zM6.094 8h11.812l-1.8-4H7.894z"/></svg>