<svg xmlns="http://www.w3.org/2000/svg" fill="none" viewBox="0 0 16 16"><path fill="#0A0B0D" d="M5.114 5.603a1.034 1.034 0 1 1 0 2.067 1.034 1.034 0 0 1 0-2.067m2.887 0A1.034 1.034 0 1 1 8 7.67a1.034 1.034 0 0 1 0-2.067m2.887 0a1.034 1.034 0 1 1-.001 2.067 1.034 1.034 0 0 1 0-2.067"/><path fill="#0A0B0D" d="M12.903.995c1.16 0 2.1.94 2.1 2.1v6.8a2.1 2.1 0 0 1-2.1 2.1h-1.9l-3 3-3-3h-1.9a2.1 2.1 0 0 1-2.1-2.1v-6.8c.001-1.16.941-2.1 2.1-2.1zm-9.8 1.6a.5.5 0 0 0-.5.5v6.8a.5.5 0 0 0 .5.5h2.563l2.338 2.337 2.337-2.336h2.562a.5.5 0 0 0 .5-.5V3.095a.5.5 0 0 0-.5-.5z"/></svg>