<svg xmlns="http://www.w3.org/2000/svg" fill="none" viewBox="0 0 12 12"><path fill="#0A0B0D" d="M3.839 4.309a.673.673 0 1 1 0 1.345.673.673 0 0 1 0-1.345m2.161 0a.673.673 0 1 1 0 1.345.673.673 0 0 1 0-1.345m2.161 0a.673.673 0 1 1 .001 1.346.673.673 0 0 1 0-1.346"/><path fill="#0A0B0D" d="M9.49.995a1.5 1.5 0 0 1 1.5 1.5v5a1.5 1.5 0 0 1-1.5 1.5h-1.5l-2 2-2-2H2.487a1.5 1.5 0 0 1-1.5-1.5v-5A1.5 1.5 0 0 1 2.49.995zm-7 1.2a.3.3 0 0 0-.302.3v5a.3.3 0 0 0 .3.3h1.997L5.99 9.298l1.503-1.503H9.49a.3.3 0 0 0 .3-.3v-5a.3.3 0 0 0-.3-.3z"/></svg>