<svg xmlns="http://www.w3.org/2000/svg" fill="none" viewBox="0 0 24 24"><path fill="#0A0B0D" d="M7.458 8.632a1.416 1.416 0 1 1-.001 2.83 1.416 1.416 0 0 1 .001-2.83m4.542 0a1.415 1.415 0 1 1 0 2.83 1.415 1.415 0 0 1 0-2.83m4.542 0a1.415 1.415 0 1 1 0 2.83 1.415 1.415 0 0 1 0-2.83"/><path fill="#0A0B0D" d="M19.004 1.995a3 3 0 0 1 3 3v10a3 3 0 0 1-3 3h-3l-4 4-4-4h-3a3 3 0 0 1-3-3v-10a3 3 0 0 1 3-3zm-14 2a1 1 0 0 0-1 1v10a1 1 0 0 0 1 1h3.828l3.172 3.172 3.172-3.172h3.828a1 1 0 0 0 1-1v-10a1 1 0 0 0-1-1z"/></svg>