<svg xmlns="http://www.w3.org/2000/svg" fill="none" viewBox="0 0 12 12"><path fill="#0A0B0D" fill-rule="evenodd" d="M6.035 1c.833 0 1.51.672 1.51 1.5 0 .556-.307 1.04-.76 1.298l3.489 1.387c1.196.475.902 2.202-.327 2.31l-.122.005h-1.16l.266 2.39A1.004 1.004 0 0 1 7.93 11H4.14c-.6 0-1.067-.518-1.002-1.11l.267-2.39h-1.16l-.123-.006C.894 7.387.6 5.661 1.795 5.184L5.48 3.72v-.826h.604a.4.4 0 0 0 .352-.394.402.402 0 0 0-.805 0H4.525c0-.828.676-1.5 1.51-1.5M2.207 6.207a.2.2 0 0 0-.052.028l-.005.008a.13.13 0 0 0-.005.075c.008.04.026.063.033.07l.007.004a.2.2 0 0 0 .06.007h7.58a.2.2 0 0 0 .058-.007l.008-.005a.13.13 0 0 0 .032-.069.13.13 0 0 0-.004-.075l-.005-.008a.2.2 0 0 0-.052-.028L6.034 4.685z" clip-rule="evenodd"/></svg>