<svg xmlns="http://www.w3.org/2000/svg" fill="none" viewBox="0 0 24 24"><path fill="#0A0B0D" fill-rule="evenodd" d="M11.979 2a2.997 2.997 0 0 1 1.487 5.597l6.442 2.582c2.47.99 1.862 4.587-.675 4.81L18.98 15h-1.715l.37 3.701A3 3 0 0 1 14.657 22H9.3l-.166-.005a3 3 0 0 1-2.825-3.129l.012-.165.37-3.701H4.976c-2.746 0-3.476-3.799-.927-4.821l6.932-2.78V6h.998a1 1 0 0 0 .997-1 .999.999 0 1 0-1.995 0H8.985c0-1.657 1.34-3 2.994-3M8.307 18.9A1 1 0 0 0 9.3 20h5.357a1 1 0 0 0 .993-1.1l-.09-.9H8.397zm.29-2.9h6.764l-.2-2H8.796zM4.79 12.036c-.186.075-.244.161-.271.216a.55.55 0 0 0-.034.343.55.55 0 0 0 .159.305c.045.041.13.1.33.1H6.89l.1-1h9.977l.1 1h1.914c.2 0 .286-.059.331-.1a.55.55 0 0 0 .16-.305.55.55 0 0 0-.035-.343c-.027-.055-.085-.141-.27-.216l-7.189-2.882z" clip-rule="evenodd"/></svg>