<svg xmlns="http://www.w3.org/2000/svg" fill="none" viewBox="0 0 16 16"><path fill="#0A0B0D" fill-rule="evenodd" d="M8.244 1.031c1.07.107 1.906.996 1.906 2.076l-.01.213a2.08 2.08 0 0 1-1.054 1.592l4.867 1.914c1.69.664 1.274 3.075-.461 3.225l-.173.008h-1.556l.406 3.874a.994.994 0 0 1-1 1.088H4.912a.994.994 0 0 1-.998-1.095l.434-3.867H2.736l-.172-.008C.884 9.906.44 7.643 1.945 6.895l.157-.07 5.123-2.013V3.624h.803v-.01a.513.513 0 0 0 .516-.507.514.514 0 0 0-.516-.509.514.514 0 0 0-.518.509H5.904c0-1.152.951-2.086 2.124-2.086zm-2.66 12.412h4.918l-.353-3.373H5.962zM2.698 8.29a.2.2 0 0 0-.06.03.16.16 0 0 0 0 .08.15.15 0 0 0 .031.072.2.2 0 0 0 .067.007h10.583q.058-.002.066-.007a.14.14 0 0 0 .033-.073.15.15 0 0 0-.003-.078.2.2 0 0 0-.059-.031l-5.33-2.095z" clip-rule="evenodd"/></svg>