<svg xmlns="http://www.w3.org/2000/svg" fill="none" viewBox="0 0 16 16"><path fill="#0A0B0D" fill-rule="evenodd" d="M8.244 1.031a2.11 2.11 0 0 1 1.906 2.09l-.01.214a2.1 2.1 0 0 1-1.054 1.603l4.867 1.927c1.69.67 1.274 3.096-.461 3.248l-.173.008h-1.645l.464 3.787a.997.997 0 0 1-.998 1.113H4.924a.997.997 0 0 1-.995-1.122l.496-3.778h-1.69l-.171-.008C.884 9.966.44 7.688 1.945 6.935l.157-.07 5.123-2.028V3.642h.803v-.01c.285 0 .516-.23.516-.511a.515.515 0 0 0-.516-.512.516.516 0 0 0-.518.512H5.904c0-1.16.951-2.1 2.124-2.1zM2.698 8.34a.2.2 0 0 0-.06.031.16.16 0 0 0 0 .08.2.2 0 0 0 .03.072.2.2 0 0 0 .068.008h10.583a.2.2 0 0 0 .066-.008.14.14 0 0 0 .033-.072.15.15 0 0 0-.003-.08.2.2 0 0 0-.059-.031l-5.33-2.11z" clip-rule="evenodd"/></svg>