<svg xmlns="http://www.w3.org/2000/svg" fill="none" viewBox="0 0 12 12"><path fill="#0A0B0D" fill-rule="evenodd" d="M6.035 1c.834 0 1.51.672 1.51 1.5 0 .556-.306 1.04-.76 1.298l3.49 1.387c1.196.475.902 2.201-.327 2.31l-.122.005H8.66l.27 2.388a1.003 1.003 0 0 1-.89 1.106L7.93 11H4.141c-.6 0-1.067-.519-1-1.112l.27-2.388H2.245l-.122-.006C.894 7.387.6 5.66 1.796 5.184L5.481 3.72v-.826h.604a.4.4 0 0 0 .352-.394.402.402 0 0 0-.804 0H4.525c0-.828.676-1.5 1.51-1.5M4.522 7.5l-.267 2.4h3.561l-.268-2.4zM2.208 6.207a.2.2 0 0 0-.052.028l-.005.008a.13.13 0 0 0-.005.075.13.13 0 0 0 .033.07l.008.004a.2.2 0 0 0 .059.007h7.58a.2.2 0 0 0 .058-.007l.008-.005a.13.13 0 0 0 .033-.069.13.13 0 0 0-.004-.075l-.006-.008a.2.2 0 0 0-.051-.028L6.035 4.685z" clip-rule="evenodd"/></svg>