<svg xmlns="http://www.w3.org/2000/svg" fill="none" viewBox="0 0 16 16"><path fill="#0A0B0D" d="M6.184 5.34q.084.001.167.006l.136.015q.104.01.206.023l.057.011q.305.049.596.135.237.072.461.17a4.6 4.6 0 0 1 .85.467 4.7 4.7 0 0 1 1.08 1.04q.277.371.479.793h1.117l.172.005q.132.006.26.023l.009.001q.383.052.735.187l.062.025a3.331 3.331 0 0 1-1.066 6.422l-.172.003H6a4.667 4.667 0 0 1 0-9.332h.013q.086.001.171.005m4.149-4.006a4.334 4.334 0 0 1 3.931 6.156 4.8 4.8 0 0 0-2.683-.982l-.016-.001h-.017l-.172-.005-.021-.001h-.284a6.16 6.16 0 0 0-4.67-2.655 4.33 4.33 0 0 1 3.932-2.512"/></svg>