<svg xmlns="http://www.w3.org/2000/svg" fill="none" viewBox="0 0 16 16"><path fill="#0A0B0D" fill-rule="evenodd" d="M10.556 1.339a4.334 4.334 0 0 1 4.11 4.328l-.005.222a4.32 4.32 0 0 1-1.26 2.835 3.32 3.32 0 0 1 1.265 2.61c0 1.782-1.4 3.24-3.161 3.329l-.172.003H6a4.667 4.667 0 1 1 .013-9.332c.17-2.238 2.04-4 4.32-4zM6 6.933a3.067 3.067 0 0 0 0 6.134h5.297l.138-.004a1.733 1.733 0 0 0 0-3.46l-.148-.003H9.205l-.435-.914A3.07 3.07 0 0 0 6 6.933m4.333-4a2.733 2.733 0 0 0-2.732 2.684q-.104-.039-.212-.072A4.68 4.68 0 0 1 10.216 8h1.117l.172.005q.12.006.237.02l-.029-.004a2.73 2.73 0 0 0 1.353-2.354 2.733 2.733 0 0 0-2.733-2.734" clip-rule="evenodd"/></svg>