<svg xmlns="http://www.w3.org/2000/svg" fill="none" viewBox="0 0 24 24"><path fill="#0A0B0D" d="M9.12 8.002q.08 0 .158.003h.018a7 7 0 0 1 .952.106l.033.005.1.02q.185.038.367.085l.104.028a7 7 0 0 1 .551.176l.081.03a7 7 0 0 1 1.598.86A7.04 7.04 0 0 1 15.325 12H17q.123 0 .244.006.03.001.057.004a5 5 0 0 1 .4.039l.115.018.109.019.13.026.071.016q.252.058.494.142l.06.02.134.05.072.03q.175.07.344.154l.045.024A5 5 0 0 1 17 22H9A7 7 0 1 1 9 8h.02zM15.5 2a6.5 6.5 0 0 1 5.783 9.465A6.97 6.97 0 0 0 17 10h-.519a8.99 8.99 0 0 0-6.989-3.986A6.5 6.5 0 0 1 15.5 2"/></svg>