<svg xmlns="http://www.w3.org/2000/svg" fill="none" viewBox="0 0 24 24"><path fill="#0A0B0D" d="M10 18a2 2 0 1 1 0 4 2 2 0 0 1 0-4"/><path fill="#0A0B0D" fill-rule="evenodd" d="M18 14a4 4 0 1 1 0 8 4 4 0 0 1 0-8m0 2a2 2 0 1 0 0 4 2 2 0 0 0 0-4" clip-rule="evenodd"/><path fill="#0A0B0D" d="M9.973 8.055 12.527 9l-2.554.945-.946 2.555-.945-2.555L5.527 9l2.555-.945.945-2.555z"/><path fill="#0A0B0D" fill-rule="evenodd" d="M9.362 2.009A7 7 0 0 1 9.002 16l-.36-.009A7 7 0 0 1 9.002 2zM9.002 4a5 5 0 1 0 0 10 5 5 0 0 0 0-10" clip-rule="evenodd"/></svg>