<svg xmlns="http://www.w3.org/2000/svg" fill="none" viewBox="0 0 16 16"><path fill="#0A0B0D" fill-rule="evenodd" d="M12 9a3 3 0 1 1 0 6 3 3 0 0 1 0-6m0 1.6a1.4 1.4 0 1 0 0 2.801 1.4 1.4 0 0 0 0-2.801" clip-rule="evenodd"/><path fill="#0A0B0D" d="M6 12a1.333 1.333 0 1 1 0 2.666A1.333 1.333 0 0 1 6 12"/><path fill="#0A0B0D" fill-rule="evenodd" d="M5.907 1.006a4.667 4.667 0 0 1 4.426 4.661l-.006.24a4.666 4.666 0 0 1-4.66 4.426l-.24-.006a4.667 4.667 0 0 1-4.421-4.42L1 5.667A4.667 4.667 0 0 1 5.667 1zM5.667 2.6a3.068 3.068 0 1 0 .001 6.135A3.068 3.068 0 0 0 5.667 2.6" clip-rule="evenodd"/></svg>