<svg xmlns="http://www.w3.org/2000/svg" fill="none" viewBox="0 0 24 24"><path fill="#0A0B0D" d="M22 21H2v-7.941h20zM7.037 16.092a.879.879 0 1 0 .002 1.757.879.879 0 0 0-.002-1.757M13 11H2V3h11zM7.037 6.11a.878.878 0 1 0 0 1.756.878.878 0 0 0 0-1.757m11.867-1.337c.209.085.402.2.576.336l1.539-.887.9 1.56-1.544.89a2.4 2.4 0 0 1 .024.32q-.002.17-.026.331l1.541.89-.9 1.56-1.542-.891a2.4 2.4 0 0 1-.568.328v1.774h-1.8V9.21a2.4 2.4 0 0 1-.564-.324l-1.535.886-.9-1.56 1.53-.884a2.4 2.4 0 0 1-.026-.336q.002-.166.024-.326L14.1 5.78l.9-1.56 1.531.884q.261-.204.573-.33V3h1.8z"/></svg>