<svg xmlns="http://www.w3.org/2000/svg" fill="none" viewBox="0 0 16 16"><path fill="#0A0B0D" d="M4.586 11.164a.586.586 0 1 1-.001 1.171.586.586 0 0 1 0-1.17"/><path fill="#0A0B0D" d="M15 15H1V8.5h14zM2.6 13.4h10.8v-3.3H2.6zM8 2.6H2.6v3.3H8v1.6H1V1h7zm4.603-.133q.177.082.335.195l1.275-.734.8 1.385-1.278.737a2 2 0 0 1 0 .38l1.274.736-.8 1.386-1.277-.739a2 2 0 0 1-.33.192v1.47h-1.6v-1.47a2 2 0 0 1-.326-.189l-1.272.735-.8-1.385 1.266-.731a2 2 0 0 1 0-.39L8.6 3.313l.8-1.385 1.269.732q.156-.113.334-.193V.998h1.6z"/><path fill="#0A0B0D" d="M4.586 3.664a.586.586 0 1 1-.001 1.171.586.586 0 0 1 0-1.17"/></svg>