<svg xmlns="http://www.w3.org/2000/svg" fill="none" viewBox="0 0 16 16"><path fill="#0A0B0D" d="M14.987 15H1V8.5h13.987zM4.582 11.164a.586.586 0 1 0 .002 1.172.586.586 0 0 0-.002-1.172M7.994 7.5H1V1h6.994zM4.582 3.664a.586.586 0 1 0 .002 1.172.586.586 0 0 0-.002-1.172m8.01-1.198q.178.082.336.196l1.273-.734L15 3.313l-1.276.737a2 2 0 0 1 0 .38l1.272.736-.799 1.385-1.276-.738a2 2 0 0 1-.33.192v1.47h-1.598v-1.47a2 2 0 0 1-.327-.189l-1.27.735-.798-1.385 1.263-.731a2 2 0 0 1 0-.39l-1.268-.732.8-1.385 1.266.731q.156-.113.334-.193V.998h1.599z"/></svg>