<svg xmlns="http://www.w3.org/2000/svg" fill="none" viewBox="0 0 24 24"><path fill="#0A0B0D" d="M12.978 10.793h2.936L13.54 12.52l.907 2.793-2.376-1.727-2.376 1.726.908-2.792-2.375-1.727h2.936L12.07 8z"/><path fill="#0A0B0D" fill-rule="evenodd" d="M8 6.256A6.97 6.97 0 0 1 11.95 5 6.97 6.97 0 0 1 16 6.257V2h6v6h-4.256A6.97 6.97 0 0 1 19 11.95 6.97 6.97 0 0 1 17.742 16H22v6h-6v-4.257A6.97 6.97 0 0 1 12.05 19 6.97 6.97 0 0 1 8 17.742V22H2v-6h4.256A6.97 6.97 0 0 1 5 12.05 6.97 6.97 0 0 1 6.258 8H2V2h6zM3.7 20.3h2.6v-2.6H3.7zm14 0h2.6v-2.6h-2.6zM11.964 7a5 5 0 1 0 .073 10 5 5 0 0 0-.073-10M3.7 6.3h2.6V3.7H3.7zm14 0h2.6V3.7h-2.6z" clip-rule="evenodd"/></svg>