<svg xmlns="http://www.w3.org/2000/svg" fill="none" viewBox="0 0 12 12"><path fill="#0A0B0D" d="M6.49 5.396h1.467L6.77 6.26l.453 1.396-1.188-.863-1.187.863L5.3 6.26l-1.188-.864H5.58L6.035 4z"/><path fill="#0A0B0D" fill-rule="evenodd" d="M4 3.128A3.5 3.5 0 0 1 6 2.5a3.5 3.5 0 0 1 2 .628V1h3v3H8.872A3.5 3.5 0 0 1 9.5 6l-.005.18A3.5 3.5 0 0 1 8.871 8H11v3H8V8.871A3.5 3.5 0 0 1 6 9.5l-.18-.005A3.5 3.5 0 0 1 4 8.871V11H1V8h2.129a3.5 3.5 0 0 1-.624-1.82L2.5 6c0-.744.232-1.433.628-2H1V1h3zM6 3.7a2.3 2.3 0 1 0 0 4.6 2.3 2.3 0 0 0 0-4.6" clip-rule="evenodd"/></svg>