<svg xmlns="http://www.w3.org/2000/svg" fill="none" viewBox="0 0 16 16"><path fill="#0A0B0D" d="M8.685 7.155h2.055L9.077 8.363l.635 1.955L8.05 9.11l-1.663 1.208.636-1.955L5.36 7.155h2.055L8.049 5.2z"/><path fill="#0A0B0D" fill-rule="evenodd" d="M5.2 3.98A4.9 4.9 0 0 1 8 3.1l.252.006a4.87 4.87 0 0 1 2.548.874V1H15v4.2h-2.98c.553.794.879 1.759.88 2.8l-.007.252a4.87 4.87 0 0 1-.874 2.548H15V15h-4.2v-2.98a4.9 4.9 0 0 1-2.8.88l-.252-.007A4.87 4.87 0 0 1 5.2 12.02V15H1v-4.2h2.98a4.87 4.87 0 0 1-.874-2.548L3.1 8c0-1.041.326-2.006.88-2.8H1V1h4.2zm-2.73 9.55h1.26v-1.26H2.47zm9.8 0h1.26v-1.26h-1.26zM8 4.78a3.22 3.22 0 1 0 0 6.439 3.22 3.22 0 0 0 0-6.44M2.47 3.73h1.26V2.47H2.47zm9.8 0h1.26V2.47h-1.26z" clip-rule="evenodd"/></svg>