<svg xmlns="http://www.w3.org/2000/svg" fill="none" viewBox="0 0 24 24"><path fill="#0A0B0D" d="M9.505 16.387a15.4 15.4 0 0 0 2.368 1.642l3.748-4.604 6.368 1.209V21.8l-1.265.14-.019.001a18 18 0 0 1-1.293.053 17.34 17.34 0 0 1-11.218-4.097L4.636 22H1.99L19.345 2h2.644zm4.226 2.528a15.4 15.4 0 0 0 6.258 1.067V16.29l-3.57-.678zM10.667 8.37l-4.669 3.813q.37.648.799 1.257l-1.349 1.55a17.38 17.38 0 0 1-3.46-10.435c0-.552.021-1.101.075-1.656l.086-.904H9.46zM3.989 4.555a15.4 15.4 0 0 0 1.115 5.776L8.48 7.573l-.676-3.578H3.997q-.008.276-.008.56"/></svg>