<svg xmlns="http://www.w3.org/2000/svg" fill="none" viewBox="0 0 16 16"><path fill="#0A0B0D" d="M6.458 11.044q.662.541 1.404.97l2.556-3.15 4.53.862v5.128l-.97.109h-.016c-.291.022-.591.037-.896.037-2.9 0-5.558-1.03-7.639-2.741L3.1 15H1.005L12.893 1h2.096zm2.889 1.675a10.4 10.4 0 0 0 4.005.677V11.05l-2.297-.438zM7.175 5.515l-.1.119-3.078 2.522q.187.325.397.634l-1.066 1.256A12.1 12.1 0 0 1 .989 2.875q-.002-.573.05-1.151L1.11 1h5.214zm-4.59-2.64c0 1.339.247 2.62.701 3.797l2.15-1.762-.434-2.31H2.587q-.003.137-.003.275"/></svg>