<svg xmlns="http://www.w3.org/2000/svg" fill="none" viewBox="0 0 24 24"><path fill="#0A0B0D" d="M15 3a9 9 0 1 1-8.179 12.755l-.032-.07a9 9 0 0 1-.289-.724l-.04-.115a9 9 0 0 1-.253-.925l-.032-.15a9 9 0 0 1-.16-1.26l-.005-.097a9 9 0 0 1 .105-1.854q.029-.177.064-.351.018-.086.038-.17.022-.105.048-.207l.04-.158q.036-.134.076-.267l.023-.084.081-.243.026-.071q.038-.108.079-.214l.03-.075q.074-.193.157-.381l.066-.142a9 9 0 0 1 .333-.644L7.2 7.51A9 9 0 0 1 15 3m-1 8h-3v2h3v3h2v-3h3v-2h-3V8h-2zM5 7q.375 0 .736.054A10.45 10.45 0 0 0 4.5 12c0 1.788.448 3.472 1.236 4.945Q5.376 17 5 17A5 5 0 0 1 5 7"/></svg>