<svg xmlns="http://www.w3.org/2000/svg" fill="none" viewBox="0 0 16 16"><path fill="#0A0B0D" d="M10.8 7.2h1.866v1.6H10.8v1.867H9.2V8.8H7.333V7.2H9.2V5.334h1.6z"/><path fill="#0A0B0D" d="M10 2a6 6 0 1 1-5.2 8.992 3.3 3.3 0 0 1-1.466.342l-.172-.005A3.334 3.334 0 0 1 0 8l.005-.17A3.334 3.334 0 0 1 4.8 5.006 6 6 0 0 1 10 2m0 1.6a4.4 4.4 0 1 0 0 8.8 4.4 4.4 0 0 0 0-8.8M3.334 6.267a1.734 1.734 0 0 0 0 3.466c.312 0 .603-.084.855-.228A6 6 0 0 1 4 8c0-.52.065-1.025.19-1.506a1.7 1.7 0 0 0-.856-.227"/></svg>