<svg xmlns="http://www.w3.org/2000/svg" fill="none" viewBox="0 0 16 16"><path fill="#0A0B0D" d="M10 2a6 6 0 1 1-5.669 7.967l-.018-.052a6 6 0 0 1-.093-.305l-.016-.054a6 6 0 0 1-.144-.713l-.013-.103a6 6 0 0 1-.027-.268l-.008-.104a6 6 0 0 1 0-.737q.004-.065.01-.128.01-.123.025-.244l.013-.103a6 6 0 0 1 .143-.709l.02-.071q.04-.143.088-.282l.024-.073a6 6 0 0 1 .257-.623l.027-.054.017-.032A6 6 0 0 1 10 2m-.8 3.334V7.2H7.333v1.6H9.2v1.867h1.6V8.8h1.866V7.2H10.8V5.334zm-5.866-.667q.25.001.49.037A7 7 0 0 0 3 8a7 7 0 0 0 .823 3.296q-.24.037-.489.038l-.172-.005A3.334 3.334 0 0 1 0 8l.005-.17a3.334 3.334 0 0 1 3.329-3.163"/></svg>