<svg xmlns="http://www.w3.org/2000/svg" fill="none" viewBox="0 0 12 12"><path fill="#0A0B0D" d="M7.5 1.5a4.5 4.5 0 1 1-4.252 5.975l-.013-.039a5 5 0 0 1-.07-.228l-.012-.041a5 5 0 0 1-.108-.535l-.01-.077a5 5 0 0 1-.02-.201l-.006-.078a5 5 0 0 1 0-.553l.008-.096q.007-.092.018-.183l.01-.077q.038-.27.107-.532l.016-.053q.03-.107.065-.212l.018-.054q.084-.24.193-.467l.02-.041.013-.024A4.5 4.5 0 0 1 7.5 1.5M6.9 4v1.4H5.5v1.2h1.4V8h1.2V6.6h1.4V5.4H8.1V4zm-4.4-.5q.188 0 .367.028A5.2 5.2 0 0 0 2.25 6c0 .894.224 1.735.617 2.472q-.18.027-.367.028l-.128-.003A2.5 2.5 0 0 1 0 6l.004-.128A2.5 2.5 0 0 1 2.5 3.5"/></svg>