<svg xmlns="http://www.w3.org/2000/svg" fill="none" viewBox="0 0 16 16"><path fill="#0A0B0D" d="m13.504 3.464 1.494-.331v8.297h-.004l-.01.213a2.084 2.084 0 0 1-2.073 1.871l-.213-.01c-.98-.1-1.76-.88-1.86-1.861l-.01-.213c0-1.152.932-2.086 2.083-2.086l.213.01q.14.016.274.048V5.128l-4.65 1.034v6.796h-.004l-.009.18c-.119 1.174-1.156 1.918-2.285 1.86a2.085 2.085 0 0 1-1.86-1.86l-.01-.213a2.086 2.086 0 0 1 2.567-2.03V9.472a3.5 3.5 0 0 0-1.578.144V2.007h-1.4v1.799H2.46v1.402h1.709v2.77H2.46v1.401h1.709v1.111a3.5 3.5 0 0 0-.898 1.634H1.002V1.002h12.502zm-6.84 8.777a.684.684 0 1 0 0 1.368.684.684 0 0 0 0-1.368m6.247-1.496a.684.684 0 1 0 0 1.368.684.684 0 0 0 0-1.368M9 4.467l1.4-.312V2.007H9z"/></svg>