<svg xmlns="http://www.w3.org/2000/svg" fill="none" viewBox="0 0 12 12"><path fill="#0A0B0D" d="M11 8.066h-.007q.004.048.005.097l-.01.204a2 2 0 0 1-1.99 1.796l-.204-.011a2 2 0 0 1-1.785-1.785l-.011-.204a2 2 0 0 1 2-2l.204.01q.317.034.599.159V5.044l-4.807.924v2.989L4.996 9l-.01.204a2 2 0 0 1-1.99 1.795l-.204-.01a2 2 0 0 1-1.785-1.785L.997 9a2 2 0 0 1 2-2l.203.01q.316.035.595.157V2.436l.482-.097L11 1zM2.996 8.2a.8.8 0 1 0 0 1.6.8.8 0 0 0 0-1.6m6.002-.837a.8.8 0 1 0 0 1.6.8.8 0 0 0 0-1.6M4.994 3.419v1.328l4.807-.923v-1.36z"/></svg>