<svg xmlns="http://www.w3.org/2000/svg" fill="none" viewBox="0 0 16 16"><path fill="#0A0B0D" d="m13.504 3.462 1.494-.331v8.29h-.004l-.01.213a2.084 2.084 0 0 1-2.073 1.87l-.213-.01c-.98-.1-1.76-.88-1.86-1.86l-.01-.213c0-1.15.932-2.084 2.083-2.084l.213.01q.14.015.274.049V5.125l-.588.13v.054h-.238l-3.825.85v6.79h-.003l-.009.179a2.083 2.083 0 0 1-2.072 1.87l-.213-.01c-.98-.1-1.76-.88-1.86-1.86l-.01-.213c0-.283.057-.553.16-.8H1.001V1.002h12.502zm-6.84 8.77a.684.684 0 1 0 0 1.368.684.684 0 0 0 0-1.369m6.247-1.495a.684.684 0 1 0 0 1.367.684.684 0 0 0 0-1.367m-10.31-.222H3.77V9.372H2.602zm2.568 0h1.978v-5.64l2.19-.486V2.602H5.169zM2.602 7.972H3.77V5.204H2.602zm0-4.168H3.77V2.602H2.602zm8.135-.095h1.167V2.602h-1.167z"/></svg>