<svg xmlns="http://www.w3.org/2000/svg" fill="none" viewBox="0 0 24 24"><path fill="#0A0B0D" d="m22 9-.004.336C21.818 16.36 16.067 22 9 22H2v-7C2 7.933 7.64 2.182 14.664 2.004L15 2h7zm-5.758.17 1.415 1.416L16.242 12l-1.414-1.414L13.414 12l1.414 1.414-1.414 1.414L12 13.414l-1.414 1.414L12 16.242l-1.414 1.415-1.415-1.415L5.414 20H9c6.075 0 11-4.925 11-11V5.414zM15 4C8.925 4 4 8.925 4 15v3.586l3.757-3.758-1.414-1.414L7.758 12l1.414 1.414L10.586 12l-1.414-1.414 1.414-1.414L12 10.586l1.414-1.414L12 7.758l1.414-1.415 1.414 1.414L18.586 4z"/></svg>