<svg xmlns="http://www.w3.org/2000/svg" fill="none" viewBox="0 0 16 16"><path fill="#0A0B0D" d="M14 2.91v5.212C13.466 13.272 8 15 8 15c-.012-.004-5.449-1.857-5.982-7L2 2.91 8 1zm-3.148 1.336c-1-.33-2.067.24-2.388 1.262l-.16.504H6.767l-.032.098-.203.664-.054.181h.188l1.344-.004-.115.37H6.766l-.032.097-.257.845h1.12l-.243.775a.91.91 0 0 1-1.052.634l-.09-.025-.524-.171-.042.135-.254.829.13.042.39.127c1 .327 2.062-.242 2.383-1.262l.754-2.398h.81l.103-.002.03-.098.251-.837h-.9l.061-.195a.906.906 0 0 1 1.144-.608l.464.152.258-.833.04-.13z"/></svg>