<svg xmlns="http://www.w3.org/2000/svg" fill="none" viewBox="0 0 24 24"><path fill="#0A0B0D" d="M12.672 8.415c.489-1.554 2.11-2.418 3.632-1.916l.696.23-.39 1.257-.064.206-.704-.231c-.722-.238-1.503.168-1.74.924l-.093.296h1.368l-.427 1.422h-.157l-1.232.002-1.146 3.644c-.488 1.55-2.104 2.416-3.624 1.92l-.594-.193L8 15.91l.387-1.26.064-.205.205.067.592.193.136.038c.68.147 1.378-.256 1.6-.963l.371-1.178H9.65l.44-1.433h1.716l.175-.56-2.33.006.083-.275.31-1.009.046-.15h2.342z"/><path fill="#0A0B0D" d="M21 4.727v7.447C20.199 19.53 12 22 12 22c-.018-.006-7.92-2.57-8.93-9.66L3.027 12 3 4.727 12 2zM5.005 6.208l.021 5.667c.344 2.863 2.096 4.887 3.968 6.27a15 15 0 0 0 3.028 1.72q.204-.08.46-.194a14.7 14.7 0 0 0 2.554-1.452c1.87-1.337 3.621-3.316 3.964-6.17V6.21l-7-2.121z"/></svg>