<svg xmlns="http://www.w3.org/2000/svg" fill="none" viewBox="0 0 16 16"><path fill="#0A0B0D" d="M8.464 5.507c.321-1.023 1.388-1.592 2.388-1.262l.458.151-.04.131-.258.833-.464-.152a.906.906 0 0 0-1.144.608l-.061.195h.9l-.25.837-.031.098-.104.001-.81.001-.753 2.398c-.32 1.02-1.383 1.589-2.383 1.262l-.39-.127-.13-.043.254-.828.042-.135.524.171.09.025a.91.91 0 0 0 1.052-.634l.244-.775H6.477l.257-.845.032-.098h1.128l.115-.369-1.344.004h-.188l.054-.18.203-.665.032-.098h1.539z"/><path fill="#0A0B0D" d="M14 2.91v5.212C13.466 13.272 8 15 8 15c-.012-.004-5.449-1.857-5.982-7L2 2.91 8 1zm-10.797.875.014 4.132c.232 2.112 1.458 3.58 2.722 4.562a10 10 0 0 0 2.074 1.233q.15-.06.342-.15a9.8 9.8 0 0 0 1.724-1.03c1.262-.947 2.486-2.381 2.72-4.484V3.786L8 2.26z"/></svg>