<svg xmlns="http://www.w3.org/2000/svg" fill="none" viewBox="0 0 12 12"><path fill="#0A0B0D" d="M11 2.363v3.724C10.6 9.765 6.5 11 6.5 11c-.01-.003-4.086-1.326-4.486-5L2 2.363 6.5 1zm-2.28.768c-.78-.257-1.613.186-1.864.982l-.123.393h-1.2l-.024.077-.16.518-.042.14h.147l1.049-.003-.09.287h-.88l-.024.078-.202.658h.875l-.19.603a.71.71 0 0 1-.821.494l-.07-.02-.304-.098-.105-.035-.033.106-.198.646.101.033.304.099c.78.254 1.61-.188 1.86-.984l.587-1.868.631-.002h.081l.024-.077.195-.652h-.701l.048-.152a.707.707 0 0 1 .891-.473l.362.118.033-.105.169-.543.031-.102z"/></svg>