<svg xmlns="http://www.w3.org/2000/svg" fill="none" viewBox="0 0 24 24"><path fill="#0A0B0D" d="M21 4.727v7.447C20.199 19.53 12 22 12 22c-.019-.006-8.173-2.652-8.973-10L3 4.727 12 2zm-4.696 1.771c-1.522-.502-3.143.362-3.632 1.916l-.241.767h-2.342l-.356 1.158-.084.275 2.332-.006-.176.56h-1.716l-.046.15-.394 1.284h1.707l-.372 1.177c-.222.707-.92 1.11-1.6.963l-.136-.037-.592-.193-.205-.068-.064.206L8 15.91l.197.065.594.193c1.52.496 3.136-.368 3.624-1.919l1.146-3.644 1.232-.003h.157l.427-1.421h-1.368l.093-.296c.237-.756 1.018-1.163 1.74-.925l.704.231L17 6.728z"/></svg>