<svg xmlns="http://www.w3.org/2000/svg" fill="none" viewBox="0 0 12 12"><path fill="#0A0B0D" d="M6.856 4.113c.251-.796 1.083-1.24 1.864-.982l.357.118-.031.102-.169.543-.033.105-.362-.118a.707.707 0 0 0-.891.473l-.048.152h.701l-.195.652-.024.077h-.08l-.632.002-.587 1.868c-.25.796-1.08 1.238-1.86.984l-.303-.099-.102-.033.198-.646.033-.106.105.035.305.099.069.02a.71.71 0 0 0 .82-.495l.19-.603h-.874l.202-.658.023-.078h.88l.09-.287-1.048.003h-.147l.043-.14.159-.518.023-.077h1.201z"/><path fill="#0A0B0D" d="M11 2.363v3.724C10.6 9.765 6.5 11 6.5 11c-.009-.003-3.835-1.245-4.438-4.662L2.014 6 2 2.363 6.5 1zm-7.998.74.01 2.828c.17 1.435 1.048 2.449 1.985 3.141a7.5 7.5 0 0 0 1.514.857q.102-.039.23-.093a7.4 7.4 0 0 0 1.278-.727C8.955 8.44 9.829 7.45 10 6.02V3.105l-3.5-1.06z"/></svg>