<svg xmlns="http://www.w3.org/2000/svg" fill="none" viewBox="0 0 16 16"><path fill="#0A0B0D" d="m13.001 4.667-6.4 2.8V8.9Q7.277 8.835 8 8.834l.343.003c3.522.08 6.323 1.392 6.323 2.997l-.008.154c-.18 1.585-3.092 2.845-6.658 2.845l-.343-.004c-3.522-.08-6.323-1.39-6.324-2.995 0-1.171 1.492-2.186 3.667-2.68V1.167zM8 10.433c-.489 0-.957.03-1.4.078v2.644c.443.048.911.078 1.4.078 1.668 0 3.1-.307 4.057-.737.675-.304.901-.557.976-.663-.075-.106-.302-.358-.976-.661-.956-.43-2.39-.739-4.057-.739m-3 .372a7 7 0 0 0-1.057.367c-.675.303-.902.555-.977.66.074.106.3.36.977.664.306.138.662.259 1.057.365zM6.6 5.72l2.41-1.053L6.6 3.613z"/></svg>