<svg xmlns="http://www.w3.org/2000/svg" fill="none" viewBox="0 0 24 24"><path fill="#0A0B0D" d="m19 7-9 4.09v2q.97-.09 2-.09c5.523 0 10 2.015 10 4.5S17.523 22 12 22 2 19.985 2 17.5c0-1.845 2.468-3.43 6-4.125V2zm-7 8c-.694 0-1.364.035-2 .1v4.8c.636.064 1.306.1 2 .1 2.545 0 4.753-.468 6.25-1.142.75-.337 1.236-.688 1.507-.976a1.2 1.2 0 0 0 .22-.303c.024-.055.023-.077.023-.079s.001-.024-.023-.08a1.2 1.2 0 0 0-.22-.302c-.271-.288-.757-.639-1.507-.976C16.753 15.468 14.545 15 12 15m-4 .418c-.858.191-1.618.44-2.25.724-.75.337-1.236.688-1.507.976a1.2 1.2 0 0 0-.22.303C4 17.476 4 17.498 4 17.5s-.001.024.023.08c.028.06.09.163.22.302.271.288.756.639 1.507.976.632.285 1.392.532 2.25.723zm2-6.523L14.168 7 10 5.104z"/></svg>