<svg xmlns="http://www.w3.org/2000/svg" fill="none" viewBox="0 0 12 12"><path fill="#0A0B0D" d="m10 3.5-4.8 2v1.031q.39-.03.8-.031c2.761 0 5 1.007 5 2.25S8.761 11 6 11 1 9.993 1 8.75c0-.923 1.234-1.715 3-2.062V1zM6 7.7q-.415 0-.8.033v2.033c.256.02.524.034.8.034 1.251 0 2.326-.23 3.043-.553.503-.226.672-.417.728-.497-.056-.08-.225-.27-.728-.497C8.326 7.93 7.251 7.7 6 7.7m-2 .215a5.6 5.6 0 0 0-1.043.338c-.504.227-.673.417-.73.497.057.08.226.27.73.497.292.132.644.246 1.043.337zm1.2-3.716L6.88 3.5 5.2 2.8z"/></svg>