<svg xmlns="http://www.w3.org/2000/svg" fill="none" viewBox="0 0 16 16"><path fill="#0A0B0D" d="M8 5.2a2.8 2.8 0 1 1 0 5.6 2.8 2.8 0 0 1 0-5.6m0 1.6a1.2 1.2 0 1 0 0 2.4 1.2 1.2 0 0 0 0-2.4"/><path fill="#0A0B0D" d="M8 2.576A5.6 5.6 0 0 1 15 8h-1.576q.174.672.176 1.4A5.6 5.6 0 0 1 8 15v-1.576A5.6 5.6 0 0 1 1 8h1.576A5.6 5.6 0 0 1 8 1zm-1.6.357A4 4 0 0 0 4 6.6l.009.258q.025.386.117.743L4.64 9.6H2.934A4 4 0 0 0 6.6 12l.258-.009q.386-.025.743-.117L9.6 11.36v1.706a4 4 0 0 0 2.274-4.668L11.36 6.4h1.706a4 4 0 0 0-3.46-2.394L9.398 4q-.524.001-1 .126L6.4 4.64z"/></svg>