<svg xmlns="http://www.w3.org/2000/svg" fill="none" viewBox="0 0 24 24"><path fill="#0A0B0D" d="M12 8a4 4 0 1 1 0 8 4 4 0 0 1 0-8m0 2a2 2 0 1 0 0 4 2 2 0 0 0 0-4"/><path fill="#0A0B0D" d="M12 4.252A8 8 0 0 1 22 12h-2.252A8 8 0 0 1 12 22v-2.253A8 8 0 0 1 2 12h2.252A8 8 0 0 1 12 2zm-2 .09C7.67 5.166 6 7.388 6 10l.013.388q.037.576.175 1.114L6.832 14h-2.49a6 6 0 0 0 7.159 3.81L14 17.168v2.49a6 6 0 0 0 3.811-7.159L17.168 10h2.49a6 6 0 0 0-5.35-3.992L14 6c-.521 0-1.024.066-1.502.188L10 6.832z"/></svg>