<svg xmlns="http://www.w3.org/2000/svg" fill="none" viewBox="0 0 24 24"><path fill="#0A0B0D" d="M12.175 12.34h3.146l-3.146 5.903v-4.216H8.68l3.495-5.777z"/><path fill="#0A0B0D" d="M14.05 3.999H13v1.073a8.46 8.46 0 0 1 4.197 1.716l1.338-1.264 1.375 1.453-1.284 1.212a8.45 8.45 0 0 1 1.874 5.318l-.01.436A8.5 8.5 0 0 1 12 22a8.5 8.5 0 0 1-8.49-8.057l-.01-.436c0-4.353 3.277-7.94 7.5-8.435V4H9.95V2h4.1zM12 7.013a6.497 6.497 0 0 0-6.5 6.494A6.497 6.497 0 0 0 12 20c3.591 0 6.5-2.908 6.5-6.493A6.497 6.497 0 0 0 12 7.013"/></svg>