<svg xmlns="http://www.w3.org/2000/svg" fill="none" viewBox="0 0 16 16"><path fill="#0A0B0D" d="M10.125 10.667H12L8.876 14v-2.666H7L10.125 8z"/><path fill="#0A0B0D" d="M6.25 2c2.29 0 4.237 1.397 4.954 3.345q.147-.012.297-.011c1.933 0 3.5 1.492 3.5 3.333 0 1.33-.817 2.476-2 3.01V9.726c.218-.26.356-.57.391-.893l.01-.165c0-.83-.683-1.627-1.695-1.724l-.206-.01q-.087 0-.17.007l-1.209.097-.419-1.139c-.45-1.22-1.651-2.172-3.15-2.286L6.25 3.6C4.158 3.6 2.598 5.195 2.598 7c0 1.732 1.438 3.27 3.403 3.392v1.601C3.216 11.87.998 9.682.998 7c0-2.762 2.352-5 5.252-5"/></svg>