<svg xmlns="http://www.w3.org/2000/svg" fill="none" viewBox="0 0 24 24"><path fill="#0A0B0D" d="M12 7a3 3 0 1 0 0 6 3 3 0 0 0 0-6m0 2a1 1 0 1 1 0 2 1 1 0 0 1 0-2"/><path fill="#0A0B0D" d="M5.752 14.376C-.485 6.203 11.412-2.76 18.29 4.933c2.316 2.801 2.233 6.683.042 9.384v.01c-.021.026-6.177 7.684-6.268 7.673 0 0-6.25-7.573-6.31-7.624M16.765 6.23c-2.646-2.926-6.125-2.685-8.46-.927-1.18.89-1.983 2.118-2.226 3.433-.233 1.261.016 2.774 1.235 4.39l.039.045.209.25.72.867a2628 2628 0 0 1 3.792 4.586c.483-.59 1.037-1.265 1.588-1.946.78-.96 1.557-1.925 2.14-2.648l.53-.659v-.012l.445-.551c1.603-1.976 1.662-4.784-.012-6.828"/></svg>