<svg xmlns="http://www.w3.org/2000/svg" fill="none" viewBox="0 0 16 16"><path fill="#0A0B0D" d="M8 4.5a2 2 0 1 1 0 4 2 2 0 0 1 0-4m0 1.4a.6.6 0 1 0 0 1.2.6.6 0 0 0 0-1.2"/><path fill="#0A0B0D" d="M3.704 9.663c-4.287-5.721 3.892-11.995 8.62-6.61a5.22 5.22 0 0 1 .029 6.568v.007c-.033.042-4.258 5.393-4.31 5.372 0 0-4.33-5.343-4.339-5.337M11.1 4.084c-1.73-1.948-3.974-1.786-5.493-.621-.772.593-1.296 1.41-1.455 2.282-.15.83.006 1.836.807 2.922l.028.034.145.176.495.608c.408.5.95 1.168 1.492 1.835l.932 1.149c.285-.355.598-.744.909-1.136.535-.672 1.07-1.346 1.47-1.852l.323-.409v-.01l.349-.438a3.62 3.62 0 0 0-.002-4.54"/></svg>