<svg xmlns="http://www.w3.org/2000/svg" fill="none" viewBox="0 0 12 12"><path fill="#0A0B0D" d="M6 4a1 1 0 1 1 0 2 1 1 0 0 1 0-2"/><path fill="#0A0B0D" d="M2.876 7.188C-.242 3.102 5.706-1.38 9.145 2.467a3.68 3.68 0 0 1 .02 4.69v.006c-.036.045-3.093 3.846-3.134 3.835-.022-.026-3.127-3.787-3.155-3.81m5.355-3.942c-1.244-1.371-2.862-1.26-3.957-.434-.556.418-.926.99-1.038 1.591-.105.57.002 1.27.579 2.036l.014.017.106.125.36.434c.297.357.691.835 1.085 1.311l.656.794c.201-.246.421-.514.64-.784l1.07-1.323q.121-.154.219-.274v-.007l.268-.33a2.48 2.48 0 0 0-.002-3.156"/></svg>