<svg xmlns="http://www.w3.org/2000/svg" fill="none" viewBox="0 0 12 12"><path fill="#0A0B0D" d="M6 2.948 7.181 1h3.82L8.898 5.156q.046.062.09.126a3.7 3.7 0 0 1 .34.622 3.6 3.6 0 0 1 .288 1.428c0 .57-.13 1.109-.362 1.59a3.7 3.7 0 0 1-1.716 1.717 3.65 3.65 0 0 1-1.965.342 3.65 3.65 0 0 1-2.564-1.455 3.65 3.65 0 0 1-.729-2.194c0-.852.291-1.636.78-2.259L1 1h3.82zm-.052 1.696a2.689 2.689 0 1 0 0 5.378 2.689 2.689 0 0 0 0-5.378m.514 1.958 1.082.19-.763.79.153 1.087-.986-.482-.987.482.154-1.088-.764-.789 1.082-.19.515-.97z"/></svg>