<svg xmlns="http://www.w3.org/2000/svg" fill="none" viewBox="0 0 16 16"><path fill="#0A0B0D" d="M8 3.728 9.652 1H15l-2.943 5.817A5.1 5.1 0 0 1 12.75 8.1a5 5 0 0 1 .286 1.24 5.2 5.2 0 0 1-.204 2.052 5.15 5.15 0 0 1-3.378 3.378 5 5 0 0 1-1.262.223L7.926 15a5.2 5.2 0 0 1-1.283-.162 5.1 5.1 0 0 1-1.788-.858 5.12 5.12 0 0 1-2.063-4.114 5.1 5.1 0 0 1 1.092-3.163L1 1h5.348zm-.074 2.374a3.764 3.764 0 1 0 .001 7.528 3.764 3.764 0 0 0 0-7.528m.721 2.742 1.515.265-1.069 1.106.214 1.521-1.38-.674-1.382.674.214-1.521-1.068-1.106 1.515-.265.72-1.359z"/></svg>