<svg xmlns="http://www.w3.org/2000/svg" fill="none" viewBox="0 0 16 16"><path fill="#0A0B0D" d="M10.009.5a4.153 4.153 0 0 1 0 8.304l-.065-.002-5.23 3.97-.007.007a1.47 1.47 0 0 1-1.261.234 1 1 0 0 0 .047.265c.105.335.341.558.629.604.357.058.752-.093 1.407-.431.552-.285 1.373-.76 2.265-.76 1.065 0 1.927.367 2.643.817a.803.803 0 0 1-.856 1.36c-.55-.345-1.117-.57-1.787-.57-.411 0-.835.222-1.529.58-.59.306-1.444.744-2.397.591-1.024-.164-1.666-.935-1.909-1.709-.175-.556-.183-1.261.139-1.839a1.42 1.42 0 0 1 .034-1.665L5.899 5.25A4.153 4.153 0 0 1 10.009.5M3.513 11.094l.33.32 4.137-3.14a4.2 4.2 0 0 1-1.39-1.268zm6.496-8.988a2.545 2.545 0 1 0 0 5.09 2.545 2.545 0 0 0 0-5.09"/></svg>