<svg xmlns="http://www.w3.org/2000/svg" fill="none" viewBox="0 0 12 12"><path fill="#0A0B0D" d="M7.474.5a3.045 3.045 0 0 1 0 6.089l-.046-.002L3.59 9.5l-.005.004a1.08 1.08 0 0 1-.926.17.7.7 0 0 0 .035.196c.078.246.251.41.462.443.262.042.55-.07 1.03-.317.405-.209 1.008-.557 1.662-.557.78 0 1.413.269 1.938.599a.59.59 0 0 1-.628.999c-.403-.254-.819-.419-1.31-.42-.302.001-.612.164-1.12.427-.434.223-1.06.545-1.758.433-.751-.12-1.222-.686-1.4-1.254-.129-.408-.135-.926.102-1.35a1.04 1.04 0 0 1 .025-1.219l2.762-3.67A3.045 3.045 0 0 1 7.474.5M2.71 8.268l.242.236L5.986 6.2a3.06 3.06 0 0 1-1.02-.93zm4.764-6.59a1.868 1.868 0 0 0 0 3.733 1.867 1.867 0 0 0 0-3.734"/></svg>