<svg xmlns="http://www.w3.org/2000/svg" fill="none" viewBox="0 0 24 24"><path fill="#0A0B0D" d="M8.289 8.991a7.01 7.01 0 0 0 5.395 4.883l-6.71 5.093-.01.007a2 2 0 0 1-1.945.238c-.036.195-.03.442.06.728.175.555.58.957 1.1 1.04.608.098 1.254-.164 2.223-.665.841-.434 2.019-1.11 3.29-1.11 1.542 0 2.792.529 3.84 1.188a1 1 0 0 1-1.065 1.693c-.842-.53-1.724-.882-2.775-.882-.673 0-1.354.362-2.372.888-.89.46-2.107 1.08-3.457.863-1.437-.23-2.346-1.314-2.692-2.415-.26-.832-.252-1.874.26-2.695a1.93 1.93 0 0 1-.415-1.044 1.93 1.93 0 0 1 .384-1.312zM15 2a5 5 0 0 1 0 10l-.229-.005a5 5 0 0 1-.247-.018l-.134-.016-.102-.013a5 5 0 0 1-.388-.071l-.033-.008a5 5 0 0 1-3.408-2.776l-.019-.042a5 5 0 0 1-.3-.874l-.018-.077A5 5 0 0 1 15 2"/></svg>