<svg xmlns="http://www.w3.org/2000/svg" fill="none" viewBox="0 0 16 16"><path fill="#0A0B0D" d="M5.343 6.094a4.84 4.84 0 0 0 3.68 3.346l-4.352 3.304-.007.005a1.42 1.42 0 0 1-1.225.223 1 1 0 0 0 .047.316c.105.333.34.555.626.601.356.057.75-.093 1.4-.43.55-.283 1.368-.755 2.255-.756 1.06 0 1.919.366 2.631.814a.8.8 0 0 1-.852 1.355c-.547-.345-1.112-.568-1.78-.568-.408 0-.83.221-1.52.577-.588.304-1.438.74-2.387.588-1.018-.163-1.657-.931-1.9-1.701-.178-.569-.18-1.294.168-1.877a1.4 1.4 0 0 1-.228-.65 1.37 1.37 0 0 1 .273-.931zm4.629-4.727a3.334 3.334 0 1 1-3.14 4.454l-.02-.057-.034-.105-.021-.077-.025-.099-.017-.07-.022-.109-.012-.07a3.334 3.334 0 0 1 3.291-3.867"/></svg>