<svg xmlns="http://www.w3.org/2000/svg" fill="none" viewBox="0 0 24 24"><path fill="#0A0B0D" d="M14.999 1a6 6 0 0 1 0 12q-.08-.001-.158-.005l-7.869 5.972-.008.007a2 2 0 0 1-1.946.238c-.036.196-.03.442.06.729.175.555.58.956 1.1 1.04.608.097 1.254-.165 2.223-.665.842-.435 2.019-1.111 3.29-1.112 1.542 0 2.792.53 3.84 1.189a1 1 0 0 1-1.064 1.693c-.843-.53-1.725-.882-2.776-.882-.673 0-1.354.363-2.372.888-.89.46-2.107 1.08-3.457.863-1.437-.23-2.345-1.314-2.691-2.415-.262-.832-.254-1.875.258-2.696a1.93 1.93 0 0 1-.414-1.043A1.93 1.93 0 0 1 3.4 15.49l5.675-7.542A6 6 0 0 1 14.999 1M5.035 16.64l.742.722 6.566-4.982a6 6 0 0 1-2.438-2.21zM14.999 3a4 4 0 1 0 0 8.001 4 4 0 0 0 0-8"/></svg>