<svg xmlns="http://www.w3.org/2000/svg" fill="none" viewBox="0 0 12 12"><path fill="#0A0B0D" d="M4.09 4.442a3.57 3.57 0 0 0 2.805 2.544L3.606 9.483l-.005.004a1.09 1.09 0 0 1-.933.173.8.8 0 0 0 .036.197c.078.247.252.412.465.446.264.043.556-.07 1.04-.32.408-.21 1.015-.56 1.674-.56.788 0 1.427.27 1.956.603a.596.596 0 0 1-.633 1.007c-.407-.256-.827-.422-1.323-.422-.303 0-.616.164-1.128.429-.437.225-1.069.55-1.774.437-.757-.122-1.232-.692-1.412-1.264-.13-.412-.136-.934.102-1.36a1.05 1.05 0 0 1 .027-1.231zM7.522 1a2.475 2.475 0 0 1 .188 4.943q-.093.01-.188.01L7.27 5.94a2.5 2.5 0 0 1-.488-.1l-.028-.01a2.48 2.48 0 0 1-1.67-1.937l-.008-.052A2.477 2.477 0 0 1 7.523 1"/></svg>