<svg xmlns="http://www.w3.org/2000/svg" fill="none" viewBox="0 0 24 24"><path fill="#0A0B0D" d="M17 13.676h-2v-4h2z"/><path fill="#0A0B0D" d="M13.034 2.676C17.95 2.676 22 6.659 22 11.59a8.916 8.916 0 0 1-7.93 8.86l-7.63.85a4 4 0 0 1-4.435-3.754L2 17.324v-2.855l.081-.189 2.655-6.165c1.424-3.305 4.71-5.44 8.298-5.44m0 2a7.07 7.07 0 0 0-4.92 2h2.193a3 3 0 0 1 2.872 3.867l-.906 3a3 3 0 0 1-2.872 2.133H4v1.648l.012.22A2 2 0 0 0 6.22 19.31l7.628-.847A6.915 6.915 0 0 0 20 11.59c0-3.811-3.139-6.915-6.966-6.915m-6.46 4.23-2.054 4.77H9.4a1 1 0 0 0 .957-.711l.907-3a1 1 0 0 0-.958-1.29h-3.63a7 7 0 0 0-.104.231"/></svg>