<svg xmlns="http://www.w3.org/2000/svg" fill="none" viewBox="0 0 12 12"><path fill="#0A0B0D" d="M8.8 6.85H7.6v-2h1.2z"/><path fill="#0A0B0D" d="M6.508 1.25C8.97 1.25 11 3.28 11 5.796c0 2.316-1.712 4.263-3.975 4.519l-3.74.422C2.065 10.875 1 9.903 1 8.655V7.211l1.349-3.188A4.53 4.53 0 0 1 6.508 1.25m0 1.196a3.33 3.33 0 0 0-2.161.804h.906a1.6 1.6 0 0 1 1.532 2.063l-.453 1.5a1.6 1.6 0 0 1-1.531 1.136H2.176v.706a.89.89 0 0 0 .98.893l3.74-.423c1.667-.189 2.928-1.623 2.928-3.33 0-1.844-1.494-3.348-3.316-3.349M3.43 4.497 2.476 6.75H4.8a.4.4 0 0 0 .383-.285l.452-1.5a.4.4 0 0 0-.383-.516h-1.8z"/></svg>