<svg xmlns="http://www.w3.org/2000/svg" fill="none" viewBox="0 0 16 16"><path fill="#0A0B0D" d="M11.59 9.147h-1.6V6.48h1.6z"/><path fill="#0A0B0D" d="M8.713 1.5C12.16 1.5 15 4.277 15 7.717c0 3.167-2.395 5.829-5.561 6.179l-5.325.586C2.454 14.667 1 13.375 1 11.714v-2.05l.065-.15 1.829-4.222C3.892 2.987 6.196 1.5 8.713 1.5m0 1.593a4.77 4.77 0 0 0-3.36 1.386h1.508a2 2 0 0 1 1.915 2.578l-.603 2a2 2 0 0 1-1.915 1.422H2.602v1.234A1.2 1.2 0 0 0 3.937 12.9l5.324-.588c2.355-.26 4.137-2.24 4.138-4.595 0-2.547-2.111-4.624-4.686-4.624M4.365 5.922 2.968 9.146h3.29a.67.67 0 0 0 .638-.474l.604-2a.667.667 0 0 0-.639-.86H4.418z"/></svg>