<svg xmlns="http://www.w3.org/2000/svg" fill="none" viewBox="0 0 24 24"><path fill="#0A0B0D" fill-rule="evenodd" d="M11.09 4q.462 0 .91.045V13h8c0 4.648-3.504 8.468-8 8.945v.01q-.449.044-.91.045C6.07 22 2 17.97 2 13s4.07-9 9.09-9M10 6.082C6.588 6.601 4 9.516 4 13c0 3.847 3.156 7 7.09 7l.355-.01.073-.006.271-.028c2.813-.299 5.134-2.292 5.922-4.956H10z" clip-rule="evenodd"/><path fill="#0A0B0D" fill-rule="evenodd" d="M14 2c4.492.454 8 4.31 8 9h-8zm2 7h3.719A7.02 7.02 0 0 0 16 4.604z" clip-rule="evenodd"/></svg>