<svg xmlns="http://www.w3.org/2000/svg" fill="none" viewBox="0 0 12 12"><path fill="#0A0B0D" fill-rule="evenodd" d="M5.484 2q.262 0 .516.03V6h4c0 2.762-2.004 5-4.476 5l-.024-.001-.016.001A4.493 4.493 0 0 1 1 6.5C1 4.015 3.008 2 5.484 2m-.097 7.804h-.005.008l.004-.001zM4.8 3.27a3.3 3.3 0 0 0-2.596 3.06L2.2 6.5a3.29 3.29 0 0 0 3.274 3.299h.062c1.36-.006 2.654-1.032 3.1-2.599H4.8z" clip-rule="evenodd"/><path fill="#0A0B0D" fill-rule="evenodd" d="M7 1c2.246.202 4 1.915 4 4H7zm1.2 2.8h1.285A3 3 0 0 0 8.2 2.57z" clip-rule="evenodd"/></svg>