<svg xmlns="http://www.w3.org/2000/svg" fill="none" viewBox="0 0 16 16"><path fill="#0A0B0D" fill-rule="evenodd" d="M7.478 2Q7.74 2 8 2.021V8.5h6c0 3.495-2.743 6.345-6.183 6.493l-.003-.004a6 6 0 0 1-.336.012C3.9 15 1 12.09 1 8.5S3.9 2 7.478 2M6.4 3.72a4.895 4.895 0 0 0-3.794 4.527L2.6 8.5c0 2.711 2.19 4.9 4.878 4.9.066 0 .142-.004.244-.01l.298-.017a4.88 4.88 0 0 0 4.114-3.274H6.4z" clip-rule="evenodd"/><path fill="#0A0B0D" fill-rule="evenodd" d="M9 1.5c3.369.302 6 2.873 6 6H9zm1.6 4.4h2.454c-.45-1.007-1.313-1.865-2.454-2.365z" clip-rule="evenodd"/></svg>