<svg xmlns="http://www.w3.org/2000/svg" fill="none" viewBox="0 0 24 24"><path fill="#0A0B0D" d="M16.239 4.918a4.47 4.47 0 0 1 4.901-.456l.191.118a1.69 1.69 0 0 1 .284 2.527l-.16.156L18.41 9.86l.154 5.529a2.8 2.8 0 0 1-1.277 2.413l-3.251 2.134-1.05-5.444-2.434 2.076-.572.513a4.375 4.375 0 0 1-5.313.371l-3.609-2.401 1.857-1.977 3.07.127 3.234-2.613-5.47-1.647L6.85 6.15a1.94 1.94 0 0 1 1.632-.462l5.577.99zm3.994 1.058a2.63 2.63 0 0 0-2.845.288L6.598 14.98l-.347-.014-2.276-.095 1.708 1.136a2.54 2.54 0 0 0 2.802-.003l.278-.237 5.41-4.616 1.125 5.843.981-.643a1.06 1.06 0 0 0 .485-.915l-.176-6.349.317-.271zM8.072 7.436l-.812.73 3.435 1.033 1.323-1.104-3.86-.684a.1.1 0 0 0-.086.024"/></svg>