<svg xmlns="http://www.w3.org/2000/svg" fill="none" viewBox="0 0 12 12"><path fill="#0A0B0D" d="M7.786 2.675a2.1 2.1 0 0 1 2.373-.229.92.92 0 0 1 .161 1.487L8.922 5.177l.059 2.178a2.34 2.34 0 0 1-1.01 1.99l-1.22.835-.488-2.636-1.004.892-.3.281a2.054 2.054 0 0 1-2.576.187L.626 7.684l.95-1.052.23.01 1.208.052L4.4 5.527l-2.547-.8 1.385-1.299a1.38 1.38 0 0 1 1.197-.353l2.359.436zm1.777.595a1.12 1.12 0 0 0-1.144.178L3.353 7.715 2.36 7.67l.583.406c.369.255.848.252 1.21.008l2.764-2.457.53 2.863c.351-.256.557-.67.546-1.11l-.065-2.413-.006-.236.174-.155zm-5.307.792a.4.4 0 0 0-.347.102l-.127.119 1.442.453.47-.408z"/></svg>