<svg xmlns="http://www.w3.org/2000/svg" fill="none" viewBox="0 0 16 16"><path fill="#0A0B0D" d="M10.612 3.564a2.92 2.92 0 0 1 3.314-.224 1.31 1.31 0 0 1 .169 2.12l-1.95 1.637-.005 3.27a2.7 2.7 0 0 1-1.09 2.17l-.14.097-2.014 1.294-.565-3.625-1.4 1.177-.374.33a2.86 2.86 0 0 1-3.386.298l-.209-.14-2.404-1.775 1.392-1.46 1.974.145 1.868-1.485-3.458-1.197 2.108-1.87c.4-.353.942-.497 1.461-.385l3.33.718zm2.36.933a1.49 1.49 0 0 0-1.469.222l-6.906 5.488-.219.174-1.228-.089.662.489.104.07c.47.287 1.061.276 1.52-.021l.176-.147L9.364 7.53l.617 3.963.154-.098.124-.092a1.23 1.23 0 0 0 .437-.939l.007-3.959.26-.22zm-7.368.88a.24.24 0 0 0-.21.055l-.222.196 1.866.647.568-.468z"/></svg>