<svg xmlns="http://www.w3.org/2000/svg" fill="none" viewBox="0 0 12 12"><path fill="#0A0B0D" d="M7.584 1a2.6 2.6 0 0 1 2.59 2.843l-.02.147-.086.571c.549.247.931.798.931 1.439l-.007.16a1.58 1.58 0 0 1-1.383 1.404c-.09.494-.279.967-.562 1.384l-.464.683a3.12 3.12 0 0 1-2.39 1.363L6 10.999a3.12 3.12 0 0 1-2.583-1.368l-.464-.683a3.6 3.6 0 0 1-.564-1.384 1.58 1.58 0 0 1-1.38-1.403L1 6c0-.64.383-1.192.931-1.439l-.086-.571A2.6 2.6 0 0 1 4.415 1zM4.47 4.53l-.176.177H3.167l.138.915h-.727A.38.38 0 0 0 2.2 6c0 .207.17.377.378.377h.841l.138.909c.054.353.187.692.388.988l.465.684a1.924 1.924 0 0 0 3.18 0l.465-.684c.2-.296.333-.634.387-.988l.138-.909h.842L9.5 6.37a.379.379 0 0 0 0-.74l-.077-.008h-.727l.139-.915h-2.73l-1.208-.604zm2.746 2.654a1.217 1.217 0 0 1-2.431 0zM4.75 5.248a.606.606 0 1 1-.001 1.211.606.606 0 0 1 0-1.211m2.596 0a.605.605 0 1 1-.001 1.21.605.605 0 0 1 .001-1.21M4.415 2.2a1.4 1.4 0 0 0-1.396 1.307h.778l.864-.864 1.728.864h2.594A1.4 1.4 0 0 0 7.584 2.2z"/></svg>