<svg xmlns="http://www.w3.org/2000/svg" fill="none" viewBox="0 0 16 16"><path fill="#0A0B0D" d="m8.054 5.915.137.07h5.494L13.683 6a2.178 2.178 0 0 1-.631 4.166l-.026.168a3.8 3.8 0 0 1-.613 1.564l-.976 1.437A3.8 3.8 0 0 1 8.295 15h-.588A3.8 3.8 0 0 1 4.7 13.526l-.138-.19-.975-1.437a3.8 3.8 0 0 1-.575-1.355l-.038-.209-.027-.168a2.179 2.179 0 0 1-.632-4.166l-.002-.017h3.2l.893-.893zm-1.432 4.48a1.378 1.378 0 0 0 2.756 0zM7.655 7.64l-.343 2.065h1.376L8.344 7.64zm-1.721-.69a.69.69 0 1 0 0 1.379.69.69 0 0 0 0-1.379m4.132 0a.688.688 0 1 0 0 1.377.688.688 0 0 0 0-1.377M10.021 1a3.8 3.8 0 0 1 3.798 3.684H8.498L6.149 3.51 4.975 4.685H2.18A3.8 3.8 0 0 1 5.978 1z"/></svg>