<svg xmlns="http://www.w3.org/2000/svg" fill="none" viewBox="0 0 24 24"><path fill="#0A0B0D" d="M12.265 8.5h7.912l-.107.7a2.999 2.999 0 0 1-.879 5.793l-.101.674a4 4 0 0 1-.645 1.647l-1.992 2.933a4 4 0 0 1-3.061 1.745l-.247.008h-2.29a4 4 0 0 1-3.308-1.753l-1.992-2.933a4 4 0 0 1-.645-1.647l-.102-.674a3 3 0 0 1-.88-5.794L3.823 8.5h4.593l1.283-1.283zM10 15a2 2 0 1 0 4 0zm1-1h2l-.5-3h-1zm-2-4a1 1 0 1 0 0 2 1 1 0 0 0 0-2m6 0a1 1 0 1 0 0 2 1 1 0 0 0 0-2m.348-8c2.63 0 4.728 2.013 4.974 4.5h-7.586L9.303 4.783 7.586 6.5H3.678C3.924 4.013 6.022 2 8.652 2z"/></svg>