<svg xmlns="http://www.w3.org/2000/svg" fill="none" viewBox="0 0 16 16"><path fill="#0A0B0D" d="M10.022 1a3.8 3.8 0 0 1 3.756 4.37l-.095.63a2.179 2.179 0 0 1-.631 4.166l-.026.168a3.8 3.8 0 0 1-.613 1.564l-.976 1.437a3.8 3.8 0 0 1-3.143 1.664h-.588A3.8 3.8 0 0 1 4.7 13.526l-.138-.19-.975-1.437a3.8 3.8 0 0 1-.575-1.355l-.038-.21-.027-.168A2.178 2.178 0 0 1 2.315 6l-.094-.63A3.8 3.8 0 0 1 5.978 1zM5.575 6.132h-1.62l.056.37.14.92h-.973A.58.58 0 0 0 2.6 8l.011.117a.58.58 0 0 0 .567.462h1.147l.23 1.514.05.24c.064.237.168.463.306.666l.975 1.437.08.11a2.2 2.2 0 0 0 1.74.854h.588l.136-.005a2.2 2.2 0 0 0 1.683-.959l.976-1.437c.184-.271.306-.581.355-.906l.23-1.514h1.148l.117-.012A.58.58 0 0 0 13.4 8l-.011-.116a.58.58 0 0 0-.45-.45l-.117-.012h-.973l.14-.92.055-.37H8.155l-.169-.084-1.551-.776zm3.803 3.935a1.378 1.378 0 0 1-2.756 0zm-.69-.69H7.312l.343-2.065h.689zM5.933 6.623a.69.69 0 0 1 0 1.377.69.69 0 0 1 0-1.377m4.133 0A.69.69 0 1 1 10.065 8a.69.69 0 0 1 .001-1.378M5.978 2.6c-1.14 0-2.05.86-2.181 1.933h1.116l.799-.8.407-.407 2.415 1.207h3.668a2.2 2.2 0 0 0-2.18-1.933z"/></svg>