<svg xmlns="http://www.w3.org/2000/svg" fill="none" viewBox="0 0 24 24"><path fill="#0A0B0D" d="M15.348 2a5 5 0 0 1 4.943 5.749l-.22 1.45a2.999 2.999 0 0 1-.88 5.794l-.101.674a4 4 0 0 1-.645 1.647l-1.992 2.933a4 4 0 0 1-3.061 1.745l-.247.008h-2.29a4 4 0 0 1-3.308-1.753l-1.992-2.933a4 4 0 0 1-.645-1.647l-.102-.674a3 3 0 0 1-.88-5.794L3.71 7.75A5 5 0 0 1 8.652 2zM8.414 8.5h-2.57l.38 2.5H5a1 1 0 1 0 0 2h1.527l.36 2.366c.045.296.155.578.322.824l1.992 2.934a2 2 0 0 0 1.654.876h2.29l.124-.004a2 2 0 0 0 1.53-.872l1.992-2.934c.167-.246.277-.528.322-.824l.36-2.366H19a1 1 0 1 0 0-2h-1.225l.38-2.5h-5.891L9.697 7.217zM14 15a2 2 0 1 1-4 0zm-1-1h-2l.5-3h1zm-4-4a1 1 0 1 1 0 2 1 1 0 0 1 0-2m6 0a1 1 0 1 1 0 2 1 1 0 0 1 0-2M8.652 4a3 3 0 0 0-2.959 2.5h1.893l1.717-1.717L12.736 6.5h5.57A3 3 0 0 0 15.349 4z"/></svg>