<svg xmlns="http://www.w3.org/2000/svg" fill="none" viewBox="0 0 12 12"><path fill="#0A0B0D" d="M6.128 4.33h3.976l-.035.232c.549.248.932.798.932 1.439l-.008.161A1.58 1.58 0 0 1 9.61 7.565a3.6 3.6 0 0 1-.561 1.384l-.465.684a3.13 3.13 0 0 1-2.39 1.362l-.193.006c-1.034 0-2-.513-2.582-1.368l-.465-.684a3.6 3.6 0 0 1-.563-1.384A1.58 1.58 0 0 1 1.01 6.162L1 6.001c0-.64.383-1.191.932-1.439l-.036-.233h2.356l.625-.625zM4.784 7.183a1.216 1.216 0 0 0 2.432 0zM4.75 5.248a.605.605 0 1 0 0 1.21.605.605 0 0 0 0-1.21m2.596 0a.604.604 0 1 0 0 1.209.604.604 0 0 0 0-1.209m.24-4.247a2.6 2.6 0 0 1 2.585 2.328H6.364l-1.683-.842-.842.842H1.83a2.6 2.6 0 0 1 2.586-2.328z"/></svg>