<svg xmlns="http://www.w3.org/2000/svg" fill="none" viewBox="0 0 24 24"><path fill="#0A0B0D" d="M14.516 6.324h.984a6.5 6.5 0 0 1 6.5 6.5v1.351l-.01.357a6.5 6.5 0 0 1-6.75 6.139l-.356-.025-2.736-.26a6.5 6.5 0 0 0-1.296.006l-1.671.176-.359.028a6.5 6.5 0 0 1-6.812-6.133L2 14.104v-1.28a6.5 6.5 0 0 1 6.165-6.491l.335-.01h.984l-.984-3L12 6.182l3.5-2.857zm-6.016 2a4.5 4.5 0 0 0-4.494 4.268L4 12.824v1.28a4.5 4.5 0 0 0 4.97 4.475l1.673-.176a8.5 8.5 0 0 1 1.695-.009l2.735.26A4.5 4.5 0 0 0 20 14.176v-1.351a4.5 4.5 0 0 0-4.5-4.5h-1.25l1.75 3-4-1.714-4 1.714 1.75-3z"/></svg>