<svg xmlns="http://www.w3.org/2000/svg" fill="none" viewBox="0 0 12 12"><path fill="#0A0B0D" d="M7 2.418C7.023 2.386 8.018 1 9.5 2.005l-.702 1.008L10.25 4.26H11v3.318l-1.411.306-.784 2.757H6.033V9.72h-1.01v.92H2.25l-.206-.772a54 54 0 0 0-.416-1.444l-.209-.671a8.6 8.6 0 0 1-.412-2.28L1 5.148q0-1.07.715-1.836l.1-.1a2.72 2.72 0 0 1 1.838-.791l.145-.003zm.625 1.2H3.822l-.125.002c-.421.02-.751.165-1.045.451l-.065.066c-.261.28-.387.597-.387 1.011q-.002.96.277 1.954l.086.285.002.01.21.67.001.01q.199.653.394 1.363H4v-.92h3v.92h.898l.537-1.884.196-.693.703-.152.466-.102V5.453l-.331-.283-1.452-1.247-.358-.306zM5.5 5.5h-2v-1h2zm2-1a.5.5 0 1 1 0 1 .5.5 0 0 1 0-1"/></svg>