<svg xmlns="http://www.w3.org/2000/svg" fill="none" viewBox="0 0 24 24"><path fill="#0A0B0D" d="M11 11H7V9h4zm4-2a1 1 0 1 1 0 2 1 1 0 0 1 0-2"/><path fill="#0A0B0D" d="M14.567 4.462a3.337 3.337 0 0 1 4.634-.886l-1.743 2.567 2.694 2.295H22v6.533l-2.823.603L17.609 21h-5.544v-1.812h-2.018v1.813H4.499l-.412-1.522q-.413-1.488-.83-2.842l-.418-1.322q-.735-2.255-.826-4.49L2 10.189q0-1.976 1.258-3.423l.173-.19.197-.198Q5.154 4.911 7.307 4.82l.289-.006h5.256l1.506.002q.093-.18.21-.353M7.374 6.818c-.948.044-1.705.372-2.36 1.002l-.142.14-.105.116C4.26 8.663 4.004 9.33 4 10.174l.012.598q.08 1.93.728 3.925l.003.008.003.008.418 1.323.004.013q.426 1.384.846 2.896l.004.012.011.044h2.018v-1.812h6.018v1.813h2.04l1.483-5.133L20 13.352v-2.914h-.584l-4.252-3.621-2.316-.004H7.637z"/></svg>