<svg xmlns="http://www.w3.org/2000/svg" fill="none" viewBox="0 0 16 16"><path fill="#0A0B0D" d="M7.457 7.5H4.993V6h2.464zM10.573 6a.75.75 0 1 1 0 1.5.75.75 0 0 1 0-1.5"/><path fill="#0A0B0D" d="M10.5 2.603a2.21 2.21 0 0 1 3.114 0l-1.41 1.405 1.802 1.605h.993v4.364l-1.691.378-1.123 3.606H8.212v-1.205H6.765v1.205H2.79l-.295-1.01a66 66 0 0 0-.596-1.89l-.298-.878a10.2 10.2 0 0 1-.602-3.408q0-1.311.901-2.273l.124-.127.142-.132q1.093-.973 2.635-1.035l.208-.004 5.063.001a2.2 2.2 0 0 1 .428-.602M4.854 4.707c-.692.029-1.229.249-1.68.647l-.11.101c-.396.39-.565.805-.565 1.32l.008.358a8.7 8.7 0 0 0 .387 2.182l.122.37.004.013.3.88.003.01q.298.896.591 1.873h1.35v-1.205h4.448v1.205h1.368l1.053-3.382.848-.188.438-.099V7.1l-2.687-2.392H7.464v-.003H5.037z"/></svg>