<svg xmlns="http://www.w3.org/2000/svg" fill="none" viewBox="0 0 16 16"><path fill="#0A0B0D" d="M6.734 7a2.334 2.334 0 1 1 0 4.668 2.334 2.334 0 0 1 0-4.667m0 1.6a.734.734 0 1 0 0 1.468.734.734 0 0 0 0-1.468M11 8a1 1 0 1 1 0 2 1 1 0 0 1 0-2M8.333 4a1 1 0 1 1 0 2 1 1 0 0 1 0-2"/><path fill="#0A0B0D" d="M8.343 1.342A6.667 6.667 0 0 1 14.666 8l-.008.343A6.667 6.667 0 0 1 8 14.666l-.343-.008a6.667 6.667 0 0 1-6.315-6.315L1.333 8A6.667 6.667 0 0 1 8 1.333zM8 2.932a5.067 5.067 0 1 0 0 10.137A5.067 5.067 0 0 0 8 2.933"/></svg>