<svg xmlns="http://www.w3.org/2000/svg" fill="none" viewBox="0 0 16 16"><path fill="#0A0B0D" d="M11.334 2.602H10v1.771a5.502 5.502 0 0 1-2 10.625A5.5 5.5 0 0 1 6 4.374V2.602H4.666v-1.6h6.668zM9.681 10.48a2 2 0 0 0-2.17-.04l-.128.08a3.84 3.84 0 0 1-2.02.575h-.922a3.9 3.9 0 0 0 7.119-.005 3.6 3.6 0 0 1-1.88-.61M7.6 5.467l-1.018.397a3.9 3.9 0 0 0-2.47 3.327l-.012.303h1.263c.416 0 .824-.116 1.177-.335l.129-.08a3.6 3.6 0 0 1 3.905.074 2 2 0 0 0 1.116.341h.21a3.9 3.9 0 0 0-2.482-3.63L8.4 5.465V2.607h-.8z"/></svg>