<svg xmlns="http://www.w3.org/2000/svg" fill="none" viewBox="0 0 16 16"><path fill="#0A0B0D" d="M4.5 1a3.5 3.5 0 0 1 3.045 5.226L8.628 7.31l1.57-1.526a2.5 2.5 0 0 1-.35-1.313 2.528 2.528 0 1 1 1.558 2.369L9.76 8.44l1.76 1.761a2.5 2.5 0 1 1-1.194 1.069L8.613 9.556l-.871.846c.148.335.23.705.226 1.095l-.018.269a2.633 2.633 0 0 1-2.65 2.326l-.27-.017a2.63 2.63 0 0 1-2.326-2.65l.017-.27A2.63 2.63 0 0 1 5.102 8.84l.269-.011c.48.007.926.144 1.31.373l.8-.777L6.46 7.402A3.5 3.5 0 1 1 4.5 1m8.001 10.6a.9.9 0 1 0 0 1.802.9.9 0 0 0 0-1.801M5.348 10.43a1.033 1.033 0 1 0-.025 2.065 1.033 1.033 0 0 0 .025-2.065M4.5 2.599a1.9 1.9 0 1 0 .001 3.803 1.9 1.9 0 0 0 0-3.802m7.888.978a.928.928 0 1 0-.024 1.857.928.928 0 0 0 .024-1.856"/></svg>