<svg xmlns="http://www.w3.org/2000/svg" fill="none" viewBox="0 0 24 24"><path fill="#0A0B0D" d="M7 2a5 5 0 0 1 4.17 7.757l1.485 1.484 1.858-1.805a3.5 3.5 0 0 1-.554-1.938l.008-.18a3.501 3.501 0 1 1 3.444 3.73l-.18-.008a3.5 3.5 0 0 1-1.199-.298l.003.002-1.966 1.911 2.766 2.766a3.5 3.5 0 1 1-1.414 1.414l-2.785-2.785-1.043 1.015a4.042 4.042 0 0 1-3.55 6.074l-.209-.007a4.043 4.043 0 0 1-3.778-4.09l.007-.208a4.044 4.044 0 0 1 6.127-3.195l1.032-1.003-1.465-1.465A5 5 0 1 1 7 2m11.5 15a1.5 1.5 0 1 0 0 3 1.5 1.5 0 0 0 0-3M8.127 15.056a2.043 2.043 0 1 0-.057 4.085 2.043 2.043 0 0 0 .057-4.085M7 4a3 3 0 1 0 0 6 3 3 0 0 0 0-6m10.48 2.047a1.501 1.501 0 1 0-.04 3.002 1.501 1.501 0 0 0 .04-3.002"/></svg>