<svg xmlns="http://www.w3.org/2000/svg" fill="none" viewBox="0 0 12 12"><path fill="#0A0B0D" d="M8.26 2.2h-.552v1.182A4.001 4.001 0 1 1 2 7a4 4 0 0 1 2.293-3.618V2.2H3.74V1h4.52zM7.107 7.979A1.3 1.3 0 0 0 5.7 7.953l-.087.053c-.42.26-.905.399-1.4.399H3.58A2.794 2.794 0 0 0 8.42 8.4a2.5 2.5 0 0 1-1.314-.422M5.493 4.142l-.687.325a2.8 2.8 0 0 0-1.598 2.325L3.2 7q.002.104.01.205h1.003c.27 0 .536-.076.766-.218l.088-.055a2.5 2.5 0 0 1 2.71.052c.214.144.467.22.725.22h.287L8.8 7a2.8 2.8 0 0 0-1.604-2.533l-.687-.325V2.2H5.493z"/></svg>