<svg xmlns="http://www.w3.org/2000/svg" fill="none" viewBox="0 0 12 12"><path fill="#0A0B0D" d="M3.5 1a2.5 2.5 0 0 1 2.191 3.701l.78.78.785-.764.007.009a1.75 1.75 0 1 1 .959.72l.004.002-.907.881 1.292 1.292q.299-.119.639-.121a1.75 1.75 0 1 1-1.54.917L6.459 7.166l-.568.554c.118.261.183.551.18.857l-.014.206A2.02 2.02 0 0 1 4.02 10.57l-.207-.011A2.02 2.02 0 0 1 2.028 8.52l.013-.207c.11-.95.877-1.694 1.83-1.778l.206-.008c.373.006.72.112 1.017.292l.516-.503-.732-.732A2.5 2.5 0 1 1 3.5 1m5.75 7.7a.55.55 0 1 0 0 1.1.55.55 0 0 0 0-1.1m-5.19-.97a.822.822 0 1 0-.022 1.643.822.822 0 0 0 .023-1.643M3.5 2.2a1.3 1.3 0 1 0 0 2.6 1.3 1.3 0 0 0 0-2.6m5.237 1.024a.55.55 0 1 0-.015 1.1.55.55 0 0 0 .015-1.1"/></svg>