<svg xmlns="http://www.w3.org/2000/svg" fill="none" viewBox="0 0 24 24"><path fill="#0A0B0D" d="M19.942 10.503A5 5 0 0 1 22 14.546V16l-.005.206a4 4 0 0 1-3.787 3.79l-.206.004H4.999l-.165-.005a3 3 0 0 1-2.832-3.106l.011-.164.577-6.27a3.67 3.67 0 0 1 1.058-2.258 1.83 1.83 0 0 1 2.312-.23l.43.288c.847.564 1.88.787 2.896.756q.328-.01.72-.011c-.799-2.983.98-4.977 1-5zM4.04 16.5l-.037.408A1 1 0 0 0 5 18h13.003a2 2 0 0 0 1.934-1.5zm7.783-9.433a3.8 3.8 0 0 0 .114 1.415L12.61 11h-2.605q-.36 0-.659.01c-1.33.04-2.797-.245-4.065-1.091l-.313-.209c-.22.26-.357.584-.389.927L4.225 14.5H20a3 3 0 0 0-1.234-2.38z"/></svg>