<svg xmlns="http://www.w3.org/2000/svg" fill="none" viewBox="0 0 16 16"><path fill="#0A0B0D" d="M13.636 7.002a3.33 3.33 0 0 1 1.365 2.69v1.143l-.014.273a2.67 2.67 0 0 1-2.38 2.38l-.273.013h-9.33l-.218-.011a2 2 0 0 1-1.782-1.953l.008-.218.401-4.39a2.5 2.5 0 0 1 .719-1.54 1.255 1.255 0 0 1 1.59-.157l.385.259c.519.348 1.144.5 1.769.47.276-.013.594-.023.928-.023-.544-2.044.662-3.414.683-3.438zM2.666 10.8l-.06.664a.4.4 0 0 0 .398.437h9.33c.589 0 1.066-.478 1.067-1.067V10.8zm5.605-5.744q.014.222.08.47l.536 2.01H6.804c-.303 0-.595.01-.851.022a4.52 4.52 0 0 1-2.738-.74l-.111-.074a.9.9 0 0 0-.097.33L2.813 9.2h10.515a1.73 1.73 0 0 0-.637-.908z"/></svg>