<svg xmlns="http://www.w3.org/2000/svg" fill="none" viewBox="0 0 12 12"><path fill="#0A0B0D" d="M9.973 5.251a2.5 2.5 0 0 1 1.03 2.022V8l-.011.204A2 2 0 0 1 9.206 9.99l-.204.01H2.497l-.163-.009a1.5 1.5 0 0 1-1.33-1.629l.288-3.135c.04-.427.227-.826.53-1.128a.92.92 0 0 1 1.156-.116l.216.145c.423.282.94.393 1.448.378q.164-.005.36-.006c-.398-1.487.486-2.484.5-2.5zM2.199 8.473a.3.3 0 0 0 .298.327h6.505a.8.8 0 0 0 .792-.7H2.233zm3.913-4.545q.014.124.05.261L6.565 5.7H5.002q-.177 0-.323.005c-.692.021-1.464-.128-2.138-.572a.6.6 0 0 0-.054.204L2.343 6.9h7.402a1.3 1.3 0 0 0-.478-.678z"/></svg>