<svg xmlns="http://www.w3.org/2000/svg" fill="none" viewBox="0 0 12 12"><g fill="#0A0B0D" clip-path="url(#a)"><path d="M6.709 5.291 8.625 6l-1.916.709L6 8.625l-.709-1.916L3.375 6l1.916-.709L6 3.375z"/><path fill-rule="evenodd" d="M6.27.757A5.25 5.25 0 0 1 11.25 6l-.007.27A5.25 5.25 0 0 1 6 11.25l-.27-.007A5.25 5.25 0 0 1 .756 6.271L.75 6C.75 3.1 3.1.75 6 .75zM6 1.95a4.05 4.05 0 1 0 0 8.1 4.05 4.05 0 0 0 0-8.1" clip-rule="evenodd"/></g><defs><clipPath id="a"><path fill="#fff" d="M0 0h12v12H0z"/></clipPath></defs></svg>