<svg xmlns="http://www.w3.org/2000/svg" fill="none" viewBox="0 0 24 24"><path fill="#0A0B0D" d="m18.342 2.553-1.304 2.605.783-.141.984-.18.358 1.968-3.242.589-.96 1.918c.43.473.749 1.05.913 1.688h2.127L19.8 8.6l1.6 1.2-.9 1.2H23v2h-2.501l.901 1.2-1.6 1.2L18 13h-2.127a4 4 0 0 1-.912 1.688l.959 1.917 3.242.59-.358 1.968-1.767-.322 1.304 2.606-1.79.895-1.303-2.607-.354.712-.448.895-1.789-.895 1.474-2.947-.856-1.71a4 4 0 0 1-2.553 0l-.855 1.71 1.474 2.947-1.79.895-.802-1.607-1.303 2.607-1.789-.895 1.303-2.606-1.766.322-.358-1.968 3.241-.59.96-1.918A4 4 0 0 1 8.125 13H5.999L4.2 15.4l-1.6-1.2.6-.8.3-.4H1v-2h2.5l-.3-.4-.6-.8 1.6-1.2L6 11h2.127a4 4 0 0 1 .911-1.688l-.959-1.918-3.241-.59.358-1.967.984.18.782.141-1.303-2.605 1.79-.895L8.75 4.263l.356-.71.448-.895 1.789.895L9.868 6.5l.855 1.709a4 4 0 0 1 2.553 0l.856-1.709-1.474-2.947 1.79-.895.447.895.354.71 1.304-2.605zM12 10a2 2 0 1 0 0 4 2 2 0 0 0 0-4"/></svg>