<svg xmlns="http://www.w3.org/2000/svg" fill="none" viewBox="0 0 16 16"><path fill="#0A0B0D" d="m12.406 1.643-.81 1.617 1.048-.19.286 1.575-2.228.404-.635 1.27c.21.259.373.556.475.881h1.392l1.239-1.653 1.28.96-.48.64-.04.053h1.534v1.6h-1.534l.04.054.48.64-1.28.96-.48-.64-.76-1.014h-1.39a2.7 2.7 0 0 1-.476.88l.636 1.271 2.227.405-.286 1.575-.788-.144-.26-.048.81 1.618-1.43.716-.81-1.618-.117.236-.359.716-1.43-.716 1.011-2.024-.55-1.1q-.346.098-.721.099l-.273-.014a3 3 0 0 1-.45-.086l-.55 1.101 1.013 2.024-1.431.716-.358-.716-.118-.235-.809 1.617-1.43-.716.808-1.618-.258.048-.788.144-.287-1.575 2.227-.405.636-1.27a2.7 2.7 0 0 1-.474-.881h-1.39l-.761 1.013-.48.641-1.28-.96.48-.64.04-.054H.533V7.2h1.534l-.04-.053-.48-.64 1.28-.96L4.067 7.2h1.39c.101-.325.263-.624.474-.883L5.297 5.05l-2.228-.404.287-1.575 1.046.19-.808-1.617 1.43-.716.809 1.617.118-.234.358-.716 1.431.716-1.012 2.022.55 1.103c.23-.065.472-.102.722-.102l.272.014q.231.023.449.086l.55-1.1L8.26 2.31l1.43-.716.476.95.81-1.617zM8 6.933a1.068 1.068 0 1 0 0 2.132 1.068 1.068 0 0 0 0-2.132"/></svg>