<svg xmlns="http://www.w3.org/2000/svg" fill="none" viewBox="0 0 12 12"><path fill="#0A0B0D" d="m9.048 1.694-.268.537-.18.36.36.18.537.269-.537 1.073-.897-.449-.628 1.259h-.001q.163.218.255.477h1.3v-.897h1.2V5.4h.897v1.2h-.898v.897H8.99V6.6h-1.3a1.8 1.8 0 0 1-.255.475l.628 1.259.362-.18.536-.267.537 1.073-.537.269-.36.18.18.36.268.537-1.073.536-.45-.898-.359.181-.537.269-.536-1.074.536-.268.36-.18-.565-1.13A1.8 1.8 0 0 1 6 7.793q-.22-.002-.425-.053l-.564 1.13.36.18.537.27-.537 1.073-.897-.45-.18.362-.269.536-1.073-.536.447-.898-.895-.448.536-1.073.537.267.36.18.628-1.257v-.002a1.8 1.8 0 0 1-.254-.475h-1.3v.897h-1.2V6.6H.915V5.4h.898v-.897H3.01V5.4h1.3q.092-.26.254-.476l-.628-1.259-.897.448-.536-1.073.536-.269.36-.18-.18-.36-.268-.537 1.073-.536.449.896.361-.18.536-.268.537 1.074-.537.268-.36.18.564 1.13a1.8 1.8 0 0 1 .849 0l.564-1.13-.895-.448.536-1.074.537.268.36.18.18-.36.269-.536z"/></svg>