<svg xmlns="http://www.w3.org/2000/svg" fill="none" viewBox="0 0 16 16"><path fill="#0A0B0D" d="m12.675 1.553-.72 1.438.85-.153.357 1.968-2.325.422-.635 1.27q.16.234.269.502h1.363l1.299-1.733 1.6 1.2-.4.533h1.333v2h-1.333l.4.533-1.6 1.2L11.833 9h-1.362a2.7 2.7 0 0 1-.269.502l.635 1.27 2.325.423-.357 1.968-.85-.154.72 1.438-1.79.895-.719-1.439-.386.773-1.78-.89-1.78.89-.387-.773-.719 1.439-1.789-.895.719-1.44-.849.156-.358-1.968 2.325-.422.635-1.271A2.7 2.7 0 0 1 5.529 9H4.167l-1.3 1.733-1.6-1.2.4-.533H.333V7h1.334l-.4-.533 1.6-1.2L4.166 7h1.363q.108-.268.268-.503l-.635-1.27-2.325-.421.358-1.968.85.154-.72-1.44 1.79-.894.718 1.439.387-.772 1.78.89 1.78-.89.386.772.72-1.439zM8.52 10.614a2.7 2.7 0 0 1-.521.053q-.268-.002-.522-.053l-.527 1.053L8 13.764l1.048-2.098zM6.95 4.333l.526 1.052a2.7 2.7 0 0 1 1.044 0l.527-1.052L8 2.237z"/></svg>