<svg xmlns="http://www.w3.org/2000/svg" fill="none" viewBox="0 0 16 16"><path fill="#0A0B0D" d="m10.054 7.333-.785 2.414H6.731l-.784-2.414L8 5.84z"/><path fill="#0A0B0D" d="M8.343 1.342A6.667 6.667 0 0 1 14.666 8l-.008.343A6.667 6.667 0 0 1 8 14.666l-.343-.008a6.667 6.667 0 0 1-6.315-6.315L1.333 8A6.667 6.667 0 0 1 8 1.333zM8 4.249 6.65 3.116a5.06 5.06 0 0 0-2.075 1.15l.089 2.157-1.58.345A5.08 5.08 0 0 0 4.155 11.3l1.878-.206.512 1.76a5.06 5.06 0 0 0 2.882.009l.526-1.81 1.92.21a5.04 5.04 0 0 0 1.041-4.49l-1.592-.349.088-2.169a5.06 5.06 0 0 0-2.06-1.139z"/></svg>