<svg xmlns="http://www.w3.org/2000/svg" fill="none" viewBox="0 0 16 16"><path fill="#0A0B0D" d="M8.347 1.344a6.667 6.667 0 0 1 6.323 6.658l-.008.343a6.667 6.667 0 0 1-6.658 6.323l-.343-.008a6.667 6.667 0 0 1-6.315-6.315l-.009-.343a6.667 6.667 0 0 1 6.667-6.667zm1.08 11.52c.97-.284 1.82-.85 2.454-1.603l-1.924-.21zm-5.272-1.568a5.07 5.07 0 0 0 2.393 1.559l-.513-1.765zm1.793-3.961.784 2.413H9.27l.785-2.413-2.053-1.493zm5.38-.915 1.59.345a5.06 5.06 0 0 0-1.504-2.51zM4.575 4.27a5.06 5.06 0 0 0-1.487 2.492l1.576-.342zm3.428-1.335c-.466 0-.918.063-1.346.18l1.344 1.13 1.343-1.13a5 5 0 0 0-1.341-.18"/></svg>