<svg xmlns="http://www.w3.org/2000/svg" fill="none" viewBox="0 0 16 16"><path fill="#0A0B0D" d="M1.947 11.48A6.93 6.93 0 0 1 1 7.978C1 4.124 4.134 1.001 8 1s7 3.124 7 6.978-3.134 6.979-7 6.979a7 7 0 0 1-3.446-.906L1 15zM8 13.357c2.987 0 5.4-2.413 5.4-5.379S10.987 2.6 8 2.6c-2.894 0-5.248 2.264-5.393 5.102l-.007.276c0 .983.266 1.902.73 2.695l.336.578-.4 1.489.876-.235.63-.168.569.322a5.4 5.4 0 0 0 2.299.686zm2.262-4.469a.89.89 0 1 1 0-1.776.89.89 0 0 1 .891.888c0 .49-.4.888-.891.888M8 8.888A.89.89 0 0 1 7.108 8c0-.491.4-.888.892-.888A.89.89 0 0 1 8.892 8c0 .49-.4.888-.892.888m-2.262 0A.89.89 0 0 1 4.847 8c0-.491.4-.888.891-.888a.89.89 0 1 1 0 1.776"/></svg>