<svg xmlns="http://www.w3.org/2000/svg" fill="none" viewBox="0 0 24 24"><path fill="#0A0B0D" d="M3.352 16.973A9.9 9.9 0 0 1 2 11.968C2 6.463 6.477 2 12 2s10 4.464 10 9.97c0 5.505-4.477 9.969-10 9.969a10 10 0 0 1-4.925-1.294L2 21.999zm11.88-3.704a1.27 1.27 0 0 0 1.273-1.268 1.273 1.273 0 0 0-2.547 0c0 .7.57 1.268 1.273 1.268m-3.232 0a1.27 1.27 0 0 0 1.273-1.268 1.272 1.272 0 0 0-2.546 0c0 .7.57 1.268 1.273 1.268m-3.231 0a1.27 1.27 0 0 0 1.272-1.268 1.272 1.272 0 0 0-2.546 0c0 .7.57 1.268 1.274 1.268"/></svg>