<svg xmlns="http://www.w3.org/2000/svg" fill="none" viewBox="0 0 24 24"><path fill="#0A0B0D" d="M3.352 17.035A9.9 9.9 0 0 1 2 12.031l.013-.513C2.28 6.25 6.65 2.062 12 2.062l.515.012C17.798 2.341 22 6.697 22 12.031 22 17.537 17.523 22 12 22l-.335-.007a10 10 0 0 1-4.314-1.138l-.276-.15L2 22.061zM12 20.006c4.418 0 8-3.57 8-7.975s-3.582-7.976-8-7.976c-4.28 0-7.775 3.351-7.99 7.565l-.01.41a7.9 7.9 0 0 0 1.08 4.002l.419.718-.67 2.493 2.52-.674.713.403A8 8 0 0 0 12 20.006m3.231-6.675a1.27 1.27 0 0 1-1.273-1.27c0-.7.57-1.268 1.273-1.268s1.274.567 1.274 1.268-.57 1.27-1.274 1.27m-3.231 0a1.27 1.27 0 0 1-1.273-1.27c0-.7.57-1.268 1.273-1.268a1.27 1.27 0 1 1 0 2.538m-3.231 0a1.27 1.27 0 0 1-1.274-1.27c0-.7.57-1.268 1.274-1.268a1.27 1.27 0 0 1 1.272 1.268c0 .7-.57 1.27-1.272 1.27"/></svg>