<svg xmlns="http://www.w3.org/2000/svg" fill="none" viewBox="0 0 12 12"><path fill="#0A0B0D" d="M1.676 8.485A4.95 4.95 0 0 1 1 5.985C1 3.231 3.239 1 6 1s5 2.232 5 4.984c0 2.753-2.239 4.985-5 4.985a5 5 0 0 1-2.462-.647L1 11zM6 9.77a3.794 3.794 0 0 0 3.795-3.59l.005-.195A3.79 3.79 0 0 0 6 2.2a3.79 3.79 0 0 0-3.8 3.784c0 .692.187 1.339.512 1.897l.253.432-.13.484-.136.508 1.003-.269.427.241a3.8 3.8 0 0 0 1.617.484zm1.616-3.135a.635.635 0 1 1-.003-1.266.635.635 0 0 1 .003 1.266M6 6.634a.635.635 0 1 1 0-1.269.635.635 0 1 1 0 1.269m-1.615 0a.635.635 0 1 1-.003-1.266.635.635 0 0 1 .003 1.266"/></svg>