<svg xmlns="http://www.w3.org/2000/svg" fill="none" viewBox="0 0 12 12"><path fill="#0A0B0D" d="M8.75 6.499a2.25 2.25 0 1 1 0 4.5 2.25 2.25 0 0 1 0-4.5m-3.306.849L4.07 8.72l1.374 1.374-.85.847L3.223 9.57 1.85 10.942 1 10.094 2.373 8.72 1 7.348l.85-.849 1.372 1.373L4.596 6.5zm3.306.351a1.05 1.05 0 1 0 0 2.1 1.05 1.05 0 0 0 0-2.1M3.25 1a2.25 2.25 0 1 1 0 4.5 2.25 2.25 0 0 1 0-4.5m7.749.849L9.627 3.222l1.372 1.373-.849.848L8.778 4.07 7.404 5.444l-.848-.848L7.93 3.222 6.556 1.849 7.404 1l1.374 1.373L10.15 1zM3.25 2.2a1.05 1.05 0 1 0 0 2.1 1.05 1.05 0 0 0 0-2.1"/></svg>