<svg xmlns="http://www.w3.org/2000/svg" fill="none" viewBox="0 0 16 16"><path fill="#0A0B0D" d="m7.2 10.208-1.687 1.688 1.689 1.69L5.788 15 4.1 13.31 2.414 15 1 13.585l1.687-1.689L1 10.207l1.414-1.415L4.1 10.481l1.688-1.689zM12.005 9a3 3 0 0 1 2.997 3c0 1.657-1.342 3-2.997 3a3 3 0 0 1-2.993-2.845L9.007 12a3 3 0 0 1 2.997-3m0 2a.999.999 0 0 0 0 2 1 1 0 0 0 .997-1 1 1 0 0 0-.997-1m2.978-8.585-1.688 1.688 1.689 1.69-1.414 1.415-1.688-1.69-1.686 1.69L8.78 5.792l1.687-1.689-1.686-1.688L10.195 1l1.686 1.688L13.57 1zM3.997 1a3 3 0 0 1 2.997 3l-.004.155A3 3 0 0 1 3.997 7 3 3 0 0 1 1 4a3 3 0 0 1 2.997-3m0 2A1 1 0 0 0 3 4c0 .555.449 1 .997 1a1 1 0 0 0 .997-1 1 1 0 0 0-.997-1"/></svg>