<svg xmlns="http://www.w3.org/2000/svg" fill="none" viewBox="0 0 24 24"><path fill="#0A0B0D" d="M17.5 13a4.5 4.5 0 1 1 0 9 4.5 4.5 0 0 1 0-9m0 3a1.5 1.5 0 1 0 0 3 1.5 1.5 0 0 0 0-3m-6.54-1.111-2.475 2.475 2.475 2.475-2.121 2.121-2.475-2.475L3.89 21.96l-2.121-2.121 2.474-2.475-2.474-2.475 2.12-2.121 2.476 2.474 2.475-2.474zM6.5 2a4.5 4.5 0 1 1 0 9 4.5 4.5 0 0 1 0-9m0 3a1.5 1.5 0 1 0 0 3 1.5 1.5 0 0 0 0-3m15.46-1.111-2.475 2.475L21.96 8.84l-2.121 2.121-2.475-2.475-2.475 2.475-2.121-2.121 2.474-2.475-2.474-2.475 2.12-2.121 2.476 2.474 2.475-2.474z"/></svg>