<svg xmlns="http://www.w3.org/2000/svg" fill="none" viewBox="0 0 16 16"><path fill="#0A0B0D" d="M6.916 10.214 5.088 12.04l1.829 1.83L5.787 15 3.96 13.172 2.129 15 1 13.87l1.829-1.829L1 10.214l1.13-1.13 1.827 1.828 1.828-1.828zm5.085-1.206a2.996 2.996 0 1 1 0 5.992 2.996 2.996 0 0 1 0-5.992m0 1.598a1.399 1.399 0 1 0 .001 2.798 1.399 1.399 0 0 0 0-2.798M3.996 1.02a2.996 2.996 0 1 1 0 5.991 2.996 2.996 0 0 1 0-5.991m0 1.597a1.399 1.399 0 1 0 0 2.797 1.399 1.399 0 0 0 0-2.797m11-.487L13.17 3.956l1.828 1.83-1.13 1.129-1.829-1.829-1.828 1.829-1.13-1.13 1.829-1.83L9.081 2.13 10.212 1l1.828 1.828L13.867 1z"/></svg>