<svg xmlns="http://www.w3.org/2000/svg" fill="none" viewBox="0 0 24 24"><path fill="#0A0B0D" d="M17.5 13a4.5 4.5 0 1 1 0 9 4.5 4.5 0 0 1 0-9m-7.247 1.889-2.475 2.475 2.475 2.475-1.414 1.414-2.475-2.475-2.475 2.475-1.414-1.414 2.475-2.475-2.475-2.475 1.414-1.414 2.475 2.475 2.475-2.475zM17.5 15a2.5 2.5 0 1 0 0 5 2.5 2.5 0 0 0 0-5M6.5 2a4.5 4.5 0 1 1 0 9 4.5 4.5 0 0 1 0-9m14.753 1.889-2.475 2.475 2.475 2.475-1.414 1.414-2.475-2.475-2.475 2.475-1.414-1.414 2.475-2.475-2.475-2.475 1.414-1.414 2.475 2.475 2.475-2.475zM6.5 4a2.5 2.5 0 1 0 0 5 2.5 2.5 0 0 0 0-5"/></svg>