<svg xmlns="http://www.w3.org/2000/svg" fill="none" viewBox="0 0 16 16"><path fill="#0A0B0D" d="m10.976 5.027 1.57.734-1.57.733-.732 1.572-.732-1.572-1.57-.733 1.57-.734.732-1.57z"/><path fill="#0A0B0D" d="M10.279 1.25a4.51 4.51 0 0 1 4.472 4.546l-.008.232a4.5 4.5 0 0 1-1.491 3.09l-5.546 5.633-.78-2.444-4.898 1.743 1.73-5.001-2.509-.91 5.587-5.33a4.5 4.5 0 0 1 3.21-1.556zM4.188 7.52l1.576.572-1.164 3.36 3.337-1.186.479 1.504 1.49-1.513a4.51 4.51 0 0 1-4.16-4.222zm6.078-4.688a2.9 2.9 0 0 0-2.09.857l-.185.204a2.927 2.927 0 0 0 2.23 4.794 2.927 2.927 0 0 0 .045-5.855"/></svg>