<svg xmlns="http://www.w3.org/2000/svg" fill="none" viewBox="0 0 12 12"><path fill="#0A0B0D" d="m5.39 7.553-3.54 3.542-.85-.848 3.542-3.542zM8.33 3.64l1.106.515-1.106.515-.516 1.106L7.3 4.67l-1.106-.515L7.3 3.639l.515-1.105z"/><path fill="#0A0B0D" d="M7.75.905A3.25 3.25 0 0 1 11 4.155c0 .751-.258 1.44-.685 1.991l.004.004-.049.054q-.046.056-.097.11l-4.036 4.563-.899-.795L7.61 7.401a3.25 3.25 0 0 1-3.08-2.817L2.186 7.066l-.874-.823 4.082-4.324A3.24 3.24 0 0 1 7.75.905m0 1.2a2.05 2.05 0 1 0 1.493 3.45l.104-.117A2.05 2.05 0 0 0 7.75 2.105"/></svg>