<svg xmlns="http://www.w3.org/2000/svg" fill="none" viewBox="0 0 24 24"><path fill="#0A0B0D" d="m16.297 7.71 2.372 1.108-2.372 1.107L15.19 12.3l-1.105-2.375-2.373-1.107 2.373-1.109 1.105-2.375z"/><path fill="#0A0B0D" d="M15.244 2A6.814 6.814 0 0 1 22 8.87l-.012.35a6.8 6.8 0 0 1-2.701 5.04L11.437 22l-1.13-3.549-7.205 2.564 2.543-7.349L2 12.343l8.19-8.153a6.8 6.8 0 0 1 4.704-2.184zm-9.597 9.545 2.524.917-1.83 5.283 5.238-1.862.77 2.419 2.72-2.67-.28-.01a6.813 6.813 0 0 1-6.404-6.776zm9.581-7.55a4.82 4.82 0 0 0-4.853 4.785 4.82 4.82 0 0 0 4.78 4.86 4.82 4.82 0 0 0 4.853-4.785 4.82 4.82 0 0 0-4.78-4.86"/></svg>