<svg xmlns="http://www.w3.org/2000/svg" fill="none" viewBox="0 0 12 12"><path fill="#0A0B0D" d="M5.64 7.303 2.1 10.845l-.849-.848 3.542-3.542zm.747 3.324-.899-.794 1.962-2.22q.27.041.55.042c.415 0 .813-.07 1.186-.194zM4.35 3.039a3.76 3.76 0 0 0 .004 1.744L2.437 6.816l-.874-.823zM8 1.155a2.75 2.75 0 0 1 2.75 2.75c0 1.013-.55 1.895-1.365 2.372l-.017.01q-.226.131-.478.217l-.027.01a2.742 2.742 0 0 1-3.613-2.61l.004-.075-.001.002q0-.021.003-.041c.024-.585.23-1.122.563-1.557l.033-.043A2.74 2.74 0 0 1 8 1.155m-.451 2.234-1.106.516 1.106.515.515 1.106.516-1.106 1.106-.515-1.106-.516-.516-1.105z"/></svg>