<svg xmlns="http://www.w3.org/2000/svg" fill="none" viewBox="0 0 24 24"><path fill="#0A0B0D" d="M10.5 15.167 3.417 22.25 2 20.833l7.083-7.083zm6.16-7.948 2.21 1.031-2.21 1.031-1.031 2.21-1.031-2.21-2.211-1.031 2.21-1.031 1.032-2.211z"/><path fill="#0A0B0D" d="M15.5 1.75a6.5 6.5 0 0 1 4.573 11.118l-7.96 8.706-1.476-1.348 5.009-5.48-.146.004a6.5 6.5 0 0 1-6.483-6.053l-4.779 5.228-1.476-1.35 7.647-8.366A6.49 6.49 0 0 1 15.5 1.75m0 2c-1.29 0-2.453.544-3.273 1.414l.011.01-.312.342A4.5 4.5 0 1 0 15.5 3.75"/></svg>