<svg xmlns="http://www.w3.org/2000/svg" fill="none" viewBox="0 0 12 12"><path fill="#0A0B0D" d="m8.205 3.799 1.162.542-1.162.543-.542 1.165-.542-1.165-1.162-.543 1.162-.542.542-1.165z"/><path fill="#0A0B0D" d="M7.69 1a3.339 3.339 0 0 1 2.153 5.87L5.785 11l-.577-1.81-3.628 1.29 1.281-3.704L1 6.101c.882-.833 3.52-3.313 3.987-3.752C5.75 1.574 6.584.992 7.69 1M3.186 5.647l1.161.422-.862 2.488 1.901-.676.57-.203.355 1.114 1.1-1.12A3.34 3.34 0 0 1 4.335 4.56zm4.495-3.474a2.168 2.168 0 0 0-.034 4.337 2.167 2.167 0 0 0 2.182-2.152A2.167 2.167 0 0 0 7.68 2.173"/></svg>