<svg xmlns="http://www.w3.org/2000/svg" fill="none" viewBox="0 0 16 16"><path fill="#0A0B0D" d="M6.812 10.48 2.29 15l-1.128-1.127 4.522-4.521zm4.169-5.694 1.543.72-1.543.72-.72 1.543-.72-1.544L8 5.505l1.542-.719.72-1.543z"/><path fill="#0A0B0D" d="M10.3 1a4.54 4.54 0 0 1 4.538 4.536 4.52 4.52 0 0 1-1.227 3.1l-5.596 6.262-1.19-1.063 3.364-3.765a4.54 4.54 0 0 1-4.374-3.842L5.8 6.1 2.502 9.576 1.345 8.478c.76-.802 4.933-5.188 5.245-5.508C7.583 1.786 8.72 1 10.3 1m0 1.594a2.942 2.942 0 1 0 .001 5.885 2.942 2.942 0 0 0 0-5.885"/></svg>