<svg xmlns="http://www.w3.org/2000/svg" fill="none" viewBox="0 0 16 16"><path fill="#0A0B0D" d="m7.036 10.182-4.569 4.569-1.139-1.14 4.569-4.568zm1.449 4.405-1.203-1.073 2.81-3.144q.344.046.701.048a5.3 5.3 0 0 0 1.656-.266zM5.623 4.01a5.3 5.3 0 0 0 .02 2.323L2.914 9.21 1.744 8.1zm5.17-2.76a3.88 3.88 0 0 1 1.584 7.419l-.027.012a4 4 0 0 1-.301.118l-.035.011-.134.042-.036.01a3.879 3.879 0 0 1-4.126-6.098q.034-.046.07-.09l.03-.035.089-.103a3.87 3.87 0 0 1 2.886-1.287M10.156 4.4l-1.558.727 1.558.727.727 1.56.728-1.56 1.56-.727-1.56-.727-.728-1.56z"/></svg>