<svg xmlns="http://www.w3.org/2000/svg" fill="none" viewBox="0 0 12 12"><path fill="#0A0B0D" d="M7.6 1.98c.433-.012.867.095 1.253.32l.723-.723.848.848-.724.722c.226.386.333.821.32 1.254H11v1.2H9.654q-.135.213-.321.4l-.243.242 1 1.001-.848.848-1-1L7.09 8.244l1 1-.848.848-1-1L6 9.335a2.4 2.4 0 0 1-.4.32V11H4.4v-.98a2.35 2.35 0 0 1-1.254-.319l-.722.724-.849-.849.723-.723a2.35 2.35 0 0 1-.32-1.253H1V6.4h1.347q.134-.213.319-.4l.242-.243-.999-1 .848-.848.999 1 1.152-1.152-.999-1 .848-.848 1 1L6 2.668q.187-.185.4-.321V1h1.2z"/></svg>