<svg xmlns="http://www.w3.org/2000/svg" fill="none" viewBox="0 0 16 16"><path fill="#0A0B0D" d="M5.36 9.98a.66.66 0 1 1 0 1.32.66.66 0 0 1 0-1.32m1.32-2.64a.66.66 0 1 1-.001 1.32.66.66 0 0 1 .001-1.32m3.299-.66a.66.66 0 1 1 0 1.32.66.66 0 0 1 0-1.32m0-2.64a.66.66 0 1 1 0 1.321.66.66 0 0 1 0-1.32"/><path fill="#0A0B0D" d="M10.2 2.37c.632-.025 1.27.13 1.83.467l1.004-1.003 1.13 1.132-1.002 1.002c.337.561.492 1.2.466 1.833H15v1.6h-1.86a3.3 3.3 0 0 1-.474.6l-.368.367 1.4 1.4-1.131 1.13-1.4-1.398L9.5 11.168l1.399 1.4-1.13 1.13-1.4-1.399-.368.369-.124.116q-.226.202-.476.357V15H5.8v-1.372a3.3 3.3 0 0 1-1.833-.463l-1.002 1.002-1.13-1.131 1.002-1.004a3.3 3.3 0 0 1-.464-1.831H1V8.6h1.86q.153-.25.356-.476L3.334 8l.367-.368-1.4-1.4 1.131-1.13 1.4 1.4L6.5 4.831 5.101 3.434l1.13-1.132 1.401 1.4L8 3.335c.184-.184.387-.342.6-.474V1h1.6zm1.336 2.095a1.7 1.7 0 0 0-2.406 0L4.464 9.131a1.7 1.7 0 0 0 2.404 2.405L8.75 9.65a.655.655 0 0 1 .9-.9l1.884-1.882a1.7 1.7 0 0 0 0-2.404"/></svg>