<svg xmlns="http://www.w3.org/2000/svg" fill="none" viewBox="0 0 24 24"><path fill="#0A0B0D" d="M8.229 14.83a.943.943 0 1 1 0 1.884.943.943 0 0 1 0-1.885m1.885-3.771a.943.943 0 1 1 0 1.885.943.943 0 0 1 0-1.885m4.714-.943a.942.942 0 1 1 0 1.885.942.942 0 0 1 0-1.885m0-3.771a.942.942 0 1 1 0 1.884.942.942 0 0 1 0-1.884"/><path fill="#0A0B0D" d="M15 3.966a4.7 4.7 0 0 1 2.883.736l1.409-1.409 1.414 1.414-1.41 1.41A4.7 4.7 0 0 1 20.035 9H22v2h-2.571a4.7 4.7 0 0 1-.762 1l-.627.626 2 2-1.414 1.414-2-2-2.586 2.586 2 2-1.415 1.414-1.999-2-.626.627-.177.166q-.387.348-.824.596V22l-2-.001v-1.964a4.7 4.7 0 0 1-2.884-.738l-1.409 1.41-1.414-1.414 1.41-1.41A4.7 4.7 0 0 1 3.963 15H1.999L2 13h2.57q.249-.437.596-.824L5.333 12 12 5.334c.305-.305.642-.56 1-.764V2h2zm2.252 2.782a2.714 2.714 0 0 0-3.838 0l-6.667 6.667a2.714 2.714 0 0 0 3.839 3.839l2.668-2.669a.94.94 0 0 1 .63-1.642.94.94 0 0 1 .7.312l2.669-2.668a2.715 2.715 0 0 0-.001-3.839"/><path fill="#0A0B0D" d="M7.373 9.96 5.96 11.374l-2-1.999 1.414-1.414zm4-4L9.959 7.374l-2-2L9.373 3.96z"/></svg>