<svg xmlns="http://www.w3.org/2000/svg" fill="none" viewBox="0 0 24 24"><path fill="#0A0B0D" d="M15 3.966a4.7 4.7 0 0 1 2.883.736l1.41-1.409 1.413 1.415-1.409 1.408A4.7 4.7 0 0 1 20.034 9H22v2h-2.57a4.7 4.7 0 0 1-.765 1l-.626.627 2 2-1.415 1.414-2-2-2.585 2.586 2 2-1.414 1.415-2-2-.626.625a4.7 4.7 0 0 1-1 .763V22H9v-1.965a4.7 4.7 0 0 1-2.885-.737l-1.408 1.41-1.415-1.414 1.409-1.41a4.7 4.7 0 0 1-.736-2.883H2v-2h2.57c.205-.358.458-.695.763-1l.625-.626-2-2L5.374 7.96l2 2L9.96 7.374l-2-2L9.374 3.96l1.999 2L12 5.334a4.7 4.7 0 0 1 1-.763V2h2zM8.228 14.83a.943.943 0 1 0 .002 1.887.943.943 0 0 0-.002-1.887m5.657-1.885a.942.942 0 1 0 0 1.885.942.942 0 0 0 0-1.885m-3.771-1.886a.943.943 0 1 0 0 1.885.943.943 0 0 0 0-1.885m4.714-.943A.943.943 0 1 0 14.829 12a.943.943 0 0 0-.001-1.886m0-3.772a.944.944 0 1 0 .002 1.887.944.944 0 0 0-.002-1.887"/></svg>