<svg xmlns="http://www.w3.org/2000/svg" fill="none" viewBox="0 0 16 16"><path fill="#0A0B0D" d="M10.2 2.371a3.3 3.3 0 0 1 1.831.467l1.003-1.003 1.131 1.132-1.003 1.002c.337.56.493 1.2.468 1.833H15v1.6h-1.858a3.3 3.3 0 0 1-.475.599l-.368.367 1.4 1.4-1.132 1.131L11.168 9.5l-1.669 1.669 1.4 1.4-1.131 1.13-1.4-1.4-.368.369a3.3 3.3 0 0 1-.6.473V15H5.8v-1.37a3.3 3.3 0 0 1-1.832-.467l-1.002 1.003-1.131-1.13 1.002-1.004A3.3 3.3 0 0 1 2.37 10.2H1V8.6h1.86q.197-.32.474-.599l.367-.368-1.4-1.4 1.132-1.13 1.399 1.399 1.669-1.669-1.4-1.4 1.131-1.131 1.4 1.4L8 3.335q.279-.277.6-.475V1h1.6zm-4.84 7.61a.66.66 0 1 0 0 1.32.66.66 0 0 0 0-1.32m3.96-1.32a.66.66 0 1 0 0 1.32.66.66 0 0 0 0-1.32M6.68 7.34a.66.66 0 1 0-.001 1.32.66.66 0 0 0 0-1.32m3.3-.66a.66.66 0 1 0 0 1.32.66.66 0 0 0 0-1.32m0-2.64a.66.66 0 1 0-.001 1.32.66.66 0 0 0 0-1.32"/></svg>