<svg xmlns="http://www.w3.org/2000/svg" fill="none" viewBox="0 0 12 12"><path fill="#0A0B0D" d="M7.6 1.98c.433-.012.867.094 1.253.32l.723-.723.848.847-.723.722c.226.386.332.821.32 1.255H11v1.2H9.652q-.134.212-.319.4L7.09 8.243l1 1-.848.847-1-1L6 9.334q-.187.185-.4.32V11H4.4v-.98a2.35 2.35 0 0 1-1.254-.32l-.722.724-.849-.848.724-.724a2.35 2.35 0 0 1-.32-1.253H1V6.4h1.348a2.4 2.4 0 0 1 .318-.4l.242-.243-.999-.999.848-.848.999 1 1.152-1.153-.999-.999.848-.848 1 1L6 2.667q.187-.185.4-.32V1h1.2zm.885 1.536a1.16 1.16 0 0 0-1.636 0L3.515 6.85A1.158 1.158 0 0 0 5.15 8.486l3.334-3.333a1.16 1.16 0 0 0 0-1.637"/><path fill="#0A0B0D" d="m10.09 7.244-.848.847-1-1 .849-.847z"/></svg>