<svg xmlns="http://www.w3.org/2000/svg" fill="none" viewBox="0 0 16 16"><path fill="#0A0B0D" d="M9.771 4.24c1.087 0 1.967.88 1.967 1.966v3.578c0 1.087-.88 1.967-1.967 1.967H6.193a1.966 1.966 0 0 1-1.967-1.967V6.206c0-1.087.88-1.967 1.967-1.967zm-3.578 1.5a.466.466 0 0 0-.467.466v3.578l.01.094c.037.183.18.326.363.363l.094.01h3.578l.094-.01a.47.47 0 0 0 .363-.363l.01-.094V6.206a.466.466 0 0 0-.373-.457l-.094-.01z"/><path fill="#0A0B0D" d="M7.982.995a7.001 7.001 0 1 1-.002 14.002A7.001 7.001 0 0 1 7.982.995m0 1.5a5.5 5.5 0 1 0 .001 11.001 5.5 5.5 0 0 0 0-11"/></svg>