<svg xmlns="http://www.w3.org/2000/svg" fill="none" viewBox="0 0 24 24"><path fill="#0A0B0D" d="M14.556 6.777a2.666 2.666 0 0 1 2.667 2.667v5.112a2.666 2.666 0 0 1-2.667 2.667H9.445a2.666 2.666 0 0 1-2.667-2.667V9.444a2.666 2.666 0 0 1 2.667-2.667zm-5.111 2a.666.666 0 0 0-.667.667v5.112l.013.134a.67.67 0 0 0 .52.519l.134.014h5.111l.135-.014a.67.67 0 0 0 .518-.519l.014-.134V9.444a.666.666 0 0 0-.532-.653l-.135-.014z"/><path fill="#0A0B0D" d="M12 2c5.523 0 10 4.478 10 10s-4.477 10-10 10S2 17.522 2 12 6.478 2 12 2m0 2a8 8 0 0 0 0 16 8 8 0 0 0 0-16"/></svg>