<svg xmlns="http://www.w3.org/2000/svg" fill="none" viewBox="0 0 12 12"><path fill="#0A0B0D" d="M7.278 3.29c.792 0 1.433.64 1.433 1.433v2.554c0 .792-.641 1.434-1.433 1.434H4.723A1.433 1.433 0 0 1 3.29 7.277V4.723c0-.793.64-1.434 1.433-1.434zM4.723 4.388l-.067.007a.33.33 0 0 0-.267.327v2.554c0 .162.114.297.267.327l.067.007h2.555l.067-.007a.33.33 0 0 0 .26-.26l.007-.067V4.723a.334.334 0 0 0-.334-.334z"/><path fill="#0A0B0D" d="M6 1a5 5 0 1 1 0 10.002A5 5 0 0 1 6 1m0 1.1a3.901 3.901 0 1 0 .002 7.802A3.901 3.901 0 0 0 6 2.1"/></svg>