<svg xmlns="http://www.w3.org/2000/svg" fill="none" viewBox="0 0 12 12"><path fill="#0A0B0D" d="M6.094 2C7.2 2.863 7.848 4.032 8.04 5.253a5.17 5.17 0 0 1 2.56-.732l.017 1.178-.003.217C10.528 8.131 8.606 9.942 6.217 10q-.046-.001-.093-.005L6.12 10l-.006-.005C3.586 9.891 1.582 7.912 1.618 5.53l.015-1.004c.938.02 1.807.3 2.531.763C4.338 4.054 4.98 2.87 6.094 2m3.291 3.897c-.507.18-.96.462-1.334.816A4.9 4.9 0 0 1 7.373 8.6c1.144-.45 1.959-1.489 2.012-2.703m-6.52.028C2.986 7.072 3.75 8.05 4.82 8.53a5 5 0 0 1-.63-1.69 3.5 3.5 0 0 0-1.326-.915m3.23-2.232a3.87 3.87 0 0 0 .024 4.615 3.87 3.87 0 0 0-.024-4.615"/></svg>