<svg xmlns="http://www.w3.org/2000/svg" fill="none" viewBox="0 0 24 24"><path fill="#0A0B0D" d="M21.999 10.732q.003.27-.005.537a11 11 0 0 1-.163 1.533q-.013.072-.028.143-.035.19-.08.378l-.01.049a11 11 0 0 1-.117.45q-.016.06-.035.119-.051.178-.108.352l-.047.135q-.057.168-.12.334-.03.079-.063.158-.059.15-.124.298-.041.095-.086.189a11 11 0 0 1-.725 1.32l-.122.19-.152.215a11 11 0 0 1-.29.386q-.071.093-.145.185a11 11 0 0 1-.823.891 10 10 0 0 1-1.498 1.197l-.21.132q-.112.07-.225.137-.101.059-.203.113a10 10 0 0 1-.424.221q-.114.056-.23.11-.106.049-.215.094-.103.045-.208.088a10 10 0 0 1-.282.107l-.174.064q-.137.047-.275.089-.097.031-.196.06-.128.037-.258.069-.11.03-.22.056-.12.027-.243.05-.121.028-.244.05-.06.011-.119.019l1.377-1.753c2.37-3.016 3.12-7.07 2.258-10.746l.064-.027q.07-.031.143-.061.124-.055.249-.106t.251-.095q.096-.037.193-.071.136-.047.275-.089.097-.031.196-.06.128-.037.257-.069.11-.03.221-.057l.226-.047q.128-.029.26-.054.138-.022.279-.042l.204-.032q.157-.019.315-.031l.19-.02q.25-.018.502-.024l.968-.023zM2.43 7.866q.042 0 .082.003.21.005.42.021.097.008.192.02.156.013.312.031.102.014.204.032.132.018.262.04l.046.007q.117.023.231.05.113.021.225.046.112.027.222.057.13.033.257.068l.196.061q.138.042.275.089l.206.075q.117.043.233.089.114.046.226.095.119.05.235.103l.09.043c-.82 3.647-.06 7.65 2.288 10.636L10 21.174l-.14-.03q-.111-.026-.22-.056-.13-.032-.258-.068-.098-.029-.196-.061-.138-.042-.275-.089l-.166-.06q-.15-.055-.298-.114-.088-.035-.175-.074-.122-.051-.243-.106l-.248-.119q-.096-.046-.19-.094l-.204-.111-.232-.132q-.094-.055-.186-.112l-.212-.133a10 10 0 0 1-.42-.289q-.073-.053-.144-.108a10 10 0 0 1-.598-.486 10.3 10.3 0 0 1-1.329-1.41q-.067-.082-.13-.168a11 11 0 0 1-.45-.652q-.049-.074-.095-.15a11 11 0 0 1-.154-.259q-.05-.083-.098-.17l-.14-.264-.09-.177q-.066-.136-.13-.275l-.08-.176q-.065-.15-.124-.301l-.062-.154q-.063-.165-.12-.334-.025-.067-.048-.136-.05-.156-.097-.316l-.05-.167a11 11 0 0 1-.107-.419l-.018-.075q-.038-.172-.071-.347-.016-.075-.03-.151A11 11 0 0 1 2 10.746l.039-2.89zm10.934-2.552.268.358c2.603 3.652 2.51 8.97-.267 12.504l-1.569 1.996-1.622-2.063c-2.78-3.537-2.872-8.861-.262-12.514l.26-.347L11.74 3.25z"/></svg>