<svg xmlns="http://www.w3.org/2000/svg" fill="none" viewBox="0 0 12 12"><path fill="#0A0B0D" d="m6.094 2 .215.177.012.011.057.051q.09.08.173.161l.044.045a5 5 0 0 1 .407.454l.103.136a5 5 0 0 1 .144.205q.045.065.087.132l.06.1.071.122.052.099a5 5 0 0 1 .233.506l.044.114q.026.073.05.147l.032.096q.026.086.048.171l.02.073.04.167.018.09q.018.09.032.181l.008.049c.257 1.706-.38 3.508-1.923 4.713l-.073-.061q-.129-.104-.249-.213l-.038-.035-.045-.043q-.046-.041-.088-.084l-.015-.014-.102-.107a5 5 0 0 1-.321-.372l-.011-.014-.027-.037a5 5 0 0 1-.648-1.113l-.027-.068-.027-.07-.005-.011A5 5 0 0 1 4.16 6.63l-.009-.06-.002-.016-.007-.082a5 5 0 0 1-.016-.817l.001-.014.008-.094.003-.03q.008-.09.02-.178v-.003l.006-.05c.063-.447.188-.886.374-1.307l.034-.076.068-.142.051-.097.071-.133.061-.103q.101-.168.218-.332l.046-.062q.058-.08.12-.16l.06-.072q.06-.073.124-.144l.06-.066a5 5 0 0 1 .15-.156l.045-.045a5 5 0 0 1 .235-.215q.104-.09.214-.177M10.617 5.7c.028 1.895-1.288 3.523-3.121 4.083a5.68 5.68 0 0 0 1.305-4.906 5.2 5.2 0 0 1 1.798-.357zM1.633 4.525A4.9 4.9 0 0 1 3.4 4.89a5.74 5.74 0 0 0 1.293 4.836C2.876 9.095 1.59 7.443 1.618 5.53z"/></svg>