<svg xmlns="http://www.w3.org/2000/svg" fill="none" viewBox="0 0 24 24"><path fill="#0A0B0D" d="m14.48 5.112.308.363a9.96 9.96 0 0 1 1.995 4.136 10 10 0 0 1 4.838-1.37l.309-.007.039 2.791c.078 5.515-4.315 10.088-9.819 10.221l-.17.004-.178-.004c-5.337-.121-9.634-4.419-9.826-9.706l-.006-.515.04-2.778.22.005a10 10 0 0 1 4.868 1.39 9.96 9.96 0 0 1 2.015-4.229l.307-.362 2.502-2.801zM3.981 11.057C3.93 14.8 6.453 18.005 9.908 18.96l-.433-.509a10 10 0 0 1-2.54-6.599 8 8 0 0 0-2.944-1.39zm15.983-.596a8 8 0 0 0-2.945 1.39 10 10 0 0 1-2.539 6.598l-.433.485v.024c3.455-.955 5.978-4.16 5.926-7.904zm-9.056-4.076a8.01 8.01 0 0 0 0 10.668l1.07 1.198 1.015-1.135a8.013 8.013 0 0 0-.002-10.67l-1.07-1.196z"/></svg>