<svg xmlns="http://www.w3.org/2000/svg" fill="none" viewBox="0 0 16 16"><path fill="#0A0B0D" d="M8.07 1a8.395 8.395 0 0 1 2.402 9.93q-.046.1-.096.202a8 8 0 0 1-.316.595q-.047.083-.097.164a8.4 8.4 0 0 1-1.18 1.497l-.111.11a9 9 0 0 1-.461.416l-.1.086-.01-.009-.221-.186a8.5 8.5 0 0 1-1.383-1.543l-.043-.061q-.123-.18-.236-.364l-.011-.02a8 8 0 0 1-.412-.764l-.027-.055a8 8 0 0 1-.155-.359l-.035-.087a8 8 0 0 1-.134-.359l-.032-.099a8 8 0 0 1-.196-.692 8.4 8.4 0 0 1-.193-1.197l-.01-.115a8 8 0 0 1-.007-1.157q.006-.1.016-.2A8.28 8.28 0 0 1 8.07 1M1.125 5.103q.297.007.586.038.075.006.149.014l.104.015q.127.016.252.037.067.011.135.026.106.019.212.041l.184.045.159.039q.09.025.181.053l.154.046q.095.031.188.065.075.025.148.052l.167.067.157.064.149.067.073.034a9.37 9.37 0 0 0 2.236 7.902c-2.155-.62-3.895-2.184-4.727-4.195a7 7 0 0 1-.53-2.78z"/><path fill="#0A0B0D" d="M15.1 6.328c.048 3.298-2.087 6.145-5.095 7.217a9.28 9.28 0 0 0 2.034-7.766 7.8 7.8 0 0 1 3.043-.685z"/></svg>