<svg xmlns="http://www.w3.org/2000/svg" fill="none" viewBox="0 0 16 16"><path fill="#0A0B0D" d="M8.003 1a8.35 8.35 0 0 1 3.043 5.346 7.84 7.84 0 0 1 3.936-1.153L15 6.42l-.005.385c-.14 3.712-3.071 6.77-6.833 7.194h-.163c-.21.002.131 0-.257 0-.23 0-.037-.002-.155 0l-.149-.002c-3.667-.433-6.49-3.508-6.437-7.174l.024-1.621a7.4 7.4 0 0 1 3.956 1.24A8.22 8.22 0 0 1 8.003 1M2.626 7.052c.05 2.337 1.602 4.334 3.765 5.092a8.3 8.3 0 0 1-1.397-3.636 5.7 5.7 0 0 0-2.368-1.456m10.73-.018a6.1 6.1 0 0 0-2.269 1.247A8.2 8.2 0 0 1 9.84 11.92c1.943-.88 3.33-2.724 3.515-4.885M8.005 3.26c-1.96 2.448-1.945 5.949.037 8.408 1.96-2.449 1.944-5.949-.038-8.408"/></svg>