<svg xmlns="http://www.w3.org/2000/svg" fill="none" viewBox="0 0 96 96"><g clip-path="url(#a)"><g clip-path="url(#b)"><path fill="#18A81D" d="M46.14 3.61a2.07 2.07 0 0 1 2.93 0l12.65 12.65c.81.81.81 2.12 0 2.93L49.07 31.84c-.81.81-2.12.81-2.93 0L33.49 19.19a2.07 2.07 0 0 1 0-2.93zM35.18 17.76l10.2 10.16.03-10.16zm14.57-.34 10-.03-10.03-9.95z"/><path fill="#CED2DB" d="M93.01 87.89a2.5 2.5 0 0 1 0 5H3a2.5 2.5 0 0 1 0-5z"/><path fill="#CED2DB" d="M61.15 36.08a2.5 2.5 0 0 1 2.5 2.5v51.81a2.5 2.5 0 0 1-2.5 2.5H34.09a2.5 2.5 0 0 1-2.5-2.5V38.58a2.5 2.5 0 0 1 2.5-2.5zM36.59 87.89h22.06V41.08H36.59z"/><path fill="#CED2DB" d="M88.21 59.93a2.5 2.5 0 0 1 2.5 2.5v27.96a2.5 2.5 0 0 1-2.5 2.5H61.15a2.5 2.5 0 0 1-2.5-2.5V62.43a2.5 2.5 0 0 1 2.5-2.5zM63.65 87.89h22.06V64.93H63.65zM34.06 72.75a2.5 2.5 0 0 1 2.5 2.5v15.14a2.5 2.5 0 0 1-2.5 2.5H7a2.5 2.5 0 0 1-2.5-2.5V75.25a2.5 2.5 0 0 1 2.5-2.5zM9.5 87.89h22.06V77.75H9.5z"/><path fill="#18A81D" d="m19.15 55.95 1.5 4.64h4.88l-3.94 2.87 1.5 4.63-3.94-2.86-3.95 2.86 1.51-4.63-3.94-2.87h4.87z"/><path fill="#18A81D" d="M19.492 54.45a1.5 1.5 0 0 1 1.425 1.039l1.164 3.6h3.788a1.501 1.501 0 0 1 .884 2.714l-3.061 2.229 1.165 3.596a1.5 1.5 0 0 1-2.309 1.675l-3.06-2.221-3.069 2.222a1.5 1.5 0 0 1-2.305-1.68l1.172-3.594-3.06-2.227a1.5 1.5 0 0 1 .884-2.713h3.78l1.174-3.604.042-.114a1.5 1.5 0 0 1 1.386-.922m-.086 6.604a1.5 1.5 0 0 1-1.426 1.036h-.264l.217.158a1.5 1.5 0 0 1 .543 1.677l-.081.245.215-.155.1-.067a1.5 1.5 0 0 1 1.66.068l.212.154-.08-.247a1.5 1.5 0 0 1 .544-1.675l.217-.158h-.273a1.5 1.5 0 0 1-1.427-1.039l-.078-.24zM75.45 43.09l1.51 4.64h4.88l-3.95 2.87 1.51 4.63-3.95-2.86-3.94 2.86 1.51-4.63-3.95-2.87h4.88z"/><path fill="#18A81D" d="M75.79 41.59a1.5 1.5 0 0 1 1.427 1.036l1.173 3.604h3.79a1.5 1.5 0 0 1 .882 2.714l-3.068 2.228 1.172 3.593a1.5 1.5 0 0 1-2.305 1.68l-3.07-2.223-3.06 2.222a1.5 1.5 0 0 1-2.307-1.68l1.17-3.593-3.065-2.227a1.5 1.5 0 0 1 .881-2.714h3.79l1.163-3.6.041-.115c.23-.556.776-.924 1.385-.925m-.072 6.602a1.5 1.5 0 0 1-1.428 1.038h-.264l.216.157a1.5 1.5 0 0 1 .544 1.678l-.078.236.201-.145.1-.067a1.5 1.5 0 0 1 1.661.067l.214.154-.08-.245a1.5 1.5 0 0 1 .545-1.678l.217-.157H77.3a1.5 1.5 0 0 1-1.426-1.035l-.079-.244z"/></g></g><defs><clipPath id="a"><path fill="#FFFFFF" d="M0 0h96v96H0z"/></clipPath><clipPath id="b"><path fill="#FFFFFF" d="M-.5 3h96.01v89.89H-.5z"/></clipPath></defs></svg>