<svg xmlns="http://www.w3.org/2000/svg" fill="none" viewBox="0 0 96 96"><g clip-path="url(#a)"><path fill="#18A81D" d="M47.37 30.23a2.64 2.64 0 0 1 3.73 0l16.13 16.13a2.65 2.65 0 0 1 0 3.74L51.1 66.23a2.64 2.64 0 0 1-3.73 0L31.24 50.1a2.65 2.65 0 0 1 0-3.74zM33.39 48.29 46.4 61.25l.04-12.96zm18.59-.43 12.76-.04-12.8-12.7z"/><path fill="#FFD200" d="M48.813.01c8.69-.131 15.115 3.124 18.022 4.875 27.624 1.699 37.452 37.716 14.219 53.155l-3.644 2.617c5.495 2.053 11.023 4.849 16.47 8.568a2.5 2.5 0 0 1 1.063 2.43 2.5 2.5 0 0 1-.18.624l.026.018-.09.122c-.129.252-.298.48-.5.675-3.38 4.495-18.476 23-46.302 22.516C21.585 95.15 6.763 77.289 3.02 72.343a2.5 2.5 0 0 1 .199-4.16l.996 1.669a450 450 0 0 1-.995-1.67l.004-.002.007-.004.026-.016.09-.052q.116-.068.332-.19c.287-.162.705-.393 1.246-.68a85 85 0 0 1 4.656-2.273 105 105 0 0 1 11.495-4.401l.027-.075a103 103 0 0 0-2.414-1.73l-.998-.674C5.945 50.32 2.626 37.261 5.731 26.08c3.302-11.89 13.84-20.407 26.11-21.193C34.708 3.161 40.692.141 48.81.01zM12.23 75.246c3.7 3.646 9.077 7.959 16.159 11.086l-1.512-2.21a2.5 2.5 0 0 1 4.127-2.824l5.16 7.54q.074.11.135.225a50.7 50.7 0 0 0 9.8 1.477v-6.58a2.5 2.5 0 0 1 5 0v6.614a52 52 0 0 0 6.915-.726l.012-.02 5.16-7.54a2.5 2.5 0 0 1 4.127 2.825l-1.981 2.893c8.867-2.96 15.369-7.906 19.599-11.991a143.5 143.5 0 0 1-20.48 3.572h-.003c-20.92 2.089-38.913-.784-52.218-4.34M48.89 5.008c-7.404.12-12.737 3.066-14.949 4.457a2.5 2.5 0 0 1-1.23.382c-10.385.426-19.383 7.557-22.162 17.57v.001c-2.594 9.34.167 20.061 9.9 26.495 1.487.983 2.764 1.92 3.99 2.82 1.013.743 1.995 1.46 3.073 2.196h2.648a2.5 2.5 0 0 1 0 5h-2.738l-.09.02a101 101 0 0 0-15.688 5.57l-.508.234c13.07 3.73 31.354 7 52.815 4.858 8.345-.84 15.88-2.363 22.498-4.163a70.7 70.7 0 0 0-14.943-6.516l-.013-.003H68.17a2.5 2.5 0 0 1 0-5h3.073l6.908-4.961.08-.055C97.688 41.051 89.272 10.808 65.967 9.848a2.5 2.5 0 0 1-1.23-.383c-2.19-1.38-7.92-4.576-15.847-4.457M18.057 23.843a2.5 2.5 0 0 1 3.53.185l7.81 8.67a2.5 2.5 0 0 1-3.715 3.345l-7.81-8.67a2.5 2.5 0 0 1 .185-3.53m57.094.186a2.5 2.5 0 1 1 3.717 3.343l-7.8 8.67a2.5 2.5 0 0 1-3.716-3.343zM48.901 8.53a2.5 2.5 0 0 1 2.5 2.5V22.7a2.5 2.5 0 0 1-5 0V11.03a2.5 2.5 0 0 1 2.5-2.5"/></g><defs><clipPath id="a"><path fill="#FFFFFF" d="M0 0h96v96H0z"/></clipPath></defs></svg>