<svg xmlns="http://www.w3.org/2000/svg" fill="none" viewBox="0 0 96 96"><g clip-path="url(#a)"><path fill="#0052FF" d="m91.507 4.193-.007-.007c-5.584-5.584-14.638-5.584-20.223 0l-67.09 67.09c-5.585 5.585-5.585 14.64 0 20.224l.007.007c5.584 5.584 14.639 5.584 20.223 0l67.09-67.09c5.585-5.585 5.585-14.64 0-20.224"/><path fill="#CED2DB" d="m91.497 91.507.007-.007c5.584-5.585 5.584-14.64 0-20.224l-67.09-67.09c-5.585-5.584-14.64-5.584-20.224 0l-.007.007c-5.584 5.585-5.585 14.639 0 20.224l67.09 67.09c5.585 5.584 14.639 5.584 20.224 0"/><path stroke="#FFFFFF" stroke-miterlimit="10" stroke-width="2" d="m12.71 82.99 70.25-70.26"/><path stroke="#5DE2F8" stroke-miterlimit="10" stroke-width="2" d="m12.71 12.73 70.25 70.26"/><path stroke="#FFFFFF" stroke-miterlimit="10" stroke-width="2" d="M71.57 12.23h12.28v12.28"/><path fill="#0A0B0E" d="M47.83 75.03C62.836 75.03 75 62.865 75 47.86S62.836 20.69 47.83 20.69c-15.005 0-27.17 12.164-27.17 27.17 0 15.005 12.165 27.17 27.17 27.17"/><path stroke="#5DE2F8" stroke-miterlimit="10" stroke-width="2" d="M83.56 71.73v12.28H71.28"/><path stroke="#FFFFFE" stroke-miterlimit="10" stroke-width="2" d="M48.65 29.41v19.26l13.29 13.29"/></g><defs><clipPath id="a"><path fill="#FFFFFF" d="M0 0h96v96H0z"/></clipPath></defs></svg>