<svg xmlns="http://www.w3.org/2000/svg" fill="none" viewBox="0 0 40 40"><path fill="#C872FF" d="M10.053 10.001h19.894V7.034H10.053zm23.894 1a3 3 0 0 1-3 3H9.053a3 3 0 0 1-2.996-2.846l-.004-.154V6.034a3 3 0 0 1 3-3h21.894a3 3 0 0 1 3 3z"/><path fill="#C872FF" d="M13.613 5.034h4v7.227h-4zm8.774 0h4v7.227h-4zM20 13.565c6.47 0 11.717 5.246 11.717 11.717S26.47 37 20 37 8.283 31.754 8.283 25.283c0-6.47 5.246-11.717 11.717-11.717m.89 5.78a1 1 0 0 0-1.78 0l-1.181 2.315a1 1 0 0 1-.735.533l-2.565.408a1 1 0 0 0-.55 1.694l1.835 1.838a1 1 0 0 1 .28.863l-.404 2.566a1 1 0 0 0 1.441 1.046l2.316-1.177a1 1 0 0 1 .906 0l2.316 1.177a1 1 0 0 0 1.441-1.047l-.405-2.565a1 1 0 0 1 .28-.863l1.836-1.838a1 1 0 0 0-.55-1.694l-2.566-.408a1 1 0 0 1-.734-.533z"/></svg>