<svg xmlns="http://www.w3.org/2000/svg" fill="none" viewBox="0 0 48 48"><rect width="21.92" height="21.92" x="2.08" y="24" fill="#0000FF" rx="1"/><path fill="#0000FF" d="M27 21h15.918V5.082H27zm18.918 2-.005.102a1 1 0 0 1-.892.893l-.103.005H25a1 1 0 0 1-.995-.898L24 23V3.082a1 1 0 0 1 1-1h19.918l.102.005a1 1 0 0 1 .898.995z"/><rect width="6.78" height="6.78" x="31.57" y="9.65" fill="#0000FF" rx="1"/><path fill="var(--illustration-gray)" d="M35.531 25.992v9.514H26.02v-3h6.511v-6.514zm-23.093-3.947V12.53h9.511v3h-6.512v6.514z"/></svg>