<svg xmlns="http://www.w3.org/2000/svg" fill="none" viewBox="0 0 40 40"><path fill="var(--illustration-accent-1)" d="M17.667 3.994a3 3 0 0 1 4.666 0l.115.153 4.954 7 8.189 2.549c1.975.615 2.75 2.998 1.514 4.657l-5.126 6.875.105 8.575c.025 2.07-2.002 3.543-3.962 2.88L20 33.93l-8.122 2.751c-1.96.663-3.986-.81-3.961-2.879l.105-8.575-5.125-6.875c-1.237-1.659-.462-4.042 1.513-4.657l8.188-2.55 4.955-6.999zm-2 9.74a3 3 0 0 1-1.558 1.13l-7.163 2.23 4.485 6.015a3 3 0 0 1 .594 1.83l-.093 7.501 7.106-2.405.236-.07a3 3 0 0 1 1.452 0l.236.07 7.105 2.405-.092-7.5a3 3 0 0 1 .594-1.83l4.484-6.016-7.162-2.23a3 3 0 0 1-1.557-1.13L20 7.611z"/><path fill="#B1B7C3" d="M14.923 17.259a1 1 0 0 1 1-1h8.155a1 1 0 0 1 1 1v8.155a1 1 0 0 1-1 1h-8.155a1 1 0 0 1-1-1z"/></svg>