<svg xmlns="http://www.w3.org/2000/svg" fill="none" viewBox="0 0 40 40"><path fill="var(--illustration-gray)" d="M20.227 3.29a3 3 0 0 1 4.242 0l2.294 2.294 2.128-2.127a1 1 0 0 1 1.414 0l6.222 6.222a1 1 0 0 1 0 1.414L34.4 13.22l2.296 2.296a3 3 0 0 1 0 4.243L19.67 36.783a3 3 0 0 1-4.242 0L3.2 24.558a3 3 0 0 1 0-4.243zM6.737 22.437 17.55 33.248l15.61-15.611L22.348 6.825z"/><path fill="#B1B7C3" d="m15.24 18.047 6.087-5.104c.8-.671 1.963.179 1.567 1.145l-1.429 3.488 3.793.46a1 1 0 0 1 .573 1.712l-6.867 6.624c-.775.747-2.022-.09-1.623-1.09l2.012-5.041-3.59-.435c-.87-.106-1.194-1.197-.523-1.76"/></svg>