<svg xmlns="http://www.w3.org/2000/svg" fill="none" viewBox="0 0 40 40"><path fill="#B1B7C3" d="M35.014 2.985a2 2 0 0 1 2 2v30.029a2 2 0 0 1-2 2H4.985a2 2 0 0 1-2-2V4.985a2 2 0 0 1 2-2zM6.985 33.014h26.029V6.985H6.985z"/><path fill="#B1B7C3" d="M33.191 28.089H6.941V6.36h26.25zM20.733 8.887a.5.5 0 0 0-.891 0l-2.2 4.31a.5.5 0 0 1-.367.267l-4.78.76a.5.5 0 0 0-.274.847l3.42 3.425a.5.5 0 0 1 .14.43l-.755 4.782a.5.5 0 0 0 .721.523l4.314-2.194a.5.5 0 0 1 .454 0l4.313 2.194a.5.5 0 0 0 .72-.523l-.753-4.781a.5.5 0 0 1 .14-.43l3.42-3.426a.5.5 0 0 0-.275-.846l-4.78-.761a.5.5 0 0 1-.367-.267z"/></svg>