<svg xmlns="http://www.w3.org/2000/svg" fill="none" viewBox="0 0 48 48"><path fill="var(--illustration-gray)" d="M19.132 3.16h3.515v6.314h3.354v-5.48h3.515v5.858h3.204v11.987H15.617V0h3.515z"/><path fill="var(--illustration-invert-2)" d="M33.745 21.84c0 5.38-4.363 9.742-9.744 9.742s-9.743-4.362-9.743-9.743S18.62 12.096 24 12.096s9.744 4.362 9.744 9.743"/><path fill="var(--illustration-accent-1)" d="M32.72 21.84a8.72 8.72 0 1 1-17.439 0 8.72 8.72 0 0 1 17.44 0"/><path fill="var(--illustration-black)" d="M21.275 19.044a.443.443 0 0 1 .494.376v3.83a.3.3 0 0 1-.105.211.3.3 0 0 1-.106.06.3.3 0 0 1-.12.013h-.624l-.17 1.019h1.727v1.423h.857v-1.39h.684v1.4h.86v-1.413c1.438-.082 2.447-.447 2.573-1.793.103-1.086-.414-1.567-1.23-1.768a1.325 1.325 0 0 0 .751-1.435c-.095-1.011-.972-1.351-2.076-1.449v-1.4h-.86v1.364h-.684V16.73h-.854v1.402h-1.745v.913s.636-.013.625-.002zm1.986.067c.484 0 2.005-.154 2.005.85 0 1.003-1.52.853-2.005.853zm0 2.563c.58 0 2.401-.165 2.401.939s-1.822.939-2.4.939z"/><path fill="var(--illustration-primary)" d="M6.563 29.904a2.25 2.25 0 0 1 2.25-2.25H39.19a2.25 2.25 0 0 1 2.25 2.25V45.75A2.25 2.25 0 0 1 39.19 48H8.812a2.25 2.25 0 0 1-2.25-2.25z"/><path fill="var(--illustration-black)" d="M30.499 27.654a8.7 8.7 0 0 1-6.5 2.906 8.7 8.7 0 0 1-6.499-2.906zm3.245 7.329c1.977 0 3.186 1.186 3.186 3.105v2.302c0 1.953-1.221 3.115-3.186 3.115-1.953 0-3.185-1.162-3.185-3.115v-2.302c0-1.919 1.22-3.105 3.185-3.105m0 6.895c.895 0 1.337-.616 1.337-1.5v-2.267c0-.884-.442-1.5-1.337-1.5s-1.337.616-1.337 1.5v2.267c0 .884.442 1.5 1.337 1.5m-7.414-6.895c1.977 0 3.186 1.186 3.186 3.105v2.302c0 1.953-1.221 3.115-3.186 3.115-1.953 0-3.185-1.162-3.185-3.115v-2.302c0-1.919 1.22-3.105 3.185-3.105m0 6.895c.895 0 1.337-.616 1.337-1.5v-2.267c0-.884-.442-1.5-1.337-1.5s-1.337.616-1.337 1.5v2.267c0 .884.442 1.5 1.337 1.5m-6.381 1.465v-5.209h-2.012v-1.535h2.012v-1.441h1.86v8.185zm-6.583 1.5v-1.558c-1.57-.21-2.58-1.175-2.58-2.523h1.813c0 .802.558 1.197 1.465 1.197.918 0 1.348-.442 1.348-1 0-.58-.383-.686-1.186-.825l-.86-.151c-1.418-.244-2.418-.872-2.418-2.384 0-1.185.883-2.174 2.418-2.395v-1.557h1.419v1.569c1.5.244 2.313 1.22 2.337 2.349h-1.814c0-.593-.384-1.035-1.302-1.035-.884 0-1.233.453-1.233.918 0 .593.407.756 1.14.872l.825.128c1.372.21 2.488.767 2.488 2.36 0 1.314-.953 2.233-2.441 2.465v1.57z"/><path fill="var(--illustration-white)" d="M33.744 33.565c1.977 0 3.186 1.186 3.186 3.105v2.302c0 1.953-1.221 3.115-3.186 3.115-1.953 0-3.185-1.162-3.185-3.115V36.67c0-1.919 1.22-3.105 3.185-3.105m0 6.895c.895 0 1.337-.616 1.337-1.5v-2.267c0-.884-.442-1.5-1.337-1.5s-1.337.616-1.337 1.5v2.267c0 .884.442 1.5 1.337 1.5m-7.414-6.895c1.977 0 3.186 1.186 3.186 3.105v2.302c0 1.953-1.221 3.115-3.186 3.115-1.953 0-3.185-1.162-3.185-3.115V36.67c0-1.919 1.22-3.105 3.185-3.105m0 6.895c.895 0 1.337-.616 1.337-1.5v-2.267c0-.884-.442-1.5-1.337-1.5s-1.337.616-1.337 1.5v2.267c0 .884.442 1.5 1.337 1.5m-6.381 1.465v-5.209h-2.012v-1.535h2.012V33.74h1.86v8.185zm-6.583 1.5v-1.558c-1.57-.21-2.58-1.174-2.58-2.523h1.813c0 .802.558 1.197 1.465 1.197.918 0 1.348-.441 1.348-1 0-.58-.383-.685-1.186-.825l-.86-.151c-1.418-.244-2.418-.872-2.418-2.383 0-1.186.883-2.175 2.418-2.396v-1.558h1.419v1.57c1.5.244 2.313 1.22 2.337 2.349h-1.814c0-.593-.384-1.035-1.302-1.035-.884 0-1.233.453-1.233.918 0 .593.407.756 1.14.872l.825.128c1.372.21 2.488.767 2.488 2.36 0 1.314-.953 2.233-2.441 2.465v1.57z"/><path fill="var(--illustration-invert)" d="m27.465 9.473-1.5-.004.023-7.227 1.5.005zm-7.309.577h-1.5V0h1.5z"/></svg>