<svg xmlns="http://www.w3.org/2000/svg" fill="none" viewBox="0 0 48 48"><g clip-path="url(#a)"><path fill="var(--illustration-primary)" d="M40.803 43.188h-4.801v4.942h-24v-4.943H7.204V16.93h33.6z"/><rect width="4.8" height="16.74" x="21.6" y="4.78" fill="var(--illustration-primary)" rx="2.4"/><path fill="var(--illustration-white)" d="M24.002 37.802a4.315 4.315 0 0 0 4.315-4.315h-8.63a4.315 4.315 0 0 0 4.315 4.315"/><path fill="var(--illustration-gray)" d="M0 23.05h4.8v14.4H0z"/><path fill="var(--illustration-invert)" d="M35.998 43.188v4.94h-24v-4.94z"/><path fill="var(--illustration-gray)" d="M43.2 23.05H48v14.4h-4.8z"/><path fill="var(--illustration-gray)" d="M48.002 27.852v4.8h-7.2v-4.8zm-48.004 4.8v-4.8h7.2v4.8z"/><path fill="var(--illustration-invert)" d="M48.002 27.852v4.8h-4.8v-4.8zm-48.004 4.8v-4.8h4.8v4.8z"/><circle cx="24" cy="6.38" r="6.39" fill="var(--illustration-gray)"/><path fill="var(--illustration-invert)" d="M23.998 4.782a2.4 2.4 0 0 1 2.4 2.4v5.128a6.37 6.37 0 0 1-4.8 0V7.183a2.4 2.4 0 0 1 2.4-2.4"/><circle cx="18.07" cy="27.55" r="2.7" fill="var(--illustration-white)"/><circle cx="29.93" cy="27.55" r="2.7" fill="var(--illustration-white)"/></g><defs><clipPath id="a"><path fill="var(--illustration-white)" d="M0 0h48v48H0z"/></clipPath></defs></svg>