<svg xmlns="http://www.w3.org/2000/svg" fill="none" viewBox="0 0 40 40"><path fill="#B1B7C3" d="m15.086 23.823-4.884 4.2.922 3.37 3.909-3.485.143-.116a2 2 0 0 1 1.198-.392l7.513.038-.02 4-6.745-.034-5.744 5.122a2 2 0 0 1-3.26-.965L6.01 27.862a2 2 0 0 1 .626-2.044l5.843-5.028z"/><path fill="#B1B7C3" d="m24.963 23.872 4.842 4.25-.955 3.36-3.874-3.524-2.692 2.958 6.26 5.696a2 2 0 0 0 3.27-.932l2.185-7.678a2 2 0 0 0-.605-2.05l-5.793-5.086z"/><path fill="#B1B7C3" d="M20.788 2.987a2 2 0 0 0-1.398.065c-2.608 1.116-5.771 3.863-7.241 8.464-1.48 4.633-1.172 10.896 2.687 18.946l3.608-1.73c-3.548-7.4-3.574-12.59-2.485-15.998.926-2.899 2.712-4.688 4.206-5.589 1.467.911 3.2 2.711 4.069 5.613 1.023 3.422.908 8.619-2.716 15.99l3.59 1.765c3.936-8.004 4.346-14.257 2.957-18.9-1.38-4.617-4.475-7.406-7.084-8.553z"/><path fill="#B1B7C3" d="M17.44 14.693a1 1 0 0 1 1.006-.995l3.25.016a1 1 0 0 1 .994 1.005l-.016 3.25a1 1 0 0 1-1.005.995l-3.25-.016a1 1 0 0 1-.994-1.005zm3.359 21.81a1 1 0 0 1-1.783 0l-3.11-6.117h8.003z"/></svg>