<svg xmlns="http://www.w3.org/2000/svg" fill="none" viewBox="0 0 40 40"><path fill="#ECD069" d="M26.227 3.334a.5.5 0 0 1 .89 0l2.312 4.528a.5.5 0 0 0 .367.267l5.021.798a.5.5 0 0 1 .275.847L31.5 13.372a.5.5 0 0 0-.14.431l.792 5.022a.5.5 0 0 1-.72.524L26.9 17.044a.5.5 0 0 0-.453 0l-4.532 2.305a.5.5 0 0 1-.72-.524l.792-5.022a.5.5 0 0 0-.14-.431l-3.593-3.598a.5.5 0 0 1 .275-.847l5.021-.798a.5.5 0 0 0 .367-.267z"/><path fill="#B1B7C3" d="M30.513 22.412a5.025 5.025 0 0 1 5.744 8.205l-3.102 2.569a17 17 0 0 1-10.842 3.906h-19.3v-4h19.3c3.027 0 5.96-1.057 8.291-2.987l3.102-2.569a1.025 1.025 0 0 0-1.17-1.673l-4.439 2.601a15.8 15.8 0 0 1-6.706 2.12l-.328-3.987a11.8 11.8 0 0 0 5.012-1.584z"/><path fill="#B1B7C3" d="m20.967 20.854.292.008c2.988.175 5.142 3.012 4.448 5.972a4.87 4.87 0 0 1-4.74 3.757h-3.786a2 2 0 1 1 0-4h3.786a.868.868 0 0 0 .104-1.732l-.104-.006h-4.952c-1.185 0-2.328.44-3.209 1.233l-3.21 2.892a2 2 0 0 1-1.339.514H2.961v-4H7.49l2.638-2.378a8.8 8.8 0 0 1 5.887-2.26z"/></svg>