<svg xmlns="http://www.w3.org/2000/svg" fill="none" viewBox="0 0 40 40"><path fill="#464B55" d="M2.975 3.973a1 1 0 0 1 1-1h7.065a1 1 0 0 1 1 1v7.066a1 1 0 0 1-1 1H3.975a1 1 0 0 1-1-1zm0 12.581a1 1 0 0 1 1-1h7.065a1 1 0 0 1 1 1v7.065a1 1 0 0 1-1 1H3.975a1 1 0 0 1-1-1z"/><path fill="#7FD057" d="M15.402 3.973a1 1 0 0 1 1-1h19.51a1 1 0 0 1 1 1v7.066a1 1 0 0 1-1 1h-19.51a1 1 0 0 1-1-1z"/><path fill="#464B55" d="M19.402 32.965h13.51V19.554h-13.51zm17.51 3-.006.101a1 1 0 0 1-.892.893l-.103.006H16.402l-.102-.006a1 1 0 0 1-.898-.995v-19.41a1 1 0 0 1 .898-.995l.102-.005h19.51l.102.005a1 1 0 0 1 .897.995z"/></svg>