<svg xmlns="http://www.w3.org/2000/svg" fill="none" viewBox="0 0 40 40"><path fill="#464B55" d="M33.4 19.869c0-7.286-5.906-13.192-13.192-13.192-7.285 0-13.191 5.906-13.191 13.192 0 7.285 5.906 13.192 13.191 13.192v4l-.443-.006c-9.29-.235-16.748-7.84-16.748-17.186 0-9.495 7.697-17.192 17.191-17.192S37.4 10.374 37.4 19.87l-.005.444c-.236 9.29-7.84 16.748-17.187 16.748v-4c7.286 0 13.192-5.907 13.192-13.192"/><path fill="#B1B7C3" d="m12.568 19.358 8.58-9.168c.714-.762 1.972-.058 1.695.949l-1.668 6.067h5.73a1 1 0 0 1 .776 1.63l-9.336 11.48c-.68.836-2.019.154-1.743-.887l2.223-8.388h-5.527c-.875 0-1.328-1.044-.73-1.683"/></svg>