<svg xmlns="http://www.w3.org/2000/svg" fill="none" viewBox="0 0 40 40"><path fill="#C872FF" d="M29.778 16.777C29.778 11.377 25.4 7 20 7s-9.778 4.378-9.778 9.778S14.6 26.556 20 26.556s9.778-4.378 9.778-9.779m4 0c0 7.61-6.168 13.779-13.778 13.779S6.222 24.386 6.222 16.777C6.222 9.167 12.39 3 20 3s13.778 6.169 13.778 13.778"/><path fill="#C872FF" d="M12.213 36.576a1 1 0 0 1-1.76-.053l-1.754-3.5a1 1 0 0 0-.953-.551l-3.91.232a1 1 0 0 1-.925-1.499l4.993-8.646a1 1 0 0 1 1.366-.367l7.57 4.37a1 1 0 0 1 .365 1.367zm15.574 0a1 1 0 0 0 1.76-.053l1.754-3.5a1 1 0 0 1 .954-.551l3.908.232a1 1 0 0 0 .926-1.499l-4.993-8.646a1 1 0 0 0-1.366-.367l-7.57 4.37a1 1 0 0 0-.365 1.367z"/><path fill="#B1B7C3" d="M19.11 10.767a1 1 0 0 1 1.78 0l1.203 2.357a1 1 0 0 0 .734.533l2.613.416a1 1 0 0 1 .55 1.694l-1.869 1.873a1 1 0 0 0-.28.862l.412 2.614a1 1 0 0 1-1.441 1.047l-2.359-1.2a1 1 0 0 0-.907 0l-2.358 1.2a1 1 0 0 1-1.441-1.047l.412-2.614a1 1 0 0 0-.28-.862l-1.87-1.873a1 1 0 0 1 .55-1.694l2.614-.416a1 1 0 0 0 .733-.533z"/></svg>