<svg xmlns="http://www.w3.org/2000/svg" fill="none" viewBox="0 0 48 48"><path fill="#578BFA" d="M8 2c0-1.1.9-2 2-2h28c1.1 0 2 .9 2 2v44c0 1.1-.9 2-2 2H10c-1.1 0-2-.9-2-2z"/><path fill="#464B55" d="M48 8H0v32h48z"/><path fill="#0A0B0D" d="M40 8H8v32h32z"/><path fill="#B1B7C3" d="M15.73 17.04c0-.448 0-.672.085-.844a.83.83 0 0 1 .379-.379c.172-.084.395-.084.843-.084h13.921c.448 0 .672 0 .844.084.164.08.298.214.378.379.085.172.085.396.085.843v13.922c0 .447 0 .671-.085.843a.83.83 0 0 1-.378.379c-.172.084-.396.084-.844.084H17.037c-.448 0-.671 0-.843-.084a.83.83 0 0 1-.38-.379c-.084-.172-.084-.396-.084-.843z"/><path fill="#0A0B0D" d="M21 44c0-.6.4-1 1-1h4c.6 0 1 .4 1 1s-.4 1-1 1h-4c-.6 0-1-.4-1-1m4-40c0 .6-.4 1-1 1s-1-.4-1-1 .4-1 1-1 1 .4 1 1"/></svg>