<svg xmlns="http://www.w3.org/2000/svg" fill="none" viewBox="0 0 40 40"><path fill="#578BFA" d="M4.167 24.167C4.167 8.333 20 0 20 0s15.833 8.333 15.833 24.167C35.833 32.908 28.742 40 20 40S4.167 32.908 4.167 24.167"/><path fill="#578BFA" d="M4.167 24.167C4.167 8.333 20 0 20 0s15.833 8.333 15.833 24.167C35.833 32.908 28.742 40 20 40S4.167 32.908 4.167 24.167"/><path fill="#FFFFFF" d="M20 0v40c8.742 0 15.833-7.092 15.833-15.833C35.833 8.333 20 0 20 0"/><path fill="#0A0B0D" d="M20 36.667c6.904 0 12.5-5.597 12.5-12.5 0-6.904-5.596-12.5-12.5-12.5s-12.5 5.596-12.5 12.5c0 6.903 5.596 12.5 12.5 12.5"/><path fill="#464B55" d="M20 11.667c6.9 0 12.5 5.6 12.5 12.5s-5.6 12.5-12.5 12.5"/><path fill="#0A0B0D" d="M20 34.375c5.638 0 10.208-4.57 10.208-10.208S25.638 13.958 20 13.958 9.792 18.528 9.792 24.167 14.362 34.375 20 34.375"/><path fill="#FFFFFF" d="M25 19.167a10.44 10.44 0 0 0 0 10 10.44 10.44 0 0 0-10 0c1.7-3.117 1.7-6.884 0-10 3.117 1.7 6.883 1.7 10 0"/></svg>