<svg xmlns="http://www.w3.org/2000/svg" fill="none" viewBox="0 0 48 48"><g clip-path="url(#a)"><path fill="#F07836" d="M24.678 22.225 39.406 48H9.95z"/><path fill="#578BFA" d="M0 0h48v28H0z"/><path fill="#0A0B0D" d="M27.979 28h-6.6l3.3-5.775z"/><path fill="#FFFFFF" d="M4 4h16v16H4z"/><path fill="#0A0B0D" d="M25.581 31.235h-1.8v8.5h1.8zm0 10.535h-1.8v2.755h1.8z"/><path fill="#0A0B0D" fill-rule="evenodd" d="M20 16.175V20H4v-3.825A9.74 9.74 0 0 1 12 12c3.31 0 6.24 1.65 8 4.175" clip-rule="evenodd"/><path fill="#0A0B0D" d="M15 8c0 1.655-1.345 3-3 3S9 9.655 9 8s1.345-3 3-3 3 1.345 3 3"/><path stroke="#0A0B0D" stroke-width="2" d="M23.91 7.95h20.8m-20.8 4.32h20.8m-20.8 4.23h11.42"/></g><defs><clipPath id="a"><path fill="#FFFFFF" d="M0 0h48v48H0z"/></clipPath></defs></svg>