<svg xmlns="http://www.w3.org/2000/svg" fill="none" viewBox="0 0 240 240"><path fill="#0A0B0E" d="M188.603 115.524v8.988H47.31a4.48 4.48 0 0 1-4.474-4.491c0-2.482 2.002-4.497 4.474-4.497z"/><path fill="#FFD200" d="M155.69 115.527q-.001 1.638-.142 3.23c-1.631 18.306-17.017 32.664-35.758 32.664-18.74 0-34.12-14.358-35.757-32.664a37 37 0 0 1-.142-3.23c0-19.825 16.068-35.9 35.899-35.9 19.832 0 35.9 16.075 35.9 35.9"/><path fill="#FFD200" d="M155.69 115.527q-.001 1.638-.142 3.23c-1.631 18.306-17.017 32.664-35.758 32.664-18.74 0-34.12-14.358-35.757-32.664a37 37 0 0 1-.142-3.23c0-19.825 16.068-35.9 35.899-35.9 19.832 0 35.9 16.075 35.9 35.9M108.636 35.9c0 1.09-.05 2.17-.143 3.23-1.63 18.306-17.017 32.663-35.757 32.663S38.616 57.436 36.978 39.13a37 37 0 0 1-.142-3.23c0-19.825 16.068-35.9 35.9-35.9s35.9 16.075 35.9 35.9"/><path fill="#FFD200" d="M108.636 35.9c0 1.09-.05 2.17-.143 3.23-1.63 18.306-17.017 32.663-35.757 32.663S38.616 57.436 36.978 39.13a37 37 0 0 1-.142-3.23c0-19.825 16.068-35.9 35.9-35.9s35.9 16.075 35.9 35.9"/><path fill="#0A0B0D" d="M97.653 35.899c0-13.76-11.153-24.916-24.917-24.916-13.763 0-24.915 11.156-24.916 24.916 0 .753.035 1.508.1 2.247h-.001C49.056 50.848 59.732 60.81 72.736 60.81v2l-.656-.008c-13.752-.33-24.945-10.971-26.153-24.482a28 28 0 0 1-.107-2.422c0-14.864 12.048-26.916 26.916-26.916 14.87 0 26.917 12.052 26.917 26.916l-.007.612a28 28 0 0 1-.1 1.81c-1.223 13.725-12.759 24.49-26.81 24.49v-2c13.007 0 23.686-9.966 24.818-22.668q.098-1.108.1-2.244"/><path fill="#0A0B0D" d="M97.653 35.899c0-13.76-11.153-24.916-24.917-24.916-13.763 0-24.915 11.156-24.916 24.916 0 .753.035 1.508.1 2.247h-.001C49.056 50.848 59.732 60.81 72.736 60.81v2l-.656-.008c-13.752-.33-24.945-10.971-26.153-24.482a28 28 0 0 1-.107-2.422c0-14.864 12.048-26.916 26.916-26.916 14.87 0 26.917 12.052 26.917 26.916l-.007.612a28 28 0 0 1-.1 1.81c-1.223 13.725-12.759 24.49-26.81 24.49v-2c13.007 0 23.686-9.966 24.818-22.668q.098-1.108.1-2.244m47.054 79.628c0-13.76-11.153-24.916-24.917-24.916s-24.916 11.156-24.916 24.916c0 .753.035 1.508.1 2.247h-.001c1.137 12.702 11.813 22.665 24.817 22.665v2l-.656-.008c-13.752-.329-24.946-10.971-26.154-24.482a28 28 0 0 1-.106-2.422c0-14.864 12.047-26.916 26.916-26.916s26.917 12.052 26.917 26.916l-.007.612a28 28 0 0 1-.1 1.81c-1.223 13.725-12.759 24.49-26.81 24.49v-2c13.006 0 23.686-9.965 24.817-22.668q.099-1.108.1-2.244"/><path fill="#0A0B0D" d="M144.708 115.526c0-13.76-11.153-24.916-24.917-24.916s-24.916 11.156-24.916 24.916c0 .753.035 1.508.1 2.247h-.001c1.137 12.702 11.813 22.665 24.817 22.665v2l-.656-.008c-13.752-.329-24.946-10.971-26.154-24.482a28 28 0 0 1-.106-2.422c0-14.864 12.047-26.916 26.916-26.916s26.917 12.052 26.917 26.916l-.007.612a28 28 0 0 1-.1 1.81c-1.223 13.725-12.759 24.49-26.81 24.49v-2c13.006 0 23.686-9.965 24.817-22.668q.099-1.108.1-2.244"/><path fill="#3CC28A" d="M196.748 124.221v103.196H47.314a4.48 4.48 0 0 1-4.478-4.483V119.737a4.48 4.48 0 0 0 4.478 4.484z"/><path fill="#0052FF" d="M154.627 124.221c-3.886 15.62-18.008 27.199-34.838 27.199-16.829 0-30.946-11.579-34.836-27.199z"/><path fill="#0A0B0E" d="M167.008 163.9h36.156v24.129h-36.156z"/><path fill="#0052FF" d="M196.742 163.9h6.42v24.129h-6.42z"/><path fill="#3CC28A" d="M199.834 186.02c-.185.201-.37.281-.561.281s-.377-.08-.562-.281z"/><path fill="#FFFFFE" d="M183.626 180.739c2.56 0 4.635-2.138 4.635-4.775s-2.075-4.774-4.635-4.774-4.634 2.137-4.634 4.774 2.075 4.775 4.634 4.775"/><path fill="#FFD200" d="m114.164 57.998 63.609-35.32 6.996 12.6-63.608 35.32z"/><path fill="#0A0B0D" d="m127.41 67.14-1.754.962-5.292-9.65 1.753-.962zm13.64-7.574-1.753.961-5.293-9.65 1.754-.962zm27.289-15.15-1.753.962-5.293-9.651 1.754-.962zm13.641-7.574-1.754.961-5.292-9.65 1.754-.962zm-27.289 15.149-1.754.962-5.292-9.651 1.753-.962z"/><path fill="#CED2DB" d="M131.199 8.983a17.27 17.27 0 0 0 11.411 11.414 17.26 17.26 0 0 0-11.411 11.41 17.26 17.26 0 0 0-11.41-11.41 17.26 17.26 0 0 0 11.41-11.414m53.571 62.81a17.27 17.27 0 0 0 11.41 11.414 17.26 17.26 0 0 0-11.41 11.41 17.26 17.26 0 0 0-11.411-11.41 17.27 17.27 0 0 0 11.411-11.414M54.246 83.206a17.27 17.27 0 0 0 11.41 11.413 17.26 17.26 0 0 0-11.41 11.411 17.26 17.26 0 0 0-11.41-11.41 17.27 17.27 0 0 0 11.41-11.415"/></svg>