<svg xmlns="http://www.w3.org/2000/svg" fill="none" viewBox="0 0 240 120"><g clip-path="url(#a)"><path fill="#73A2FF" d="M81.727 94.698 0 120.006V15.015l81.727 25.292zm76.535 0 81.736 25.295V15.015l-81.736 25.292z"/><path fill="#0A0B0F" d="M120.241 0c21.497 0 38.952 17.484 38.952 39.017V120H81.289V39.017C81.28 17.484 98.734 0 120.241 0"/><path fill="#FFFFFF" d="M159.193 101.923v2H81.289v-2zm-7.423-85.806q.71.978 1.36 2H87.347q.648-1.022 1.36-2zM127.885 52.32v15.4h-15.401v-15.4zm-13.401 13.4h11.401v-11.4h-11.401z"/><path fill="#FFFFFF" d="M146.299 33.906v52.228H94.07V33.906zM96.07 84.134h48.23V35.906H96.07z"/><path fill="#FFD200" d="M132.192 80.859a4.567 4.567 0 0 0 4.564-4.571 4.567 4.567 0 0 0-4.564-4.571 4.567 4.567 0 0 0-4.563 4.57 4.567 4.567 0 0 0 4.563 4.572M119.62 0c.369 0 .738.02 1.107.03.01.3.05.59.05.9 0 10.046-8.133 18.194-18.163 18.194-4.97 0-9.481-2.01-12.755-5.249C96.995 5.388 107.684 0 119.62 0"/><path fill="#0A0B0F" d="M46.589 41.325c3.196-3.993-1.757-13.288-11.063-20.762-9.307-7.473-19.441-10.294-22.638-6.301-3.196 3.993 1.758 13.288 11.064 20.762 9.306 7.473 19.44 10.294 22.637 6.301"/><path fill="#0A0B0F" d="m22.926 11.09-4.57-3.67-5.588 6.98 4.571 3.67zm29.129 23.398-4.57-3.67-5.588 6.98 4.57 3.67z"/><path fill="#0052FF" d="M52.21 34.293c3.196-3.993-1.757-13.288-11.063-20.761C31.84 6.058 21.706 3.237 18.51 7.23s1.757 13.289 11.063 20.762 19.44 10.294 22.637 6.301"/><path fill="#FFD200" d="M53.174 31.47c-.042 1.102-.354 2.06-.965 2.823-3.196 3.993-13.33 1.172-22.637-6.3a47.6 47.6 0 0 1-5.955-5.669z"/><path fill="#0A0B0F" d="M102.385 98.399c.871-7.369-8.092-14.489-20.019-15.903S60.064 85.91 59.194 93.278s8.092 14.489 20.019 15.903 22.302-3.413 23.172-10.782"/><path fill="#0A0B0F" d="m65.22 86.323-5.134-.608-.92 7.792 5.133.61zm38.051 4.509-5.134-.609-.921 7.793 5.134.61z"/><path fill="#3CC28A" d="M220.014 30.821c7.03 0 12.729-5.708 12.729-12.75s-5.699-12.75-12.729-12.75-12.729 5.708-12.729 12.75 5.699 12.75 12.729 12.75"/><path fill="#FFD200" d="M232.718 17.294q.023.386.024.777c0 7.042-5.698 12.75-12.728 12.75-4.616 0-8.657-2.461-10.889-6.144z"/><path fill="#0A0B0F" d="M171.37 49.548c9.373-7.388 12.517-19.047 7.023-26.041-5.495-6.995-17.548-6.675-26.921.714s-12.518 19.047-7.023 26.041c5.494 6.994 17.547 6.675 26.921-.714"/><path fill="#0A0B0F" d="m148.65 55.578 33.936-26.75-4.036-5.138-33.937 26.75zM84.472 82.21-.334 107.555l-.572-1.916 84.805-25.345zm156.919 23.429-.574 1.916-84.804-25.345.572-1.916zM88.014 67.375H-.498v-2h88.512zm152.968-2v2h-88.511v-2zM85.403 50.555l-.517 1.932L-.61 29.578l.517-1.931zm155.692-20.977-85.496 22.91-.518-1.933 85.496-22.908z"/><path fill="#FFFFFF" d="M210.723 52.533c4.431 0 8.027 3.602 8.027 8.04 0-4.438 3.596-8.04 8.027-8.04-4.431 0-8.027-3.602-8.027-8.04 0 4.438-3.59 8.04-8.027 8.04m-44.309 23.755a5.49 5.49 0 0 1 5.485 5.494 5.49 5.49 0 0 1 5.485-5.494 5.49 5.49 0 0 1-5.485-5.494 5.49 5.49 0 0 1-5.485 5.494M63.395 57.352a5.49 5.49 0 0 1 5.484 5.494 5.49 5.49 0 0 1 5.486-5.494 5.49 5.49 0 0 1-5.486-5.495 5.49 5.49 0 0 1-5.485 5.495M6.871 90.584c4.431 0 8.027 3.602 8.027 8.041 0-4.439 3.596-8.04 8.028-8.04-4.432 0-8.028-3.603-8.028-8.041 0 4.438-3.59 8.04-8.027 8.04"/><path fill="#0052FF" d="M175.503 54.818c9.373-7.389 12.517-19.048 7.023-26.042-5.495-6.994-17.548-6.674-26.921.714-9.374 7.389-12.518 19.048-7.023 26.042 5.494 6.994 17.547 6.674 26.921-.714"/><path fill="#3CC28A" d="M157.622 28.037a39 39 0 0 1 1.569 10.98v21.537c-4.306-.198-8.126-1.863-10.608-5.022-5.495-6.994-2.35-18.653 7.023-26.042q.99-.779 2.016-1.453"/><path fill="#0A0B0F" d="M210.35 118.105c11.263-3.884 18.063-13.808 15.19-22.166s-14.331-11.984-25.593-8.1-18.063 13.809-15.19 22.166 14.331 11.984 25.593 8.1"/><path fill="#0A0B0F" d="m186.735 102.309-4.133 1.425 2.141 6.229 4.133-1.425zm36.644-12.642-4.133 1.426 2.141 6.229 4.133-1.426z"/><path fill="#0052FF" d="M208.179 111.772c11.262-3.884 18.062-13.808 15.19-22.166-2.873-8.357-14.332-11.984-25.594-8.1s-18.063 13.809-15.19 22.167c2.873 8.357 14.331 11.983 25.594 8.099"/><path fill="#FFD200" d="M197.777 81.507c11.262-3.884 22.721-.258 25.594 8.1 2.669 7.764-3.012 16.878-12.861 21.248l-28.381-8.936c-1.453-7.947 5.165-16.796 15.648-20.412m-13.29-49.117c2.39 6.944-1.085 16.202-8.983 22.427-5.14 4.051-11.085 5.977-16.313 5.738V40.307zm-81.231 58.651c.871-7.369-8.092-14.489-20.019-15.903s-22.301 3.414-23.172 10.783c-.87 7.368 8.092 14.488 20.02 15.902 11.926 1.414 22.301-3.413 23.171-10.782"/><path fill="#FFD200" d="M60.066 85.92c.834-7.055 10.382-11.781 21.662-10.928v19.706l-12.54 3.903c-6-3.078-9.695-7.825-9.122-12.68"/><path fill="#3CC28A" d="M81.29 74.963q.965.06 1.948.176c11.927 1.414 20.89 8.533 20.02 15.902-.841 7.12-10.555 11.866-21.969 10.903z"/><path fill="#FFD200" d="M25.452 79.603c7.03 0 12.729-5.709 12.729-12.75s-5.7-12.75-12.73-12.75-12.728 5.708-12.728 12.75 5.699 12.75 12.729 12.75"/></g><defs><clipPath id="a"><path fill="#FFFFFF" d="M0 0h240v120H0z"/></clipPath></defs></svg>