<svg xmlns="http://www.w3.org/2000/svg" fill="none" viewBox="0 0 32 32"><g clip-path="url(#a)"><path fill="var(--illustration-primary)" d="M15.997 31.993c8.834 0 15.996-7.162 15.996-15.996C31.993 7.162 24.831 0 15.997 0 7.162 0 0 7.162 0 15.997c0 8.834 7.162 15.996 15.997 15.996"/><path fill="var(--illustration-white)" d="M19.085 16.193c-1.543 0-2.514-1.05-2.514-2.647 0-1.609.984-2.686 2.54-2.686 1.543 0 2.527 1.077 2.527 2.686 0 1.596-.997 2.647-2.553 2.647m-.852 4.216 3.325-4.655 3.312-4.708h1.596l-3.352 4.708-3.298 4.655zm.852-5.466c.744 0 1.183-.545 1.183-1.397 0-.864-.425-1.436-1.157-1.436-.745 0-1.17.572-1.17 1.436 0 .852.412 1.397 1.144 1.397m6.49 5.679c-1.556 0-2.527-1.064-2.527-2.674s.97-2.673 2.527-2.673c1.543 0 2.513 1.064 2.513 2.673 0 1.61-.97 2.674-2.513 2.674m0-1.25c.718 0 1.157-.572 1.157-1.424 0-.85-.439-1.422-1.157-1.422-.732 0-1.157.571-1.157 1.422 0 .852.425 1.424 1.157 1.424M5.54 22.836v-2.1c0-1.816.847-2.967 2.845-4.158l2.523-1.554c1.353-.827 1.676-1.534 1.676-2.3V12.5c0-1.11-.687-2.018-2.18-2.018-1.353 0-2.26.767-2.301 2.3H5.499c.1-2.784 2.1-4.46 4.905-4.46 3.027 0 4.844 1.877 4.844 4.219 0 1.695-.807 3.047-2.967 4.4l-2.846 1.756c-.908.585-1.252 1.07-1.252 1.897h7.267v2.24z"/></g><defs><clipPath id="a"><path fill="var(--illustration-white)" d="M0 0h32v32H0z"/></clipPath></defs></svg>