<svg xmlns="http://www.w3.org/2000/svg" fill="none" viewBox="0 0 32 32"><path fill="#ECD069" d="M32 16c0 8.837-7.163 16-16 16S0 24.837 0 16 7.163 0 16 0s16 7.163 16 16"/><path fill="#0A0B0D" d="M16 8.444a1 1 0 0 1 .906.577l1.932 4.139 4.141 1.933a1 1 0 0 1 0 1.813l-4.141 1.931-1.932 4.142a1 1 0 0 1-1.812 0l-1.934-4.142-4.139-1.931a1 1 0 0 1 0-1.813l4.14-1.932 1.933-4.14A1 1 0 0 1 16 8.444m-1.18 5.892a1 1 0 0 1-.483.484L11.808 16l2.529 1.18.078.04c.176.103.318.257.405.443L16 20.19l1.18-2.528.04-.077a1 1 0 0 1 .443-.406L20.19 16l-2.528-1.18a1 1 0 0 1-.483-.484L16 11.808z"/><path fill="#0A0B0D" d="M25.772 16c0-5.397-4.375-9.773-9.772-9.773S6.227 10.603 6.227 16s4.376 9.772 9.773 9.772v2c-6.502 0-11.773-5.27-11.773-11.772S9.498 4.227 16 4.227 27.772 9.498 27.772 16 22.502 27.772 16 27.772v-2c5.397 0 9.772-4.375 9.772-9.772"/></svg>