<svg width="524" height="156" viewBox="0 0 524 156" fill="none" xmlns="http://www.w3.org/2000/svg">
<g clip-path="url(#clip0_5598_281)">
<path d="M0 0H524V156H0V0Z" fill="#7E1E6F"/>
<path d="M333.887 38.2747C338.151 37.6655 347.532 38.031 350.943 44.3662V116.247C347.694 118.481 339.735 121.608 333.887 116.247" stroke="white" stroke-width="2"/>
<path d="M368 38.2747C363.736 37.6655 354.355 38.031 350.944 44.3662V116.247C354.192 118.481 362.152 121.608 368 116.247" stroke="white" stroke-width="2"/>
<path d="M339.216 76.3472H362.669" stroke="white" stroke-width="2"/>
<path d="M320.324 97.805V96.11C320.324 84.366 311.607 76.6174 297.684 76.6174H291.388V72.2588L316.813 41.0222H275.043V35.8161H323.351V41.0222L298.41 71.4113V71.5324C315.239 71.8956 326.257 81.7024 326.257 96.9575C326.257 111.849 315.239 122.746 299.016 122.746C281.46 122.746 272.138 111.849 271.29 98.8946H277.102C277.707 108.823 284.729 117.782 299.016 117.782C312.818 117.782 320.324 108.58 320.324 97.805Z" fill="#F6B8F3"/>
<path d="M201.774 121.051V106.522C201.774 95.5046 206.738 88.6035 218.966 81.8235L233.737 73.4695C241.364 69.232 243.059 65.3577 243.059 61.3623V60.1516C243.059 54.3401 239.669 49.6183 231.921 49.6183C225.02 49.6183 220.298 53.1294 220.056 61.3623H201.29C202.016 44.1701 214.365 34 231.921 34C251.171 34 262.31 45.9861 262.31 60.2726C262.31 70.927 256.983 79.402 243.423 87.2717L226.23 97.3207C221.993 99.7421 220.782 101.8 220.782 104.827H263.278V121.051H201.774Z" fill="#ED95E6"/>
<path d="M176.945 121.051V60.0305H156V50.5869H176.945V35.8161H188.326V121.051H176.945Z" fill="#E175D6"/>
</g>
<defs>
<clipPath id="clip0_5598_281">
<rect width="524" height="156" fill="white"/>
</clipPath>
</defs>
</svg>
