<svg xmlns="http://www.w3.org/2000/svg" fill="none" viewBox="0 0 240 120"><g clip-path="url(#a)"><path fill="#464B55" d="M216.54 68.72H25v51.12h191.54z"/><path fill="#ECD069" d="M25.57 119.85c14.122 0 25.57-11.448 25.57-25.57S39.692 68.71 25.57 68.71 0 80.158 0 94.28s11.448 25.57 25.57 25.57m188.859 0c14.122 0 25.57-11.448 25.57-25.57s-11.448-25.57-25.57-25.57-25.57 11.448-25.57 25.57 11.448 25.57 25.57 25.57"/><path fill="#464B55" d="M216.54-.34H25v51.12h191.54z"/><path fill="#ECD069" d="M25.57 50.79c14.122 0 25.57-11.448 25.57-25.57S39.692-.35 25.57-.35 0 11.098 0 25.22s11.448 25.57 25.57 25.57m188.859 0c14.122 0 25.57-11.448 25.57-25.57S228.551-.35 214.429-.35s-25.57 11.448-25.57 25.57 11.448 25.57 25.57 25.57"/><path fill="#464B55" d="M119.999 19.44c11.75 0 21.3 9.56 21.3 21.3V78.7h-42.61V40.74c0-11.75 9.56-21.3 21.3-21.3m.01-20c-22.81 0-41.3 18.49-41.3 41.3V98.7h82.61V40.74c0-22.81-18.49-41.3-41.3-41.3z"/><path fill="#578BFA" d="M78.7 40.74v10.04h20V40.74c0-11.75 9.559-21.3 21.299-21.3s21.3 9.56 21.3 21.3v10.04h20V40.74c0-21.36-16.21-38.93-37-41.08h-8.61c-20.79 2.15-37 19.72-37 41.08z"/><path fill="#0A0B0D" d="M25.08 22.3a5.97 5.97 0 1 0 0-11.94 5.97 5.97 0 0 0 0 11.94M11.94 39c0-7.25 5.88-13.13 13.13-13.13S38.2 31.75 38.2 39zm13.14 51.32a5.97 5.97 0 1 0 0-11.94 5.97 5.97 0 0 0 0 11.94m-13.14 16.71c0-7.25 5.88-13.13 13.13-13.13s13.13 5.88 13.13 13.13zM215.37 22.3a5.97 5.97 0 1 0 0-11.94 5.97 5.97 0 0 0 0 11.94M202.24 39c0-7.25 5.88-13.13 13.13-13.13S228.5 31.75 228.5 39h-26.27zm13.13 51.32a5.97 5.97 0 1 0 0-11.94 5.97 5.97 0 0 0 0 11.94m-13.13 16.71c0-7.25 5.88-13.13 13.13-13.13s13.13 5.88 13.13 13.13h-26.27z"/><path fill="#578BFA" d="M161.309 68.7h-82.61v51.14h82.61z"/><path fill="#0A0B0D" d="M120.87 89.845a4.1 4.1 0 1 0 0-8.2 4.1 4.1 0 0 0 0 8.2"/><path fill="#0A0B0D" d="M121.869 85.875v12.11h-2v-12.11zM120.004 7.75C137.675 7.75 152 22.163 152 39.943v10.702h-2V39.943c0-16.687-13.441-30.193-29.996-30.193h-.008c-16.296 0-29.575 13.087-29.986 29.413l-.01.78v10.702h-2V39.943c0-17.78 14.325-32.193 31.996-32.193zM161 108.645v2H79v-2z"/></g><defs><clipPath id="a"><path fill="#FFFFFF" d="M0 0h240v120H0z"/></clipPath></defs></svg>