<svg xmlns="http://www.w3.org/2000/svg" fill="none" viewBox="0 0 240 120"><g clip-path="url(#a)"><path fill="#44C28D" d="M26 28h188v-3h26v69h-26v-2H26v2H0V25h26z"/><path fill="#45D9F5" d="M163 60.008a42.86 42.86 0 0 1-5.753 21.503C149.812 94.369 135.904 103 120.008 103c-15.912 0-29.804-8.647-37.255-21.489A42.86 42.86 0 0 1 77 60.009C77 36.254 96.247 17 119.992 17 143.753 17 163 36.254 163 60.008"/><path fill="#578BFA" d="M148.719 28C157.486 35.873 163 47.295 163 60.008c0 7.82-2.096 15.183-5.753 21.504A43.1 43.1 0 0 1 148.731 92H91.284a43.3 43.3 0 0 1-8.531-10.488A42.86 42.86 0 0 1 77 60.008C77 47.295 82.514 35.873 91.278 28z"/><path fill="#ECD069" d="M50 95.004a24.9 24.9 0 0 1-3.345 12.503C42.332 114.981 34.247 120 25.005 120c-9.252 0-17.328-5.028-21.66-12.493A24.9 24.9 0 0 1 0 95.004C0 81.194 11.19 70 24.996 70 38.81 70 50 81.194 50 95.004"/><path fill="#45D9F5" d="M240 95.004a24.9 24.9 0 0 1-3.345 12.503C232.332 114.981 224.247 120 215.004 120c-9.251 0-17.327-5.028-21.659-12.493A24.9 24.9 0 0 1 190 95.004C190 81.194 201.19 70 214.996 70 228.81 70 240 81.194 240 95.004m-190-70a24.9 24.9 0 0 1-3.345 12.503C42.332 44.98 34.247 50 25.005 50c-9.252 0-17.328-5.028-21.66-12.493A24.9 24.9 0 0 1 0 25.004C0 11.194 11.19 0 24.996 0 38.81 0 50 11.194 50 25.004"/><path fill="#0A0B0D" d="M25.13 26.51c7.25 0 13.13 5.88 13.13 13.13H12c0-7.25 5.88-13.13 13.13-13.13M25.14 11a5.97 5.97 0 1 1 0 11.941 5.97 5.97 0 0 1 0-11.941m0 80.94a5.97 5.97 0 1 0 0-11.94 5.97 5.97 0 0 0 0 11.94M12 108.64c0-7.25 5.88-13.13 13.13-13.13s13.13 5.88 13.13 13.13z"/><path fill="#ECD069" d="M240 25.004a24.9 24.9 0 0 1-3.345 12.503C232.332 44.98 224.247 50 215.004 50c-9.251 0-17.327-5.028-21.659-12.493A24.9 24.9 0 0 1 190 25.004C190 11.194 201.19 0 214.996 0 228.81 0 240 11.194 240 25.004"/><path fill="#FFFFFF" d="m134.298 48.388-19.721 19.714-8.873-8.874-2.956 2.955 11.829 11.83 22.676-22.67z"/><path fill="#0A0B0D" d="M215.14 22.94a5.97 5.97 0 1 0 0-11.94 5.97 5.97 0 0 0 0 11.94M202 39.64c0-7.25 5.88-13.13 13.13-13.13s13.13 5.88 13.13 13.13zm13.14 52.3a5.97 5.97 0 1 0 0-11.94 5.97 5.97 0 0 0 0 11.94M202 108.64c0-7.25 5.88-13.13 13.13-13.13s13.13 5.88 13.13 13.13z"/><path fill="#FFFFFF" d="M175 60.5C175 30.417 150.392 6 120 6S65 30.417 65 60.5 89.608 115 120 115v2c-31.48 0-57-25.296-57-56.5S88.52 4 120 4s57 25.296 57 56.5-25.52 56.5-57 56.5v-2c30.392 0 55-24.417 55-54.5"/><circle cx="4" cy="60" r="4" fill="#FFFFFF"/><path fill="#44C28D" d="M45 47h25v27H45zm123 0h25v27h-25z"/><circle cx="65" cy="60" r="4" fill="#FFFFFF"/><path fill="#FFFFFF" d="M61 59v2H5v-2z"/><circle cx="175" cy="60" r="4" fill="#FFFFFF"/><circle cx="236" cy="60" r="4" fill="#FFFFFF"/><path fill="#FFFFFF" d="M236 59v2h-60v-2z"/></g><defs><clipPath id="a"><path fill="#FFFFFF" d="M0 0h240v120H0z"/></clipPath></defs></svg>